<?xml version="1.0" encoding="UTF-8"?>
<svg width="40px" height="40px" viewBox="0 0 40 40" version="1.1" xmlns="http://www.w3.org/2000/svg" xmlns:xlink="http://www.w3.org/1999/xlink">
    <!-- Generator: Sketch 58 (84663) - https://sketch.com -->
    <title>关于</title>
    <desc>Created with Sketch.</desc>
    <g id="我的" stroke="none" stroke-width="1" fill="none" fill-rule="evenodd">
        <g id="4-我的" transform="translate(-56.000000, -1740.000000)" fill="#FE9339" fill-rule="nonzero">
            <g id="我的推荐备份" transform="translate(30.000000, 1432.000000)">
                <g id="设置" transform="translate(26.000000, 308.000000)">
                    <g id="关于">
                        <path d="M16.7780346,32.5541455 C15.3330725,32.5541455 14.3330988,31.6641688 15.3330725,27.999265 L16.8905316,21.4444371 C17.1130258,20.4444633 17.2230229,19.999475 16.8905316,19.999475 C16.4455433,19.999475 14.66559,20.7769546 13.5556192,21.4444371 L12.8906366,20.3319663 C16.2230492,17.5570391 20.1104471,15.8895829 21.7779034,15.8895829 C23.1103684,15.8895829 23.4453596,17.5545392 22.66788,20.1094721 L20.8904266,26.9992912 C20.5554354,28.2217592 20.6654325,28.6642475 21.0004238,28.6642476 C21.4454121,28.6642476 22.7778771,28.1092621 24.1103421,27.1092884 L24.8878217,28.1092621 C21.6679063,31.2216804 18.1129996,32.5541455 16.7780346,32.5541455 M22.0003975,6.667325 C24.000345,6.667325 24.6678275,7.88979293 24.6678275,9.22225793 C24.6678275,10.8897141 23.3328625,12.4446733 21.0004237,12.4446733 C19.1104734,12.4446733 18.1104996,11.4446996 18.2229967,9.88974039 C18.1104996,8.55477543 19.2229704,6.66482504 22.0003975,6.66482504 M19.7779559,0 C8.6682475,0.112497031 -0.109022109,9.22475785 0.00347492187,20.2244691 C0.113472031,31.2241804 9.22323289,40.1114471 20.2229442,39.99895 C31.2226554,39.8889529 40.1099221,30.7791921 39.9974251,19.7794808 C39.887428,8.66977242 30.7776671,-0.107497188 19.7779559,0.00499988281" id="形状"></path>
                    </g>
                </g>
            </g>
        </g>
    </g>
</svg>