<?xml version="1.0" encoding="UTF-8"?>
<svg width="46px" height="46px" viewBox="0 0 46 46" version="1.1" xmlns="http://www.w3.org/2000/svg" xmlns:xlink="http://www.w3.org/1999/xlink">
    <!-- Generator: Sketch 58 (84663) - https://sketch.com -->
    <title>矩形</title>
    <desc>Created with Sketch.</desc>
    <g id="社交" stroke="none" stroke-width="1" fill="none" fill-rule="evenodd">
        <g id="4.2-添加朋友-(Add-Friends)" transform="translate(-541.000000, -302.000000)" fill="#000000" fill-rule="nonzero">
            <g id="扫一扫" transform="translate(541.000000, 302.000000)">
                <rect id="矩形" opacity="0" x="0" y="0" width="46" height="46"></rect>
                <path d="M6.55504097,14.000475 L6.55504097,7.70217316 C6.55504097,7.06862954 7.06862954,6.55504097 7.70217316,6.55504097 L14.000475,6.55504097 C14.6340186,6.55504094 15.1476072,6.04145238 15.1476072,5.40790878 L15.1476072,1.14713219 C15.1476072,0.513588592 14.6340186,2.66453526e-15 14.000475,2.66453526e-15 L1.14713219,2.66453526e-15 C0.513588574,2.66453526e-15 3.55271368e-15,0.513588574 3.55271368e-15,1.14713219 L3.55271368e-15,14.000475 C3.55271368e-15,14.6340186 0.513588592,15.1476072 1.14713219,15.1476072 L5.40790878,15.1476072 C6.04145238,15.1476072 6.55504094,14.6340186 6.55504097,14.000475 Z M31.999525,6.55504097 L38.3032894,6.55504097 C38.9346987,6.55804772 39.4449662,7.07075668 39.444959,7.70217316 L39.444959,14.000475 C39.4449591,14.6340186 39.9585476,15.1476072 40.5920912,15.1476072 L44.8583304,15.1476072 C45.4897397,15.1446004 46,14.6318915 46,14.000475 L46,1.14713219 C46,0.515715714 45.4897397,0.00300675096 44.8583304,0 L31.999525,0 C31.3659814,0 30.8523928,0.513588592 30.8523928,1.14713219 L30.8523928,5.40790878 C30.8523928,6.04145238 31.3659814,6.55504094 31.999525,6.55504097 Z M14.000475,39.444959 L7.70217316,39.444959 C7.07075668,39.4449662 6.55804772,38.9346987 6.55504097,38.3032894 L6.55504097,31.999525 C6.55504094,31.3659814 6.04145238,30.8523928 5.40790878,30.8523928 L1.14713219,30.8523928 C0.513588592,30.8523928 3.55271368e-15,31.3659814 3.55271368e-15,31.999525 L3.55271368e-15,44.8583304 C0.00300675096,45.4897397 0.515715714,46 1.14713219,46 L14.000475,46 C14.6318915,46 15.1446004,45.4897397 15.1476072,44.8583304 L15.1476072,40.5920912 C15.1476072,39.9585476 14.6340186,39.4449591 14.000475,39.444959 L14.000475,39.444959 Z M39.444959,31.999525 L39.444959,38.3032894 C39.4419695,38.9325737 38.9325737,39.4419695 38.3032894,39.444959 L31.999525,39.444959 C31.3659814,39.4449591 30.8523928,39.9585476 30.8523928,40.5920912 L30.8523928,44.8583304 C30.8553996,45.4897397 31.3681085,46 31.999525,46 L44.8583304,46 C45.4876146,45.9970105 45.9970105,45.4876146 46,44.8583304 L46,31.999525 C46,31.3681085 45.4897397,30.8553996 44.8583304,30.8523928 L40.5920912,30.8523928 C39.9585476,30.8523928 39.4449591,31.3659814 39.444959,31.999525 L39.444959,31.999525 Z M1.14713219,20.1185132 L44.8528678,20.1185132 C45.6176226,20.1185132 46,20.5008906 46,21.2656454 L46,25.5264221 C46,26.2911769 45.6176226,26.6735542 44.8528678,26.6735542 L1.14713219,26.6735542 C0.382377396,26.6735542 0,26.2911768 0,25.5264221 L0,21.2656454 C0,20.5008906 0.382377396,20.1185132 1.14713219,20.1185132 L1.14713219,20.1185132 Z" id="形状"></path>
            </g>
        </g>
    </g>
</svg>