<?xml version="1.0" encoding="UTF-8"?>
<svg width="46px" height="46px" viewBox="0 0 46 46" version="1.1" xmlns="http://www.w3.org/2000/svg" xmlns:xlink="http://www.w3.org/1999/xlink">
    <!-- Generator: Sketch 58 (84663) - https://sketch.com -->
    <title>矩形</title>
    <desc>Created with Sketch.</desc>
    <g id="首页" stroke="none" stroke-width="1" fill="none" fill-rule="evenodd">
        <g id="1.0-首页-(Home---Main-DApp)" transform="translate(-674.000000, -61.000000)">
            <g id="顶部">
                <g id="导航栏" transform="translate(30.000000, 54.000000)">
                    <g id="加" transform="translate(644.000000, 7.000000)">
                        <g id="分组">
                            <rect id="矩形" fill="#000000" opacity="0" x="0" y="0" width="46" height="46"></rect>
                            <path d="M24.5,21.5 L40.5,21.5 C41.3284271,21.5 42,22.1715729 42,23 C42,23.8284271 41.3284271,24.5 40.5,24.5 L24.5,24.5 L24.5,40.5 C24.5,41.3284271 23.8284271,42 23,42 C22.1715729,42 21.5,41.3284271 21.5,40.5 L21.5,24.5 L5.5,24.5 C4.67157288,24.5 4,23.8284271 4,23 C4,22.1715729 4.67157288,21.5 5.5,21.5 L21.5,21.5 L21.5,5.5 C21.5,4.67157288 22.1715729,4 23,4 C23.8284271,4 24.5,4.67157288 24.5,5.5 L24.5,21.5 Z" id="路径" fill="#FFFFFF"></path>
                        </g>
                    </g>
                </g>
            </g>
        </g>
    </g>
</svg>