<?xml version="1.0" encoding="UTF-8"?>
<svg width="700px" height="11px" viewBox="0 0 700 11" version="1.1" xmlns="http://www.w3.org/2000/svg" xmlns:xlink="http://www.w3.org/1999/xlink">
    <!-- Generator: Sketch 58 (84663) - https://sketch.com -->
    <title>分组 2</title>
    <desc>Created with Sketch.</desc>
    <g id="购物车" stroke="none" stroke-width="1" fill="none" fill-rule="evenodd">
        <g id="3.3-确认订单" transform="translate(-24.000000, -148.000000)">
            <g id="分组-5" transform="translate(24.000000, 148.000000)">
                <g id="矩形">
                    <g id="分组-2">
                        <g>
                            <polygon id="矩形" fill="#5168CC" points="10.1445087 0 44.6358382 0 34.4913295 10.7407407 1.98951966e-13 10.7407407"></polygon>
                            <polygon id="矩形-copy-2" fill="#5168CC" points="119.705202 0 154.196532 0 144.052023 10.7407407 109.560694 10.7407407"></polygon>
                            <polygon id="矩形-copy-4" fill="#5168CC" points="229.265896 0 263.757225 0 253.612717 10.7407407 219.121387 10.7407407"></polygon>
                            <polygon id="矩形-copy-6" fill="#5168CC" points="338.82659 0 373.317919 0 363.17341 10.7407407 328.682081 10.7407407"></polygon>
                            <polygon id="矩形-copy-8" fill="#5168CC" points="448.387283 0 482.878613 0 472.734104 10.7407407 438.242775 10.7407407"></polygon>
                            <polygon id="矩形-copy-10" fill="#5168CC" points="557.947977 0 592.439306 0 582.294798 10.7407407 547.803468 10.7407407"></polygon>
                            <polygon id="矩形-copy-12" fill="#5168CC" points="667.508671 0 702 0 691.855491 10.7407407 657.364162 10.7407407"></polygon>
                            <polygon id="矩形-copy" fill="#ED6E75" points="64.9248555 0 99.416185 0 89.2716763 10.7407407 54.7803468 10.7407407"></polygon>
                            <polygon id="矩形-copy-3" fill="#ED6E75" points="174.485549 0 208.976879 0 198.83237 10.7407407 164.34104 10.7407407"></polygon>
                            <polygon id="矩形-copy-5" fill="#ED6E75" points="284.046243 0 318.537572 0 308.393064 10.7407407 273.901734 10.7407407"></polygon>
                            <polygon id="矩形-copy-7" fill="#ED6E75" points="393.606936 0 428.098266 0 417.953757 10.7407407 383.462428 10.7407407"></polygon>
                            <polygon id="矩形-copy-9" fill="#ED6E75" points="503.16763 0 537.65896 0 527.514451 10.7407407 493.023121 10.7407407"></polygon>
                            <polygon id="矩形-copy-11" fill="#ED6E75" points="612.728324 0 647.219653 0 637.075145 10.7407407 602.583815 10.7407407"></polygon>
                        </g>
                    </g>
                </g>
            </g>
        </g>
    </g>
</svg>