<?xml version="1.0" encoding="UTF-8"?>
<svg width="46px" height="46px" viewBox="0 0 46 46" version="1.1" xmlns="http://www.w3.org/2000/svg">
    <!-- Generator: Sketch 52.4 (67378) - http://www.bohemiancoding.com/sketch -->
    <title>bq_icon_default.png</title>
    <desc>Created with Sketch.</desc>
    <g id="设计规范" stroke="none" stroke-width="1" fill="none" fill-rule="evenodd">
        <g id="图标" transform="translate(-281.000000, -657.000000)">
            <g id="功能图标" transform="translate(79.000000, 590.000000)"></g>
            <g id="bq_icon_default.png" transform="translate(281.000000, 657.000000)">
                <rect id="矩形" fill="#000000" opacity="0" x="0" y="0" width="46" height="46"></rect>
                <path d="M22.999487,45.9999605 C19.9242886,46.0056703 16.8795611,45.390752 14.0476128,44.1920248 C11.3148082,43.0374774 8.8321177,41.3634008 6.73730917,39.2626918 C4.63659011,37.1678916 2.9625121,34.685199 1.80797613,31.9523882 C0.609167765,29.1202849 -0.00575247366,26.0753731 4.05528473e-05,23.0000005 C-0.00575246762,19.9246279 0.609167771,16.8797161 1.80797613,14.0476128 C2.9625121,11.314802 4.63659011,8.83210942 6.73730917,6.73730922 C8.83210937,4.63659014 11.3148019,2.96251212 14.0476128,1.80797613 C16.879716,0.609167765 19.9246279,-0.00575247366 23.0000005,4.05528473e-05 C26.0754788,-0.00526518131 29.1203948,0.610179826 31.9523882,1.80951654 C34.685199,2.96405253 37.1678916,4.63813055 39.2626918,6.73884963 C41.3634109,8.83364983 43.0374889,11.3163424 44.1920248,14.0491532 C45.3908332,16.8812565 46.0057534,19.9261683 45.9999604,23.0015409 C46.0045473,26.0769874 45.388404,29.1217274 44.1884305,31.9534151 C43.0338946,34.686226 41.3598166,37.1689186 39.2590975,39.2637188 C37.164289,41.3644277 34.6815985,43.0385043 31.9487939,44.1930518 C29.1175682,45.3910881 26.0737508,46.0056497 22.999487,45.9999605 Z M14.7469619,3.46495093 C12.2276309,4.52932425 9.93886041,6.07260947 8.00763938,8.00917984 C6.07106901,9.94040088 4.52778379,12.2291713 3.46341047,14.7485024 C2.35861045,17.3592615 1.79206629,20.1661351 1.79770667,23.0010274 C1.7921354,25.835747 2.35867818,28.642439 3.46341047,31.253039 C4.52777228,33.7723763 6.07105892,36.0611489 8.00763938,37.9923616 C9.93886041,39.928932 12.2276309,41.4722172 14.7469619,42.5365905 C17.3576887,43.6415531 20.1645608,44.2082716 22.999487,44.2028078 C25.834378,44.2084341 28.6412487,43.6418905 31.2520121,42.537104 C33.7713431,41.4727307 36.0601136,39.9294455 37.9913346,37.9928751 C39.9279151,36.0616624 41.4712017,33.7728898 42.5355635,31.2535525 C43.6403636,28.6427934 44.2069077,25.8359198 44.2012673,23.0010274 C44.2069077,20.1661351 43.6403636,17.3592615 42.5355635,14.7485024 C41.4711902,12.2291713 39.927905,9.94040088 37.9913346,8.00917984 C36.0601136,6.07260947 33.7713431,4.52932425 31.2520121,3.46495093 C28.6412854,2.35998832 25.8344132,1.79326979 22.999487,1.79873363 C20.164596,1.79362084 17.3577253,2.36016444 14.7469619,3.46495093 Z M11.0540699,17.1510388 C11.0540699,18.9685213 12.2993804,20.441882 13.8355488,20.441882 C15.3717171,20.441882 16.6170276,18.9685213 16.6170276,17.1510388 C16.6170276,15.3335562 15.3717171,13.8601955 13.8355488,13.8601955 C12.2993804,13.8601955 11.0540699,15.3335562 11.0540699,17.1510388 Z M29.4877217,17.1510388 C29.4877217,18.9685213 30.7330322,20.441882 32.2692005,20.441882 C33.8053689,20.441882 35.0506794,18.9685213 35.0506794,17.1510388 C35.0506794,15.3335562 33.8053689,13.8601955 32.2692005,13.8601955 C30.7330322,13.8601955 29.4877217,15.3335562 29.4877217,17.1510388 Z"
                      id="形状" fill="#384953" fill-rule="nonzero"></path>
                <path d="M10.261861,25 C12.3202446,33.1322827 16.463274,37.0622292 22.779642,37.0622292 C29.0988972,37.0622292 33.3312374,33.1283679 35.5608677,25 L10.261861,25 Z"
                      id="路径-2" stroke="#384953" stroke-width="2"></path>
            </g>
        </g>
    </g>
</svg>