<?xml version="1.0" encoding="UTF-8"?>
<svg width="36px" height="36px" viewBox="0 0 36 36" version="1.1" xmlns="http://www.w3.org/2000/svg" xmlns:xlink="http://www.w3.org/1999/xlink">
    <!-- Generator: Sketch 52.4 (67378) - http://www.bohemiancoding.com/sketch -->
    <title>矩形</title>
    <desc>Created with Sketch.</desc>
    <g id="设计规范" stroke="none" stroke-width="1" fill="none" fill-rule="evenodd">
        <g transform="translate(-147.000000, -329.000000)" id="客服">
            <g transform="translate(147.000000, 329.000000)">
                <g id="分组" transform="translate(2.000000, 2.000000)">
                    <rect id="矩形" fill="#FE9339" x="0" y="0" width="32" height="32" rx="2"></rect>
                    <path d="M25.542478,21.367142 C25.457756,21.736082 25.3687,22.026372 25.275244,22.23788 C24.83179,22.965508 24.579406,23.110906 23.722374,23.585644 C22.924456,24.018098 22.135272,24.234314 21.35469,24.234314 C21.12556,24.234314 17.664014,24.614628 12.425242,19.56114 C7.186492,14.507718 7.747602,10.87037 7.747008,10.64135 C7.747008,9.861692 7.96351,9.0733 8.396338,8.276262 C8.871582,7.420088 9.027386,7.200418 9.745576,6.725042 C10.157702,6.550978 10.24854,6.542816 10.617304,6.458116 C10.986178,6.373504 11.185564,6.390422 11.185564,6.390422 C11.515212,6.37885 11.922102,6.59775 12.094318,6.879306 L13.863382,9.770964 C14.035708,10.052586 14.126348,10.543912 14.055046,10.86597 C14.055046,10.86597 14.0288,11.156656 13.901574,11.27858 C13.774282,11.400548 13.396674,11.765506 13.112016,11.977696 C12.827468,12.189798 12.564304,12.41444 12.322524,12.651534 C12.080898,12.888606 11.960008,13.083702 11.960008,13.23669 C11.960008,13.313206 11.981238,13.408708 12.02361,13.523174 C12.065916,13.637618 12.102084,13.724474 12.131938,13.783588 C12.161792,13.842724 12.221302,13.94443 12.31038,14.088838 C12.399458,14.23318 12.448276,14.3137 12.457032,14.330508 C13.102292,15.49213 13.840678,16.488356 14.672256,17.318944 C15.503812,18.149664 16.501116,18.887258 17.663992,19.531836 C17.680822,19.540526 17.76143,19.58941 17.905948,19.6784 C18.050444,19.767368 18.15226,19.826702 18.211506,19.856534 C18.270642,19.886388 18.357586,19.922468 18.472228,19.964818 C18.586782,20.007212 18.682394,20.028288 18.75902,20.028288 C18.911612,20.028288 19.106884,19.90764 19.344748,19.666168 C19.582678,19.424652 19.80754,19.16184 20.019356,18.877578 C20.23115,18.593206 20.464416,18.330328 20.719242,18.088856 C20.973936,17.847406 20.826382,17.99892 20.826382,17.99892 C21.11863,17.848572 21.587076,17.860936 21.872592,18.02631 L25.116602,19.906012 C25.40214,20.071562 25.627266,20.473084 25.61092,20.802776 C25.61092,20.80282 25.627156,20.998202 25.542478,21.367142 Z" id="路径" fill="#FFFFFF"></path>
                </g>
            </g>
        </g>
    </g>
</svg>