<?xml version="1.0" encoding="UTF-8"?>
<svg width="46px" height="46px" viewBox="0 0 46 46" version="1.1" xmlns="http://www.w3.org/2000/svg" xmlns:xlink="http://www.w3.org/1999/xlink">
    <!-- Generator: Sketch 52.4 (67378) - http://www.bohemiancoding.com/sketch -->
    <title>矩形</title>
    <desc>Created with Sketch.</desc>
    <g id="设计规范" stroke="none" stroke-width="1" fill="none" fill-rule="evenodd">
        <g id="图标" transform="translate(-414.000000, -166.000000)">
            <g id="照片" transform="translate(414.000000, 166.000000)">
                <g id="分组">
                    <rect id="矩形" fill="#000000" opacity="0" x="0" y="0" width="46" height="46"></rect>
                    <path d="M44.2198302,10.8805428 L44.2142883,10.8860847 C43.0782044,9.71674959 41.5098545,9.07389237 39.8805439,9.1071436 L34.5492625,9.1071436 L33.3245087,5.88177375 C32.9753707,5.07820222 32.4100997,4.38546815 31.6896562,3.88669962 C30.9747547,3.3435961 30.1102225,3.03325124 29.2179811,3 L16.9759845,3 C16.0892849,3.02770936 15.2302946,3.33805423 14.5320187,3.88669962 C13.8060334,4.38546815 13.2407624,5.07820222 12.8860825,5.88177375 L11.5560331,9.1071436 L6.11391419,9.1071436 C4.48460365,9.07389237 2.9162537,9.71674959 1.78016982,10.8860847 C0.6108347,12.0221686 -0.0320225216,13.5905185 0.001228714,15.2142872 L0.001228714,36.6557923 C-0.0320225216,38.2851028 0.6108347,39.8534528 1.78016982,40.9895367 C2.9162537,42.1588718 4.48460365,42.801729 6.11391419,42.7684778 L39.8860858,42.7684778 C41.5098545,42.7795615 43.0726626,42.1367043 44.2198302,40.9895367 C45.3669978,39.842369 46.009855,38.279561 45.9987713,36.6557923 L45.9987713,15.2142872 C46.0320225,13.5849767 45.3891653,12.0166267 44.2198302,10.8805428 Z M23,35.6582552 C17.4193343,35.6582552 12.8916244,31.1360872 12.8916244,25.5554215 C12.8916244,19.9747558 17.4137924,15.4470459 22.9944581,15.4470459 C28.5751238,15.4470459 33.1028337,19.9692139 33.1028337,25.5498796 C33.0862081,31.1250034 28.5751238,35.6416296 23,35.6582552 Z M23,18.8830069 C19.2481523,18.8830069 16.2112061,21.9254949 16.2112061,25.6718008 C16.2112061,29.4236486 19.2536941,32.4605947 23,32.4605947 C26.7518477,32.4605947 29.7887939,29.4181067 29.7887939,25.6718008 C29.8054196,23.8651503 29.0960599,22.1305442 27.8158873,20.8559135 C26.5412566,19.5757409 24.8066505,18.8663813 23,18.8830069 Z" id="形状" fill="#919191" fill-rule="nonzero"></path>
                </g>
            </g>
        </g>
    </g>
</svg>