<?xml version="1.0" encoding="UTF-8"?>
<svg width="36px" height="36px" viewBox="0 0 36 36" version="1.1" xmlns="http://www.w3.org/2000/svg" xmlns:xlink="http://www.w3.org/1999/xlink">
    <!-- Generator: Sketch 52.4 (67378) - http://www.bohemiancoding.com/sketch -->
    <title>选中</title>
    <desc>Created with Sketch.</desc>
    <g id="设计规范" stroke="none" stroke-width="1" fill="none" fill-rule="evenodd">
        <g transform="translate(-481.000000, -254.000000)" fill="#FE9339" fill-rule="nonzero" id="选中">
            <g transform="translate(481.000000, 254.000000)">
                <g id="分组">
                    <path d="M18,1 C8.52857143,1 1,8.52857143 1,18 C1,27.4714286 8.52857143,35 18,35 C27.4714286,35 35,27.4714286 35,18 C35,8.52857143 27.4714286,1 18,1 Z M26.9857143,13.3857143 L15.8142857,24.5571429 C15.3285714,25.0428571 14.6,25.0428571 14.1142857,24.5571429 L9.01428571,19.2142857 C8.52857143,18.7285714 8.52857143,18 9.01428571,17.5142857 C9.5,17.0285714 10.2285714,17.0285714 10.7142857,17.5142857 L15.0857143,21.8857143 L25.2857143,11.4428571 C25.7714286,10.9571429 26.5,10.9571429 26.9857143,11.4428571 C27.4714286,11.9285714 27.4714286,12.9 26.9857143,13.3857143 Z" id="形状"></path>
                </g>
            </g>
        </g>
    </g>
</svg>
