<?xml version="1.0" encoding="UTF-8"?>
<svg width="46px" height="46px" viewBox="0 0 46 46" version="1.1" xmlns="http://www.w3.org/2000/svg" xmlns:xlink="http://www.w3.org/1999/xlink">
    <!-- Generator: Sketch 52.4 (67378) - http://www.bohemiancoding.com/sketch -->
    <title>矩形</title>
    <desc>Created with Sketch.</desc>
    <g id="设计规范" stroke="none" stroke-width="1" fill="none" fill-rule="evenodd">
        <g transform="translate(-399.000000, -399.000000)" fill-rule="nonzero" id="复制">
            <g transform="translate(399.000000, 399.000000)">
                <g id="分组-8" transform="translate(2.000000, 2.000000)">
                    <path d="M36.9850454,0 C39.6527111,0.00287986416 41.8147248,2.16442593 41.8181818,4.83209089 L41.8181818,31.7588182 C41.8147248,34.4264831 39.6527111,36.5880292 36.9850454,36.5909091 L30.3181818,36.5909091 L30.3181818,36.9860909 C30.3153008,39.6535867 28.1535867,41.8153008 25.4860909,41.8181818 L4.83209089,41.8181818 C2.16459504,41.8153008 0.00288098771,39.6535867 4.61852778e-14,36.9860909 L4.61852778e-14,10.0593636 C0.00288098771,7.39186775 2.16459504,5.2301537 4.83209089,5.22727271 L11.5,5.22727271 L11.5,4.83209089 C11.503457,2.16442593 13.6654707,0.00287986416 16.3331364,3.1918912e-16 L36.9850454,0 Z M4.83313636,38.6818182 L25.4850454,38.6818182 C26.4210242,38.6800941 27.1795172,37.9220684 27.1818182,36.9860909 L27.1818182,10.0593636 C27.1818182,9.12472724 26.4207273,8.36363631 25.4860909,8.36363636 L4.83313636,8.36363636 C3.8985,8.36363636 3.1363636,9.12472724 3.1363636,10.0593636 L3.1363636,36.9860909 C3.1363636,37.9217727 3.8985,38.6818182 4.83313636,38.6818182 Z M38.6818182,31.7588182 L38.6818182,4.83209089 C38.6818182,3.89745453 37.9196818,3.1363636 36.9850454,3.1363636 L16.3331364,3.1363636 C15.3985,3.1363636 14.6363636,3.89745453 14.6363636,4.83209089 L14.6363636,5.22727271 L25.4860909,5.22727271 C28.1535867,5.2301537 30.3153008,7.39186775 30.3181818,10.0593636 L30.3181818,33.4545454 L36.9850454,33.4545454 C37.9196818,33.4545454 38.6818181,32.6945 38.6818182,31.7588182 Z" id="形状" fill="#4A4A4A"></path>
                    <path d="M21.1136363,15 C21.9797192,15 22.6818181,15.7020989 22.6818181,16.5681818 C22.6818181,17.4342647 21.9797192,18.1363636 21.1136363,18.1363636 L8.56818176,18.1363636 C7.70209888,18.1363636 7,17.4342647 7,16.5681818 C7,15.7020989 7.70209888,15 8.56818176,15 L21.1136363,15 Z" id="路径" fill="#4A4A4A"></path>
                    <path d="M21.1136363,22 C21.9797192,22 22.6818181,22.7020989 22.6818181,23.5681818 C22.6818181,24.4342647 21.9797192,25.1363636 21.1136363,25.1363636 L8.56818176,25.1363636 C7.70209888,25.1363636 7,24.4342647 7,23.5681818 C7,22.7020989 7.70209888,22 8.56818176,22 L21.1136363,22 Z" id="路径" fill="#4A4A4A"></path>
                    <path d="M16.9318182,29 C17.7979011,29 18.5,29.7020989 18.5,30.5681818 C18.5,31.4342647 17.7979011,32.1363636 16.9318182,32.1363636 L8.56818182,32.1363636 C7.70209892,32.1363636 7,31.4342647 7,30.5681818 C7,29.7020989 7.70209892,29 8.56818182,29 L16.9318182,29 Z" id="路径" fill="#4A4A4A"></path>
                </g>
            </g>
        </g>
    </g>
</svg>
