<?xml version="1.0" encoding="UTF-8"?>
<svg width="670px" height="373px" viewBox="0 0 670 373" version="1.1" xmlns="http://www.w3.org/2000/svg" xmlns:xlink="http://www.w3.org/1999/xlink">
    <!-- Generator: Sketch 58 (84663) - https://sketch.com -->
    <title>编组 6</title>
    <desc>Created with Sketch.</desc>
    <defs>
        <path d="M275.800751,24.2989389 C279.497343,24.2989389 281.169811,30.4215261 281.169811,31.45971 L281.169185,41.4005954 C282.439746,40.1036705 284.210801,39.2989389 286.169811,39.2989389 C290.035805,39.2989389 293.169811,42.4329456 293.169811,46.2989389 C293.169811,50.1649321 290.035805,53.2989389 286.169811,53.2989389 C284.210801,53.2989389 282.439746,52.4942073 281.169185,51.1972824 L281.169811,52.2989389 C281.169811,61.1354949 274.006367,68.2989389 265.169811,68.2989389 C256.333255,68.2989389 249.169811,61.1354949 249.169811,52.2989389 L249.171141,52.0433218 C248.037056,52.8347613 246.657641,53.2989389 245.169811,53.2989389 C241.303818,53.2989389 238.169811,50.1649321 238.169811,46.2989389 C238.169811,42.4329456 241.303818,39.2989389 245.169811,39.2989389 C246.657641,39.2989389 248.037056,39.7631164 249.171141,40.5545559 L249.169811,30.9047347 C249.169811,29.1753405 250.467118,24.2989389 254.076738,24.2989389 C257.686358,24.2989389 259.735018,25.8339331 265.090793,25.8339331 C270.446567,25.8339331 272.10416,24.2989389 275.800751,24.2989389 Z" id="path-1"></path>
        <polygon id="path-3" points="209.706742 105.821726 213.99257 109.193134 218.592268 105.821726 213.99257 98.2827544"></polygon>
        <polygon id="path-5" points="209.669811 108.274417 214.084906 115.171876 218.592268 108.274417 214.084906 111.723146"></polygon>
        <polygon id="path-7" points="56.706742 86.7420967 60.9925695 90.1135048 65.5922678 86.7420967 60.9925695 79.203125"></polygon>
        <polygon id="path-9" points="56.6698113 88.2744168 61.0849057 95.1718759 65.5922678 88.2744168 61.0849057 91.7231463"></polygon>
    </defs>
    <g id="我的" stroke="none" stroke-width="1" fill="none" fill-rule="evenodd">
        <g id="4.5-资产-（未创建）" transform="translate(-40.000000, -214.000000)">
            <g id="编组-6" transform="translate(39.830189, 212.796875)">
                <rect id="矩形" stroke="#272C31" stroke-width="2" fill="#FFFFFF" x="253.169811" y="57.203125" width="25" height="40"></rect>
                <path d="M133.631727,136.103853 L211.91665,87.203125 C216.831574,83.848226 221.967172,82.1707765 227.323444,82.1707765 C232.679716,82.1707765 263.405028,89.8807308 319.499379,105.300639 L328.079997,128.649366 L328.079997,145.203125 L310.011218,225.467525 L222.085188,225.467525 L219.342315,199.184001 L136.905407,161.823632 L131.169811,138.203125 L133.631727,136.103853 Z" id="路径-16" stroke="#272C31" stroke-width="2" fill="#E8E8E8"></path>
                <circle id="椭圆形" stroke="#272C31" stroke-width="2" fill="#FFFFFF" cx="214.169811" cy="107.203125" r="17"></circle>
                <circle id="椭圆形" fill="#272C31" cx="214.169811" cy="107.203125" r="12"></circle>
                <path d="M341.169811,308.203125 L341.171159,308.2217 L367.757488,308.272162 C374.690317,308.271399 378.171816,308.248387 378.201984,308.203125 C385.479124,340.703947 417.911233,340.203125 436.72396,345.903329 C449.118228,349.658758 455.414344,357.938942 455.61231,370.743882 L455.616787,372.203125 L374.744536,372.203125 L341.169811,352.853125 L341.169811,372.203125 L315.169811,372.203125 L315.169811,308.203125 L341.169811,308.203125 Z" id="路径" stroke="#272C31" stroke-width="2" fill="#FFFFFF"></path>
                <path d="M528.169811,276.203125 L528.171159,276.2217 L554.757488,276.272162 C561.690317,276.271399 565.171816,276.248387 565.201984,276.203125 C572.479124,308.703947 604.911233,308.203125 623.72396,313.903329 C636.118228,317.658758 642.414344,325.938942 642.61231,338.743882 L642.616787,340.203125 L561.744536,340.203125 L528.169811,320.853125 L528.169811,340.203125 L502.169811,340.203125 L502.169811,276.203125 L528.169811,276.203125 Z" id="路径备份-2" stroke="#272C31" stroke-width="2" fill="#E8E8E8" transform="translate(572.393299, 308.203125) rotate(-31.000000) translate(-572.393299, -308.203125) "></path>
                <path d="M502.146206,193.032676 L555.720514,280.888876 L495.718803,316.941541 L454.043401,248.888926 L374.405817,260.081499 C371.728028,260.457837 369.078487,260.520534 366.494329,260.297572 C360.303612,265.836205 352.129905,269.203125 343.169811,269.203125 L268.169811,269.203125 C248.839845,269.203125 233.169811,253.533091 233.169811,234.203125 C233.169811,214.873159 248.839845,199.203125 268.169811,199.203125 L343.169811,199.203125 C344.190174,199.203125 345.200339,199.246788 346.19854,199.332349 C351.191802,194.857579 357.523934,191.766163 364.6637,190.762734 L466.661311,176.427904 C467.471638,176.31402 468.279379,176.228858 469.083503,176.17164 L469.886384,176.12371 C482.528977,175.31758 495.171349,181.424565 502.146206,193.032676 Z" id="路径" stroke="#272C31" stroke-width="2" fill="#272C31"></path>
                <path d="M367.09312,138.55916 C377.87185,144.524489 385.169811,156.011542 385.169811,169.203125 L385.169811,308.203125 L315.169811,308.203125 L315.16936,236.745883 L277.628326,264.022479 C261.990055,275.384348 240.102117,271.917639 228.740248,256.279368 C217.378379,240.641097 220.845088,218.753159 236.483359,207.39129 L328.711296,140.383771 C340.149055,132.073753 354.930005,131.696121 366.490607,138.211314 L366.89728,138.444123 L367.09312,138.55916 Z" id="路径" stroke="#272C31" stroke-width="2" fill="#FFFFFF"></path>
                <path d="M232.169811,151.203125 C246.16076,151.203125 257.98694,160.471603 261.843279,173.203488 L269.169811,173.203125 L269.169811,192.203125 L261.5212,192.204072 C259.518779,198.082586 255.799975,203.166931 250.962107,206.859787 L264.064511,219.513578 L250.171344,233.900374 L228.739111,213.203125 L203.600111,213.203125 L182.168279,233.900374 L168.275111,219.513578 L182.283853,205.985364 C175.49035,200.298783 171.169811,191.755512 171.169811,182.203125 C171.169811,165.082298 185.048984,151.203125 202.169811,151.203125 L232.169811,151.203125 Z" id="路径" stroke="#272C31" stroke-width="2" fill="#272C31"></path>
                <rect id="矩形" fill="#FFFFFF" x="195.169811" y="154.203125" width="39" height="4"></rect>
                <path d="M247.169811,139.203125 L247.169811,139.203125 L247.169811,139.203125 L247.169811,166.203125 L233.169811,166.203125 L233.169811,153.203125 C233.169811,145.471139 239.437825,139.203125 247.169811,139.203125 Z" id="矩形" fill="#FFFFFF"></path>
                <rect id="矩形" fill="#FFFFFF" x="247.169811" y="156.203125" width="2" height="10"></rect>
                <path d="M198.169811,155.203424 L228.169811,155.203424 C228.169811,155.203325 228.169811,155.203225 228.169811,155.203125 C228.169811,146.918854 221.454083,140.203125 213.169811,140.203125 C204.88554,140.203125 198.169811,146.918854 198.169811,155.203125 C198.169811,155.203225 198.169811,155.203325 198.169811,155.203424 Z" id="路径" stroke="#272C31" stroke-width="2" fill="#FFFFFF"></path>
                <path d="M213.169811,143.203125 C219.797228,143.203125 225.169811,148.575708 225.169811,155.203125 C225.169811,155.540037 225.155927,155.873706 225.128699,156.203592 L201.210924,156.203592 C201.183696,155.873706 201.169811,155.540037 201.169811,155.203125 C201.169811,148.575708 206.542394,143.203125 213.169811,143.203125 Z" id="路径" fill="#272C31"></path>
                <circle id="椭圆形" fill="#FFFFFF" cx="244.169811" cy="175.203125" r="3"></circle>
                <rect id="矩形" fill="#272C31" x="0.169811321" y="372.203125" width="670" height="2"></rect>
                <path d="M42.1698113,211.203125 L112.169811,211.203125 C111.331091,215.808656 110.168842,219.20983 108.683065,221.406646 C104.330209,227.842618 98.9542827,229.460023 98.9542827,241.497177 C98.9542827,253.534331 112.169811,261.18386 112.169811,276.405883 C112.169811,291.627907 98.9542827,293.204195 98.9542827,309.783464 C98.9542827,326.362734 112.169811,323.766025 112.169811,340.281804 C112.169811,348.424735 105.407684,355.879065 97.5596502,363.252536 C95.7171579,364.983615 93.4128218,367.633811 90.6466419,371.203125 L63.7081579,371.203125 C60.651575,367.686051 58.1889061,365.035854 56.3201511,363.252536 C48.5830919,355.869205 42.1698113,348.312743 42.1698113,340.603496 C42.1698113,324.850042 54.9423125,323.446308 55.0490399,309.783464 C55.1557672,296.120621 42.1698113,289.556095 42.1698113,275.088933 C42.1698113,260.621771 55.0490399,253.981612 55.0490399,241.497177 C55.0490399,229.012742 48.2732322,226.546942 43.7140121,219.272565 C42.5823661,217.466989 42.0676325,214.777175 42.1698113,211.203125 Z" id="矩形" stroke="#272C31" stroke-width="2" fill="#FFFFFF"></path>
                <path d="M60.8500164,211.203125 L32.0476424,146.646978" id="路径-6" stroke="#272C31" stroke-width="2" stroke-linecap="round" stroke-linejoin="round"></path>
                <path d="M79.8689668,211.203125 L63.897037,96.4104989" id="路径-7" stroke="#272C31" stroke-width="2" stroke-linecap="round" stroke-linejoin="round"></path>
                <circle id="椭圆形" stroke="#333333" stroke-width="2" fill="#D8D8D8" cx="61.1698113" cy="87.203125" r="11"></circle>
                <circle id="椭圆形备份-4" stroke="#333333" stroke-width="2" fill="#FFFFFF" cx="76.1698113" cy="109.203125" r="11"></circle>
                <circle id="椭圆形备份-6" stroke="#333333" stroke-width="2" fill="#D8D8D8" cx="81.1698113" cy="134.203125" r="11"></circle>
                <circle id="椭圆形备份-5" stroke="#333333" stroke-width="2" fill="#D8D8D8" cx="54.1698113" cy="113.203125" r="11"></circle>
                <circle id="椭圆形备份-7" stroke="#333333" stroke-width="2" fill="#FFFFFF" cx="59.1698113" cy="138.203125" r="11"></circle>
                <circle id="椭圆形备份-8" stroke="#333333" stroke-width="2" fill="#FFFFFF" cx="29.1698113" cy="139.203125" r="8"></circle>
                <path d="M81.6333628,211.203125 L106.297121,79.6261702" id="路径-9" stroke="#272C31" stroke-width="2"></path>
                <path d="M104.194247,58.227271 L104.225771,58.3254707 L105.148048,58.3265375 L105.149204,57.3265381 L104.150527,57.377947 L104.194247,58.227271 Z M129.437051,66.2268461 L130.420629,66.5749117 L130.754233,65.6321985 L129.826516,65.2589144 L129.437051,66.2268461 Z M121.224113,86.6383249 L121.195923,86.7083856 L121.262038,86.5740848 C121.249404,86.5955311 121.236762,86.6169445 121.224113,86.6383249 Z" id="形状结合" stroke="#272C31" stroke-width="2" fill="#FFFFFF"></path>
                <path d="M121.926527,64.1814259 L114.750936,82.1707765" id="路径-11" stroke="#333333" stroke-width="2" stroke-linecap="round" stroke-linejoin="round"></path>
                <path d="M97.1698113,60.9122865 L97.3454026,79.6261702" id="路径-11备份" stroke="#333333" stroke-width="2" stroke-linecap="round" stroke-linejoin="round"></path>
                <polyline id="路径-12" stroke="#333333" stroke-width="2" stroke-linecap="round" stroke-linejoin="round" points="139.5337 189.726742 158.595577 270.505451 149.064639 372.203125"></polyline>
                <path d="M158.595577,270.505451 L312.120128,270.505451" id="路径-13" stroke="#333333" stroke-width="2" stroke-linecap="round"></path>
                <path d="M227.323444,270.505451 L250.411002,373.203125" id="路径-14" stroke="#333333" stroke-width="2" stroke-linecap="round" stroke-linejoin="round"></path>
                <path d="M266.187937,270.505451 L258.256474,373.203125" id="路径-15" stroke="#333333" stroke-width="2" stroke-linecap="round" stroke-linejoin="round"></path>
                <path d="M151.473027,141.227144 C151.852619,141.534531 152.222317,141.853939 152.581557,142.184883 L190.231722,176.869371 C192.623086,179.072369 194.350983,181.73757 195.396635,184.607679 L195.589868,184.810564 C198.730552,188.008552 201.219699,185.638783 218.59211,193.46697 C236.608672,201.585417 251.993978,217.087501 248.742638,220.246648 C246.575078,222.352746 239.203735,219.338238 226.628609,211.203125 L227.427207,211.918536 C238.452005,221.843391 242.942737,227.950441 240.899403,230.239686 C238.807419,232.583438 230.860609,228.199376 217.058975,217.087501 L220.353919,225.954732 C221.457376,228.945665 222.186143,230.955422 222.540221,231.984005 L222.61036,232.189398 C223.447609,234.664268 222.263567,238.533899 218.59211,236.82295 C215.842945,235.541801 211.218113,227.009065 205.767449,222.136038 C203.938858,220.501233 201.071943,219.340563 199.417331,218.920434 C194.272278,217.366811 188.090667,218.386262 184.052069,217.087501 C180.013471,215.788739 177.143813,211.918536 174.924729,210.99642 C172.705644,210.074304 168.35439,209.505833 165.463618,207.455431 L123.70916,177.839323 C113.35455,170.49488 110.914328,156.146963 118.258771,145.792353 C118.541354,145.393951 118.836564,145.004658 119.143951,144.625067 C127.133069,134.759328 141.607289,133.238026 151.473027,141.227144 Z" id="路径" stroke="#272C31" stroke-width="2" fill="#FFFFFF"></path>
                <path d="M258.667212,43.9961788 C259.046803,44.3035661 259.416501,44.6229745 259.775741,44.9539175 L316.052601,94.2004729 C318.443965,96.4034713 320.171862,99.0686726 321.217514,101.938781 L321.410747,102.141667 C324.551431,105.339654 327.040578,102.969885 344.412989,110.798072 C362.429551,118.916519 377.814857,134.418603 374.563517,137.57775 C372.395957,139.683848 365.024614,136.66934 352.449488,128.534227 L353.248086,129.249638 C364.272884,139.174493 368.763616,145.281543 366.720282,147.570789 C364.628298,149.91454 356.681488,145.530478 342.879854,134.418603 L346.174798,143.285834 C347.278255,146.276767 348.007022,148.286525 348.3611,149.315107 L348.431239,149.5205 C349.268488,151.99537 348.084446,155.865001 344.412989,154.154052 C341.663824,152.872904 337.038992,144.340167 331.588328,139.46714 C329.759737,137.832335 326.892822,136.671665 325.23821,136.251536 C320.093157,134.697913 313.911546,135.717364 309.872948,134.418603 C305.83435,133.119842 302.964692,129.249638 300.745608,128.327522 C298.526523,127.405406 294.175269,126.836935 291.284497,124.786533 L230.903344,80.6083581 C220.548734,73.263915 218.108512,58.9159976 225.452955,48.5613877 C225.735538,48.1629863 226.030748,47.7736933 226.338135,47.3941016 C234.327253,37.5283632 248.801473,36.0070614 258.667212,43.9961788 Z" id="路径备份" stroke="#272C31" stroke-width="2" fill="#FFFFFF" transform="translate(298.106981, 96.724998) scale(1, -1) rotate(132.000000) translate(-298.106981, -96.724998) "></path>
                <path d="M247.007659,41.4606671 C245.096081,38.2140447 244.140293,35.8504529 244.140293,34.3698915 C244.140293,32.1490494 246.145301,28.3636564 247.007659,28.3636564 C245.907005,26.0573598 241.73316,17.2892331 243.491326,13.528744 C245.249493,9.76825484 252.447453,10.0832159 256.813449,11.3889617 C255.04576,7.57915305 255.373417,0.284190843 262.93053,1.29893889 C270.487644,2.31368694 276.840298,7.20754777 281.169811,17.3903137 C284.4768,18.4343243 287.679603,23.2398007 286.924707,28.3636564 C286.421443,31.7795602 285.648771,36.1452304 284.606691,41.4606671 L247.007659,41.4606671 Z" id="路径-17" fill="#272C31"></path>
                <mask id="mask-2" fill="white">
                    <use xlink:href="#path-1"></use>
                </mask>
                <use id="蒙版" fill="#E8E8E8" xlink:href="#path-1"></use>
                <path d="M249.169811,52.6989328 C251.600172,54.7091029 253.600172,55.6164669 255.169811,55.4210248 C257.52427,55.1278617 257.177743,52.6989328 263.3086,52.6989328 C269.242634,52.6989328 268.949586,55.4210248 272.949586,55.4210248 C275.616253,55.4210248 278.356328,54.5136608 281.169811,52.6989328 L282.500215,67.0299124 L259.639478,70.1010467 L249.169811,63.2089349 L249.169811,52.6989328 Z" id="路径-23" fill="#272C31" mask="url(#mask-2)"></path>
                <circle id="椭圆形" fill="#272C31" mask="url(#mask-2)" cx="253.669811" cy="44.7989389" r="1.5"></circle>
                <circle id="椭圆形备份-11" fill="#272C31" mask="url(#mask-2)" cx="270.669811" cy="44.7989389" r="1.5"></circle>
                <path d="" id="路径-18" stroke="#979797" mask="url(#mask-2)"></path>
                <polyline id="路径-19" stroke="#272C31" stroke-linecap="round" stroke-linejoin="round" mask="url(#mask-2)" points="287.72467 47.5057572 283.932257 46.2989389 287.72467 43.3675865"></polyline>
                <polyline id="路径-20" stroke="#272C31" stroke-linecap="round" stroke-linejoin="round" mask="url(#mask-2)" points="243.064724 47.5057572 246.228875 46.2989389 243.064724 43.3675865"></polyline>
                <circle id="椭圆形" stroke="#FFFFFF" mask="url(#mask-2)" cx="256.169811" cy="42.2989389" r="6"></circle>
                <circle id="椭圆形备份-10" stroke="#FFFFFF" mask="url(#mask-2)" cx="272.169811" cy="42.2989389" r="6"></circle>
                <rect id="矩形" fill="#FFFFFF" mask="url(#mask-2)" x="262.169811" y="40.2989389" width="4" height="1"></rect>
                <path d="M263.536002,41.8678054 L261.141093,49.8678054 C264.611853,48.6601621 266.611853,48.0563404 267.141093,48.0563404" id="路径-21" stroke="#272C31" stroke-linecap="round" stroke-linejoin="round" mask="url(#mask-2)"></path>
                <path d="M251.789128,35.2700544 C252.849656,33.9559774 254.168739,33.2989389 255.746378,33.2989389 C257.324017,33.2989389 258.621717,33.9559774 259.639478,35.2700544" id="路径-22" stroke="#272C31" stroke-linecap="round" stroke-linejoin="round" mask="url(#mask-2)"></path>
                <path d="M268.169811,35.2700544 C269.230339,33.9559774 270.549423,33.2989389 272.127062,33.2989389 C273.704701,33.2989389 275.002401,33.9559774 276.020161,35.2700544" id="路径-22备份" stroke="#272C31" stroke-linecap="round" stroke-linejoin="round" mask="url(#mask-2)"></path>
                <path d="M258.169811,56.2989389 L268.492856,56.2989389 C266.821181,58.8527261 265.004309,60.1296197 263.04224,60.1296197 C261.080171,60.1296197 259.456028,58.8527261 258.169811,56.2989389 Z" id="路径-24" fill="#FFFFFF" mask="url(#mask-2)"></path>
                <mask id="mask-4" fill="white">
                    <use xlink:href="#path-3"></use>
                </mask>
                <use id="蒙版" fill="#FFFFFF" xlink:href="#path-3"></use>
                <rect id="矩形" fill="#E8E8E8" mask="url(#mask-4)" x="209.5" y="97" width="4.58490566" height="12.71875"></rect>
                <mask id="mask-6" fill="white">
                    <use xlink:href="#path-5"></use>
                </mask>
                <use id="蒙版" fill="#FFFFFF" xlink:href="#path-5"></use>
                <rect id="矩形备份-8" fill="#E8E8E8" mask="url(#mask-6)" x="209.5" y="107.892014" width="4.58490566" height="7.93333333"></rect>
                <mask id="mask-8" fill="white">
                    <use xlink:href="#path-7"></use>
                </mask>
                <use id="蒙版" fill="#FFFFFF" xlink:href="#path-7"></use>
                <rect id="矩形" fill="#272C31" mask="url(#mask-8)" x="56.5" y="79" width="4.58490566" height="12"></rect>
                <mask id="mask-10" fill="white">
                    <use xlink:href="#path-9"></use>
                </mask>
                <use id="蒙版" fill="#FFFFFF" xlink:href="#path-9"></use>
                <rect id="矩形备份-8" fill="#272C31" mask="url(#mask-10)" x="56.5" y="87.8920139" width="4.58490566" height="7.93333333"></rect>
                <path d="M209.169811,148.203125 L216.169811,148.203125 C217.826666,148.203125 219.169811,149.546271 219.169811,151.203125 C219.169811,152.859979 217.826666,154.203125 216.169811,154.203125 L209.169811,154.203125" id="路径" stroke="#FFFFFF" stroke-width="2" stroke-linecap="round" stroke-linejoin="round" mask="url(#mask-10)"></path>
                <path d="M209.169811,154.203125 L216.169811,154.203125 C217.826666,154.203125 219.169811,155.546271 219.169811,157.203125" id="路径" stroke="#FFFFFF" stroke-width="2" stroke-linecap="round" stroke-linejoin="round" mask="url(#mask-10)"></path>
                <rect id="矩形" fill="#FFFFFF" mask="url(#mask-10)" x="211.169811" y="145.203125" width="2" height="12" rx="1"></rect>
                <path d="M76.1698113,129.203125 L81.7698113,129.203125 C83.0952947,129.203125 84.1698113,130.322413 84.1698113,131.703125 C84.1698113,133.083837 83.0952947,134.203125 81.7698113,134.203125 L76.1698113,134.203125" id="路径" stroke="#272C31" stroke-width="2" stroke-linecap="round" stroke-linejoin="round" mask="url(#mask-10)" transform="translate(80.169811, 131.703125) rotate(-18.000000) translate(-80.169811, -131.703125) "></path>
                <path d="M78.1698113,134.203125 L83.7698113,134.203125 C85.0952947,134.203125 86.1698113,135.322413 86.1698113,136.703125 C86.1698113,138.083837 85.0952947,139.203125 83.7698113,139.203125 L78.1698113,139.203125" id="路径备份-3" stroke="#272C31" stroke-width="2" stroke-linecap="round" stroke-linejoin="round" mask="url(#mask-10)" transform="translate(82.169811, 136.703125) rotate(-18.000000) translate(-82.169811, -136.703125) "></path>
                <rect id="矩形" fill="#272C31" mask="url(#mask-10)" transform="translate(79.015303, 134.727597) rotate(-18.000000) translate(-79.015303, -134.727597) " x="78.0153028" y="127.227597" width="2" height="15" rx="1"></rect>
                <path d="M32.8280144,141.226562 C32.8280144,141.500001 32.7606323,141.795897 32.625866,142.114258 C32.4910997,142.432619 32.2791878,142.745116 31.9901238,143.051758 C31.7010599,143.3584 31.3319229,143.607421 30.8827019,143.798828 C30.4334809,143.990235 29.9100487,144.085938 29.3123894,144.085938 C28.8592622,144.085938 28.4471569,144.042969 28.0760613,143.957031 C27.7049657,143.871093 27.368055,143.737306 27.0653191,143.555664 C26.7625832,143.374023 26.4842657,143.134767 26.2303582,142.837891 C26.0037946,142.568358 25.8104371,142.266603 25.6502801,141.932617 C25.490123,141.598631 25.370007,141.242189 25.2899285,140.863281 C25.20985,140.484373 25.1698113,140.082033 25.1698113,139.65625 C25.1698113,138.96484 25.2703963,138.345706 25.4715691,137.798828 C25.672742,137.25195 25.9608251,136.784182 26.3358269,136.395508 C26.7108288,136.006834 27.1502776,135.710939 27.6541863,135.507812 C28.1580951,135.304686 28.6951991,135.203125 29.2655144,135.203125 C29.9608304,135.203125 30.5799649,135.341795 31.1229363,135.619141 C31.6659078,135.896486 32.0819193,136.239256 32.3709832,136.647461 C32.6600471,137.055666 32.8045769,137.441404 32.8045769,137.804688 C32.8045769,138.003907 32.7342651,138.179687 32.5936394,138.332031 C32.4530137,138.484376 32.2830936,138.560547 32.0838738,138.560547 C31.8612165,138.560547 31.6942259,138.507813 31.5828973,138.402344 C31.4938343,138.317968 31.3966475,138.184844 31.291335,138.002969 L31.2108269,137.857422 C30.9842633,137.431638 30.7176644,137.113282 30.4110223,136.902344 C30.1043801,136.691405 29.7264542,136.585938 29.2772332,136.585938 C28.5623859,136.585938 27.9930556,136.857419 27.5692254,137.400391 C27.1453951,137.943362 26.9334832,138.714839 26.9334832,139.714844 C26.9334832,140.382816 27.0272323,140.938474 27.2147332,141.381836 C27.4022341,141.825198 27.6678565,142.156249 28.0116082,142.375 C28.3553599,142.593751 28.7576996,142.703125 29.2186394,142.703125 C29.7186419,142.703125 30.1414893,142.579103 30.4871941,142.331055 C30.832899,142.083007 31.0936386,141.718752 31.2694207,141.238281 C31.3436398,141.011718 31.4354358,140.827149 31.5448113,140.68457 C31.6541869,140.541991 31.8299664,140.470703 32.0721551,140.470703 C32.2791874,140.470703 32.45692,140.542968 32.6053582,140.6875 C32.7537964,140.832032 32.8280144,141.011718 32.8280144,141.226562 Z" id="C" fill="#333333" fill-rule="nonzero" mask="url(#mask-10)" transform="translate(28.998913, 139.644531) rotate(-27.000000) translate(-28.998913, -139.644531) "></path>
            </g>
        </g>
    </g>
</svg>