<?xml version="1.0" encoding="UTF-8"?>
<svg width="80px" height="80px" viewBox="0 0 80 80" version="1.1" xmlns="http://www.w3.org/2000/svg" xmlns:xlink="http://www.w3.org/1999/xlink">
    <!-- Generator: Sketch 58 (84663) - https://sketch.com -->
    <title>矩形</title>
    <desc>Created with Sketch.</desc>
    <g id="应用" stroke="none" stroke-width="1" fill="none" fill-rule="evenodd">
        <g id="3-应用-(Applications)" transform="translate(-456.000000, -564.000000)">
            <g id="最近使用-+-收藏蒙版" transform="translate(24.000000, 444.000000)">
                <g id="最近使用" transform="translate(30.000000, 30.000000)">
                    <g id="OTC" transform="translate(364.000000, 70.000000)">
                        <g id="编组">
                            <g id="城市服务" transform="translate(38.000000, 20.000000)">
                                <g id="分组-3-copy-2" transform="translate(2.666667, 2.666667)">
                                    <rect id="矩形" fill="#1777FE" x="0" y="0" width="74.6666667" height="74.6666667" rx="12"></rect>
                                    <g id="OTC" transform="translate(8.000000, 26.666667)" fill="#FFFFFF" fill-rule="nonzero">
                                        <path d="M10.3003498,3.20015254e-05 C16.7672086,0.267411334 20.2182813,3.61276891 20.6566081,10.0376869 C20.3643561,16.4983243 16.9132956,19.8871917 10.3003498,20.2089952 C3.67026435,19.9571611 0.237846631,16.5511738 -1.70530257e-13,9.98328432 C0.328006222,3.66721856 3.76196755,0.338965804 10.3003498,3.20015254e-05 Z M10.2459412,4.68384113 C7.84263603,4.77400402 6.57723924,6.55861285 6.44821662,10.0376493 C6.53993412,13.6597137 7.82398102,15.5080559 10.3003532,15.5780075 C12.8684379,15.5422532 14.1711447,13.6970237 14.2068923,10.0376493 C14.0607658,6.52284644 12.7409683,4.73669071 10.2459412,4.68384113 L10.2459412,4.68384113 Z M21.1479196,5.56681593 L21.1479196,0.481933559 L39.1804968,0.481933559 L39.1804968,5.56681593 L33.4131819,5.56681593 L33.4131819,19.7534686 L26.9401016,19.7534686 L26.9401016,5.56681593 L21.1494632,5.56681593 L21.1479196,5.56681593 Z M58.935509,7.86908096 L52.8432939,7.86908096 C52.6054501,5.7999941 51.4411094,4.73824938 49.3455931,4.68384678 C46.9593805,4.75535532 45.7468521,6.62857006 45.7110951,10.3050371 C45.6395866,13.8555875 46.9236329,15.6137701 49.5663377,15.5780131 C51.459755,15.5407043 52.5696997,14.4540819 52.8977059,12.3134904 L59.0723155,12.3134904 C58.3074847,17.3812708 55.1735414,20.0115421 49.6736087,20.2089632 C42.9689032,19.9757832 39.4913822,16.6133283 39.2364995,10.1169057 C39.5816058,3.80083999 42.8616699,0.429008684 49.0720741,9.85878046e-14 C55.0461471,0.0715085378 58.3370899,2.69401076 58.9356031,7.86904331 L58.935509,7.86908096 Z" id="形状"></path>
                                    </g>
                                </g>
                            </g>
                        </g>
                    </g>
                </g>
            </g>
        </g>
    </g>
</svg>