<?xml version="1.0" encoding="UTF-8"?>
<svg width="80px" height="80px" viewBox="0 0 80 80" version="1.1" xmlns="http://www.w3.org/2000/svg" xmlns:xlink="http://www.w3.org/1999/xlink">
    <!-- Generator: Sketch 58 (84663) - https://sketch.com -->
    <title>矩形</title>
    <desc>Created with Sketch.</desc>
    <g id="应用" stroke="none" stroke-width="1" fill="none" fill-rule="evenodd">
        <g id="3-应用-(Applications)" transform="translate(-274.000000, -564.000000)">
            <g id="最近使用-+-收藏蒙版" transform="translate(24.000000, 444.000000)">
                <g id="最近使用" transform="translate(30.000000, 30.000000)">
                    <g id="商城" transform="translate(182.000000, 70.000000)">
                        <g id="编组">
                            <g>
                                <g id="商城" transform="translate(38.000000, 20.000000)">
                                    <g id="分组-3-copy" transform="translate(2.666667, 2.666667)" fill="#F9394A">
                                        <rect id="矩形" x="0" y="0" width="74.6666667" height="74.6666667" rx="12"></rect>
                                    </g>
                                    <g id="shenghuo" transform="translate(20.000000, 13.333333)" fill="#FFFFFF" fill-rule="nonzero">
                                        <path d="M0.0044137931,32.8528079 C0.0044137931,44.1591593 9.15714943,53.3119475 20.4635534,53.3119475 C20.4635534,42.0055961 11.3107126,32.8528079 0.0044137931,32.8528079 Z M20.4635534,53.3119475 C31.7698522,53.3119475 40.9226929,44.1592118 40.9226929,32.8528079 C29.616289,32.8528079 20.4635534,42.0055961 20.4635534,53.3119475 Z" id="形状"></path>
                                        <path d="M6.73434483,19.3991987 C4.36539901,20.4760066 2.75021346,22.8449524 2.75021346,25.6446108 C2.75021346,29.4134122 5.872867,32.5361182 9.64172085,32.5361182 C11.1492414,32.5361182 12.4413793,32.1054056 13.6258522,31.3516453 L13.5181346,31.890023 C13.5181346,35.6588243 16.6408933,38.7815304 20.409642,38.7815304 C24.2861609,38.7815304 27.3011494,35.6587718 27.3011494,31.890023 L27.3011494,31.3516453 C28.3779573,32.105353 29.7778128,32.5361182 31.2852808,32.5361182 C35.1617471,32.5361182 38.1767882,29.4133596 38.1767882,25.6446108 C38.1767882,22.8449524 36.5616026,20.4760066 34.1926568,19.3991987 C36.5616026,18.3223908 38.1767882,15.953445 38.1767882,13.1537865 C38.1767882,9.2773202 35.0540296,6.26227915 31.2852808,6.26227915 C29.7777603,6.26227915 28.4856223,6.69299179 27.3011494,7.44675205 L27.3011494,6.90837438 C27.3011494,3.13957307 24.1783908,0.0168669951 20.409642,0.0168669951 C16.5331757,0.0168669951 13.5181346,3.13962562 13.5181346,6.90837438 L13.6258522,7.44675205 C12.5490443,6.69304433 11.1491888,6.26227915 9.64172085,6.26227915 C5.87291954,6.26227915 2.75021346,9.38503777 2.75021346,13.1537865 C2.75021346,15.9533924 4.36539901,18.3223908 6.73434483,19.3991987 Z M20.5173071,12.9384039 C24.3937734,12.9384039 27.5164795,16.0611626 27.5164795,19.9375238 C27.5164795,23.8138851 24.3937734,26.9367488 20.5173071,26.9367488 C16.6408407,26.9367488 13.5181346,23.8140952 13.5181346,19.9376289 C13.5181346,16.0611626 16.6408407,12.9384039 20.5173071,12.9384039 L20.5173071,12.9384039 Z" id="形状"></path>
                                    </g>
                                </g>
                            </g>
                        </g>
                    </g>
                </g>
            </g>
        </g>
    </g>
</svg>