<?xml version="1.0" encoding="UTF-8"?>
<svg width="80px" height="80px" viewBox="0 0 80 80" version="1.1" xmlns="http://www.w3.org/2000/svg" xmlns:xlink="http://www.w3.org/1999/xlink">
    <!-- Generator: Sketch 58 (84663) - https://sketch.com -->
    <title>矩形</title>
    <desc>Created with Sketch.</desc>
    <g id="应用" stroke="none" stroke-width="1" fill="none" fill-rule="evenodd">
        <g id="3-应用-(Applications)" transform="translate(-638.000000, -564.000000)" fill="#F9394A" fill-rule="nonzero">
            <g id="最近使用-+-收藏蒙版" transform="translate(24.000000, 444.000000)">
                <g id="最近使用" transform="translate(30.000000, 30.000000)">
                    <g id="Hotspot" transform="translate(546.000000, 70.000000)">
                        <g id="公益">
                            <g id="编组">
                                <g id="公益" transform="translate(38.000000, 20.000000)">
                                    <g id="gongyi_xuanzhong" transform="translate(0.000000, 2.666667)">
                                        <path d="M70.5121103,6.54425616 L71.2832828,7.33604823 L72.466847,8.59411784 C81.4322424,18.1528075 81.6755535,34.2481804 73.0112041,44.4710955 C65.8520842,52.9212762 42.0405878,73.1207713 41.0302281,73.978546 C39.957866,74.8844326 38.44553,74.8971204 37.3599421,74.0093379 C37.3104551,73.9653494 32.6091898,70.1119614 26.835706,65.0488911 L26.1098967,64.4110587 L26.1181445,64.3934632 L25.7593637,64.1075384 L52.659674,37.3537647 L47.0346512,30.9182548 L19.2064597,58.9388959 L18.447659,58.2130864 C13.6927827,53.6250914 8.12961879,47.3611364 5.63464907,43.7716792 C-2.08532346,32.6338043 -1.82964062,18.6630734 6.13776691,9.39910638 L6.85945235,8.59411784 L8.04301654,7.33164937 C14.9928111,-0.00944906521 25.4625181,-2.02896981 34.3824741,2.2509837 L34.530935,2.33016288 L34.6711482,2.41374091 L36.1557583,3.35069487 L19.5817361,20.0443107 L25.9366922,25.3977047 L51.1874356,0.280301289 C58.1848743,-0.845599827 65.2850654,1.45587626 70.5121103,6.54425616 Z" id="路径"></path>
                                    </g>
                                </g>
                            </g>
                        </g>
                    </g>
                </g>
            </g>
        </g>
    </g>
</svg>