<?xml version="1.0" encoding="UTF-8"?>
<svg width="80px" height="80px" viewBox="0 0 80 80" version="1.1" xmlns="http://www.w3.org/2000/svg" xmlns:xlink="http://www.w3.org/1999/xlink">
    <!-- Generator: Sketch 58 (84663) - https://sketch.com -->
    <title>矩形</title>
    <desc>Created with Sketch.</desc>
    <g id="应用" stroke="none" stroke-width="1" fill="none" fill-rule="evenodd">
        <g id="3-应用-(Applications)" transform="translate(-96.000000, -844.000000)">
            <g id="最近使用-+-收藏蒙版" transform="translate(24.000000, 444.000000)">
                <g id="收藏" transform="translate(-97.000000, 310.000000)">
                    <g id="直播" transform="translate(131.000000, 70.000000)">
                        <g id="编组">
                            <g id="分组" transform="translate(38.000000, 20.000000)">
                                <rect id="矩形" fill="#000000" opacity="0" x="0" y="0" width="80" height="80"></rect>
                                <rect id="矩形" fill="#FE7935" x="2.66666667" y="2.66666667" width="74.6666667" height="74.6666667" rx="12"></rect>
                                <g id="直播" transform="translate(14.666667, 16.000000)" fill="#FFFFFF" fill-rule="nonzero">
                                    <path d="M41.5743,7.70909672 C43.5031137,7.71092913 45.3522015,8.47890205 46.7147848,9.8440733 C48.0056531,11.1373934 48.7597042,12.8663369 48.8339483,14.6847603 L48.8400033,14.9886 L48.84,39.6423 C48.84,43.5785152 45.7128858,46.7843536 41.8074602,46.9110127 L41.5674,46.9149 L7.9161,46.9149033 C5.98609133,46.9167311 4.13450394,46.1513214 2.76913416,44.7872458 C1.47562595,43.4949637 0.71900828,41.7657885 0.642947439,39.9463212 L0.636596719,39.6423 L0.636596719,14.9886 C0.634766867,13.0573952 1.4011233,11.2047606 2.76669195,9.83919195 C4.06038856,8.54549534 5.79123022,7.78959583 7.61188542,7.71516698 L7.9161,7.70909672 L41.5743,7.70909672 Z M39.1880306,46.3250009 L39.1882766,46.3252406 L39.296737,46.4241944 C39.2603117,46.3913007 39.224076,46.3582357 39.1880306,46.3250009 Z M38.9542763,46.1046455 L39.0212037,46.1686806 L38.9877937,46.1367622 L38.9877937,46.1367622 L38.9542763,46.1046455 Z M38.2258255,45.347758 L38.2256735,45.3482534 L38.2399849,45.3635777 L38.2258255,45.347758 L38.2258255,45.347758 Z M37.4946416,44.4596644 L37.4936308,44.4598136 L37.528566,44.5042669 C37.5172274,44.4894202 37.5059193,44.4745527 37.4946416,44.4596644 Z M20.3637,19.3494 C19.9950337,19.1349025 19.5399316,19.1334104 19.1698668,19.345486 C18.799802,19.5575617 18.5710119,19.9509765 18.5697,20.3775 L18.5697,20.3775 L18.5697,36.2958 C18.5710119,36.7223235 18.799802,37.1157383 19.1698668,37.327814 C19.5399316,37.5398896 19.9950337,37.5383975 20.3637,37.3239 L20.3637,37.3239 L33.9981,29.3751 C34.3686306,29.1621891 34.5970776,28.7674453 34.5970776,28.3401 C34.5970776,27.9127547 34.3686306,27.5180109 33.9981,27.3051 L33.9981,27.3051 Z M43.3771352,22.7152874 L43.7824207,22.5536923 C43.5002629,22.6611349 43.2224051,22.7772932 42.949176,22.9018382 L43.3771352,22.7152874 L43.3771352,22.7152874 Z M43.8120774,22.5427401 L43.7824207,22.5536923 L42.949176,22.9018382 C43.2319983,22.7728309 43.5199444,22.6530762 43.8120774,22.5427401 Z M44.2295934,22.3920967 L44.0611044,22.4509131 L44.0611044,22.4509131 L43.8120774,22.5427401 L44.2295934,22.3920967 Z M44.6820056,22.245956 L44.3700551,22.3447289 L44.3700551,22.3447289 L44.2555934,22.3830967 L44.6820056,22.245956 L44.6820056,22.245956 Z M45.0277368,22.1450699 L45.2021415,22.0973103 C45.0534572,22.1365785 44.905726,22.1781919 44.7589899,22.2221086 L45.0277368,22.1450699 L45.0277368,22.1450699 Z M45.2984006,22.0727985 L45.2021415,22.0973103 L44.7589899,22.2221086 C44.9374991,22.1692669 45.1173355,22.1192838 45.2984006,22.0727985 Z M45.6055934,21.9970967 L45.7874697,21.955989 C45.6413199,21.9879982 45.4960107,22.0222528 45.3515802,22.0587147 L45.6055934,21.9970967 Z M45.6635934,21.9830967 L45.6333013,21.9910755 L45.6333013,21.9910755 L45.6055934,21.9970967 L45.6635934,21.9830967 Z M45.9162709,21.9288117 L45.7874697,21.955989 L45.6635934,21.9830967 L45.9162709,21.9288117 L45.9162709,21.9288117 Z M46.5467971,21.8114642 L46.3819308,21.8390618 C46.2473936,21.8625491 46.1135057,21.8879254 45.9802956,21.9151622 C46.1679186,21.877123 46.3568229,21.8423986 46.5467971,21.8114642 Z M47.1231301,21.7296982 L46.9849699,21.7470839 C46.8547715,21.7640932 46.7251264,21.7828619 46.5960595,21.8033651 C46.7707499,21.7757128 46.9465278,21.7510744 47.1231301,21.7296982 Z M47.355264,21.7036258 C47.3333387,21.7059089 47.3114282,21.7082419 47.2895327,21.7106245 L47.2895327,21.7106245 Z M47.6289829,21.6777801 L47.5960317,21.6806107 C47.6070119,21.6796547 47.6179956,21.6787112 47.6289829,21.6777801 Z M48.84,21.6264 L48.5264529,21.6299372 C48.4218724,21.6322481 48.3175702,21.6356867 48.2135579,21.6402415 L48.5118915,21.6301268 L48.84,21.6264 Z" id="形状结合"></path>
                                    <path d="M33.0735,7.7091 L35.8818,2.8791 C36.3669218,1.98400366 36.1026058,0.867343004 35.2677,0.2847 C34.8269846,0.0452415645 34.308968,-0.00856568006 33.8284462,0.135202299 C33.3479244,0.278970278 32.9445812,0.608440415 32.7078,1.0506 L28.83,7.7091 L20.6466,7.7091 L16.7895,1.0299 C16.2936495,0.112059771 15.1480669,-0.230688658 14.2296,0.264 C13.3852472,0.843362856 13.1193975,1.96949014 13.6155,2.8653 L16.4169,7.6953" id="路径"></path>
                                </g>
                            </g>
                        </g>
                    </g>
                </g>
            </g>
        </g>
    </g>
</svg>