<?xml version="1.0" encoding="UTF-8"?>
<svg width="64px" height="64px" viewBox="0 0 64 64" version="1.1" xmlns="http://www.w3.org/2000/svg" xmlns:xlink="http://www.w3.org/1999/xlink">
    <!-- Generator: Sketch 58 (84663) - https://sketch.com -->
    <title>兑换</title>
    <desc>Created with Sketch.</desc>
    <g id="我的" stroke="none" stroke-width="1" fill="none" fill-rule="evenodd">
        <g id="4.5.9-我的钱包" transform="translate(-545.000000, -466.000000)">
            <g id="兑换" transform="translate(544.000000, 465.000000)">
                <g>
                    <rect id="矩形" stroke="#333333" stroke-width="3" x="2.5" y="2.5" width="61" height="61" rx="12"></rect>
                    <path d="M46.5,36 C47.3284271,36 48,36.6715729 48,37.5 C48,38.3284271 47.3284271,39 46.5,39 L23.1186566,38.9993846 L26.9222778,42.8026855 C27.5080642,43.3884719 27.5080642,44.3382194 26.9222778,44.9240058 C26.3364913,45.5097923 25.3867439,45.5097923 24.8009574,44.9240058 L18.4369964,38.5600448 C17.8701581,37.9932065 17.8518229,37.0855721 18.3819907,36.4966867 L18.3992157,36.4810325 L18.3992157,36.4810325 L18.4369964,36.4387245 L18.4369964,36.4387245 C18.6937229,36.181998 19.0203559,36.0377843 19.3556211,36.0060835 L19.5,36 L46.5,36 Z" id="路径" fill="#333333"></path>
                    <path d="M46.5,20 C47.3284271,20 48,20.6715729 48,21.5 C48,22.3284271 47.3284271,23 46.5,23 L23.1186566,22.9993846 L26.9222778,26.8026855 C27.5080642,27.3884719 27.5080642,28.3382194 26.9222778,28.9240058 C26.3364913,29.5097923 25.3867439,29.5097923 24.8009574,28.9240058 L18.4369964,22.5600448 C17.8701581,21.9932065 17.8518229,21.0855721 18.3819907,20.4966867 L18.3992157,20.4810325 L18.3992157,20.4810325 L18.4369964,20.4387245 L18.4369964,20.4387245 C18.6937229,20.181998 19.0203559,20.0377843 19.3556211,20.0060835 L19.5,20 L46.5,20 Z" id="路径备份" fill="#333333" transform="translate(32.998828, 24.681673) scale(-1, -1) translate(-32.998828, -24.681673) "></path>
                </g>
            </g>
        </g>
    </g>
</svg>