<?xml version="1.0" encoding="UTF-8"?>
<svg width="88px" height="88px" viewBox="0 0 88 88" version="1.1" xmlns="http://www.w3.org/2000/svg" xmlns:xlink="http://www.w3.org/1999/xlink">
    <!-- Generator: Sketch 58 (84663) - https://sketch.com -->
    <title>矩形</title>
    <desc>Created with Sketch.</desc>
    <g id="社交" stroke="none" stroke-width="1" fill="none" fill-rule="evenodd">
        <g id="4.1-通讯录-(Friends)" transform="translate(-30.000000, -362.000000)">
            <g id="群租" transform="translate(30.000000, 362.000000)">
                <rect id="矩形" fill="#1777FE" x="0" y="0" width="88" height="88" rx="4"></rect>
                <path d="M66.026554,53.1938066 L56.585535,49.5145212 C56.585535,49.5145212 54.7850158,48.8155151 54.08559,48.1280812 C53.6360148,47.6861808 53.6685128,46.6437276 54.066343,45.3120305 C54.4641733,43.9803934 59.3040319,38.5685826 59.3040319,33.6525756 C59.3040319,26.0604031 54.3127161,19.9047366 48.1562102,19.9047366 C46.9641583,19.9047366 45.8161767,20.1364795 44.7393068,20.5638098 C45.9763281,21.4077376 47.1105191,22.4384388 48.1266502,23.6444012 C48.1364835,23.6443412 48.1463768,23.6439215 48.1562102,23.6439215 C49.9846105,23.6439215 51.7525718,24.5824652 53.1344549,26.2866298 C54.7016723,28.2194193 55.5647871,30.8353857 55.5647871,33.6525757 C55.5647871,35.9104048 53.6871002,38.8982991 52.3866419,40.8721608 C52.292146,41.0155835 52.2004681,41.1540897 52.1129875,41.2861201 C51.2941227,42.5225418 50.7531095,43.339368 50.4835323,44.2416962 C50.2487315,45.0274635 50.1037498,45.7631647 50.0470882,46.4482002 C49.89701,48.2624502 50.3702091,49.7194023 51.4645871,50.7948932 C52.5917029,51.9027621 54.4749061,52.7062173 55.2322527,53.000198 L64.6687148,56.6777446 C64.6999536,56.6899163 64.7314322,56.7016684 64.7630308,56.7130606 C65.394103,56.9395871 65.8339048,57.550273 65.8339048,57.9566175 L65.8339048,58.8786724 C65.7440257,58.9099712 65.5966456,58.9430088 65.3924841,58.9430088 L62.3526051,58.9430088 C63.251036,60.0438624 63.9051325,61.3238146 64.2417443,62.6822536 L65.3924841,62.6822536 C67.6977411,62.6822536 69.5731496,61.2693115 69.5731496,58.9601571 L69.5731496,57.9566175 C69.5731496,55.8404722 68.0152857,53.9077426 66.026554,53.1938066 Z M56.7471854,59.380472 L46.0638687,55.2170148 C46.0638687,55.2170148 44.0264501,54.4260311 43.2349867,53.6481785 C42.7262317,53.1481175 42.7630467,51.9684773 43.2132215,50.461579 C43.6633963,48.9546807 49.1400831,42.8307927 49.1400831,37.2679443 C49.1400831,28.6767891 43.4920325,21.7110719 36.5253559,21.7110719 C29.5592189,21.7110719 23.911648,28.6767291 23.911648,37.268424 C23.911648,42.5965315 28.7919791,48.948385 29.3941509,50.1029022 C29.9968023,51.2574195 29.8501417,53.0169865 29.3743043,53.5499052 C28.6598287,54.3505423 26.0492587,55.1530982 26.0492587,55.1530982 L16.4182885,59.4452881 C14.168374,60.25366 12.4053893,62.3758012 12.4053893,64.7699779 L12.4053893,65.9056079 C12.4053893,68.5185764 14.5275304,70.1174524 17.1356421,70.1174524 L33.2888703,70.1174524 L38.8256962,70.1174524 L56.0298318,70.1174524 C58.6384831,70.1174524 60.7605644,68.5185764 60.7605644,65.905608 L60.7605644,64.769978 C60.7605644,62.3753815 58.9975796,60.1883643 56.7471854,59.380472 L56.7471854,59.380472 Z" id="形状" fill="#FFFFFF" fill-rule="nonzero"></path>
            </g>
        </g>
    </g>
</svg>