<?xml version="1.0" encoding="UTF-8"?>
<svg width="40px" height="40px" viewBox="0 0 40 40" version="1.1" xmlns="http://www.w3.org/2000/svg" xmlns:xlink="http://www.w3.org/1999/xlink">
    <!-- Generator: Sketch 58 (84663) - https://sketch.com -->
    <title>矩形</title>
    <desc>Created with Sketch.</desc>
    <g id="我的" stroke="none" stroke-width="1" fill="none" fill-rule="evenodd">
        <g id="4-我的" transform="translate(-56.000000, -1931.000000)" fill-rule="nonzero">
            <g id="我的推荐备份" transform="translate(30.000000, 1432.000000)">
                <g id="帮助中心" transform="translate(26.000000, 498.000000)">
                    <g transform="translate(0.000000, 1.000000)">
                        <rect id="矩形" fill="#000000" opacity="0" x="0" y="0" width="40" height="40"></rect>
                        <path d="M7.29411764,2 L32.7058824,2 C35.6298235,2 38,4.37017647 38,7.29411764 L38,32.7058824 C38,35.6298235 35.6298235,38 32.7058824,38 L7.29411764,38 C4.37017647,38 2,35.6298235 2,32.7058824 L2,7.29411764 C2,4.37017647 4.37017647,2 7.29411764,2 Z M20.2361176,12.8788824 C20.5410588,12.9185883 20.8502353,12.9381765 21.1504118,13.0017059 C22.5035883,13.2870588 23.0774706,15.0304118 22.1838235,16.0913529 C21.6417059,16.7351176 20.9778235,17.2327647 20.3097059,17.7272353 C18.5975883,18.9957059 17.7071177,20.6855883 17.7166471,22.8254706 C17.7207915,23.0850809 17.7864726,23.3400035 17.9082941,23.5692941 C18.2248823,24.1558823 18.7564117,24.4004706 19.4128824,24.4560588 C20.5871177,24.5550588 21.5125294,23.5544706 21.4341765,22.6115882 C21.4050588,22.2642941 21.4574706,21.8921176 21.5538235,21.5548824 C21.7444117,20.8872941 22.2245882,20.4102941 22.7545294,19.9962941 C23.4798235,19.4308823 24.248,18.9178823 24.9521176,18.3281176 C25.6800588,17.7182353 26.1676471,16.9315294 26.3365294,15.9780588 C26.5059412,15.0261765 26.4191176,14.0854118 26.1427647,13.1652941 C25.58,11.2890588 24.2956471,10.1571765 22.4347647,9.65794116 C21.3812353,9.37576469 20.3038823,9.36252938 19.2249412,9.48588236 C17.543,9.67805884 16.0590588,10.3128235 14.8371765,11.5018824 C14.3294706,11.9952941 13.925,12.5691765 13.7344118,13.2637647 C13.6020588,13.7487059 13.5935883,14.2368235 13.8985294,14.6693529 C14.4205294,15.4089412 15.5307059,15.6185883 16.3401765,15.1617059 C16.7266471,14.9430588 16.967,14.5936471 17.2322353,14.2611765 C17.5906471,13.8111765 17.9892941,13.4109412 18.5367059,13.1864706 C19.082,12.9635882 19.6527059,12.9143529 20.2361176,12.8788824 L20.2361176,12.8788824 Z M21.6962353,28.4568235 L21.6962353,28.1434118 C21.6951765,27.3429412 21.3081765,26.7828236 20.6008824,26.4461176 C19.9602941,26.1406471 19.2868824,26.1538823 18.6304118,26.3783529 C18.0305883,26.5832353 17.561,26.9776471 17.3974118,27.6102941 C17.3100588,27.9491176 17.3280588,28.3186471 17.3227647,28.6744118 C17.3111176,29.4568824 17.7240588,29.9831177 18.389,30.3267059 C18.9078235,30.5956471 19.4716471,30.6364118 20.0391765,30.5427059 C20.6691765,30.4384118 21.1615294,30.1117647 21.4871176,29.5521765 C21.6941176,29.1964118 21.7031176,28.8057059 21.6962353,28.4568235 L21.6962353,28.4568235 Z" id="形状" fill="#FE9339"></path>
                    </g>
                </g>
            </g>
        </g>
    </g>
</svg>