<?xml version="1.0" encoding="UTF-8"?>
<svg width="690px" height="60px" viewBox="0 0 690 60" version="1.1" xmlns="http://www.w3.org/2000/svg" xmlns:xlink="http://www.w3.org/1999/xlink">
    <!-- Generator: Sketch 52.4 (67378) - http://www.bohemiancoding.com/sketch -->
    <title>分组 19</title>
    <desc>Created with Sketch.</desc>
    <g id="设计规范" stroke="none" stroke-width="1" fill="none" fill-rule="evenodd">
        <g id="图标设计" transform="translate(-857.000000, -2570.000000)">
            <g id="分组-19" transform="translate(857.000000, 2570.000000)">
                <path d="M690,15 C681.715729,15 675,21.7157288 675,30 C675,38.2842712 681.715729,45 690,45 L690,60 L0,60 L0,45 C8.28427125,45 15,38.2842712 15,30 C15,21.7157288 8.28427125,15 0,15 L0,0 L690,0 L690,15 Z" id="合并形状" fill="#FFFFFF"></path>
                <path d="M34,32 L34,30 L44,30 L44,32 L34,32 Z M54,32 L54,30 L64,30 L64,32 L54,32 Z M74,32 L74,30 L84,30 L84,32 L74,32 Z M94,32 L94,30 L104,30 L104,32 L94,32 Z M114,32 L114,30 L124,30 L124,32 L114,32 Z M134,32 L134,30 L144,30 L144,32 L134,32 Z M154,32 L154,30 L164,30 L164,32 L154,32 Z M174,32 L174,30 L184,30 L184,32 L174,32 Z M194,32 L194,30 L204,30 L204,32 L194,32 Z M214,32 L214,30 L224,30 L224,32 L214,32 Z M234,32 L234,30 L244,30 L244,32 L234,32 Z M254,32 L254,30 L264,30 L264,32 L254,32 Z M274,32 L274,30 L284,30 L284,32 L274,32 Z M294,32 L294,30 L304,30 L304,32 L294,32 Z M314,32 L314,30 L324,30 L324,32 L314,32 Z M334,32 L334,30 L344,30 L344,32 L334,32 Z M354,32 L354,30 L364,30 L364,32 L354,32 Z M374,32 L374,30 L384,30 L384,32 L374,32 Z M394,32 L394,30 L404,30 L404,32 L394,32 Z M414,32 L414,30 L424,30 L424,32 L414,32 Z M434,32 L434,30 L444,30 L444,32 L434,32 Z M454,32 L454,30 L464,30 L464,32 L454,32 Z M474,32 L474,30 L484,30 L484,32 L474,32 Z M494,32 L494,30 L504,30 L504,32 L494,32 Z M514,32 L514,30 L524,30 L524,32 L514,32 Z M534,32 L534,30 L544,30 L544,32 L534,32 Z M554,32 L554,30 L564,30 L564,32 L554,32 Z M574,32 L574,30 L584,30 L584,32 L574,32 Z M594,32 L594,30 L604,30 L604,32 L594,32 Z M614,32 L614,30 L624,30 L624,32 L614,32 Z M634,32 L634,30 L644,30 L644,32 L634,32 Z M654,32 L654,30 L657,30 L657,32 L654,32 Z" id="路径-9" fill="#FF6C00" fill-rule="nonzero"></path>
            </g>
        </g>
    </g>
</svg>