<?xml version="1.0" encoding="UTF-8"?>
<svg width="50px" height="50px" viewBox="0 0 50 50" version="1.1" xmlns="http://www.w3.org/2000/svg" xmlns:xlink="http://www.w3.org/1999/xlink">
    <!-- Generator: Sketch 58 (84663) - https://sketch.com -->
    <title>矩形</title>
    <desc>Created with Sketch.</desc>
    <g id="我的" stroke="none" stroke-width="1" fill="none" fill-rule="evenodd">
        <g id="5-我的-(Me---Main-DApp)" transform="translate(-36.000000, -1015.000000)">
            <g id="收藏" transform="translate(36.000000, 1015.000000)">
                <rect id="矩形" fill="#000000" opacity="0" x="0" y="0" width="50" height="50"></rect>
                <path d="M41.4762091,6.94290953 C39.418272,5.6761019 37.1021526,5.00623539 34.7790946,5.00623539 C31.81233,5.00623539 28.9985624,6.12653041 26.8559638,8.16085958 C26.1920248,8.79113458 25.5851097,9.48031548 25.0000597,10.1509642 C23.1803057,7.86151655 21.3209031,6.44657173 19.1661184,5.70540442 C15.3834673,4.40514257 11.616734,4.90689563 8.15407042,7.17377972 C4.03807958,9.86798726 1.96795636,13.6823093 2.00037492,18.5117502 C2.01868324,21.355539 2.93637334,24.0543796 4.80516332,26.7608617 C6.81161557,29.6690318 9.2802655,32.6298502 12.5735479,36.0791843 C14.7902544,38.4010633 17.0865495,40.7091033 19.306871,42.9427137 L21.4740749,45.124458 C21.6672452,45.3199486 21.8639722,45.51219 22.0615739,45.7038297 L22.3065206,45.9385507 C22.7670273,46.3347064 23.7287391,47 24.9882234,47 C26.0309815,47 27.0197475,46.5588376 27.9362132,45.681928 C31.7046957,42.0194135 35.720224,38.0407686 39.5421739,33.7657291 C41.5211053,31.5514933 43.7870227,28.9479611 45.6321984,26.0585037 C47.6307209,22.9271049 48.3700506,19.6158596 47.8276229,16.2177297 C47.1965105,12.267545 45.0597426,9.14709706 41.4762091,6.94290953 Z" id="形状" fill="#FE7935" fill-rule="nonzero"></path>
                <path d="M9.64249295,21.5734624 L16.9274788,30.7203873" id="路径-2" stroke="#FFFFFF" stroke-width="4" stroke-linecap="round"></path>
            </g>
        </g>
    </g>
</svg>