<?xml version="1.0" encoding="UTF-8"?>
<svg width="50px" height="50px" viewBox="0 0 50 50" version="1.1" xmlns="http://www.w3.org/2000/svg" xmlns:xlink="http://www.w3.org/1999/xlink">
    <!-- Generator: Sketch 58 (84663) - https://sketch.com -->
    <title>矩形</title>
    <desc>Created with Sketch.</desc>
    <g id="我的" stroke="none" stroke-width="1" fill="none" fill-rule="evenodd">
        <g id="5-我的-(Me---Main-DApp)" transform="translate(-36.000000, -1412.000000)" fill="#FE7935" fill-rule="nonzero">
            <g id="关于" transform="translate(36.000000, 1412.000000)">
                <path d="M20.9725433,40.6926818 C19.1663407,40.6926818 17.9163735,39.580211 19.1663407,34.9990812 L21.1131646,26.8055463 C21.3912822,25.5555792 21.5287787,24.9993437 21.1131646,24.9993437 C20.5569292,24.9993437 18.3319875,25.9711933 16.944524,26.8055463 L16.1132958,25.4149579 C20.2788115,21.9462989 25.1380589,19.8619786 27.2223792,19.8619786 C28.8879605,19.8619786 29.3066995,21.943174 28.33485,25.1368401 L26.1130333,33.7491141 C25.6942943,35.277199 25.8317907,35.8303094 26.2505297,35.8303095 C26.8067651,35.8303095 28.4723464,35.1365777 30.1379277,33.8866105 L31.1097771,35.1365777 C27.0848828,39.0271005 22.6412495,40.6926818 20.9725433,40.6926818 M27.5004969,8.33415625 C30.0004313,8.33415625 30.8347844,9.86224116 30.8347844,11.5278224 C30.8347844,13.6121427 29.1660782,15.5558417 26.2505297,15.5558417 C23.8880917,15.5558417 22.6381245,14.3058745 22.7787458,12.3621755 C22.6381246,10.6934693 24.028713,8.3310313 27.5004969,8.3310313 M24.7224448,0 C10.8353094,0.140621289 -0.136277637,11.5309473 0.00434365234,25.2805864 C0.141840039,39.0302254 11.5290411,50.1393088 25.2786802,49.9986875 C39.0283193,49.8611912 50.1374027,38.4739901 49.9967813,24.724351 C49.859285,10.8372155 38.4720839,-0.134371484 24.7224448,0.00624985352" id="形状"></path>
            </g>
        </g>
    </g>
</svg>