<?xml version="1.0" encoding="UTF-8"?>
<svg width="66px" height="66px" viewBox="0 0 66 66" version="1.1" xmlns="http://www.w3.org/2000/svg" xmlns:xlink="http://www.w3.org/1999/xlink">
    <!-- Generator: Sketch 58 (84663) - https://sketch.com -->
    <title>矩形</title>
    <desc>Created with Sketch.</desc>
    <g id="首页" stroke="none" stroke-width="1" fill="none" fill-rule="evenodd">
        <g id="2-首页-(Home---Main-DApp)" transform="translate(-259.000000, -155.000000)" fill="#FFFFFF">
            <g id="顶部">
                <g id="导航栏" transform="translate(30.000000, 54.000000)">
                    <g id="扫一扫" transform="translate(218.000000, 101.000000)">
                        <g id="分组" transform="translate(11.000000, 0.000000)">
                            <path d="M7,18 L1,18 L1,13 C1,6.372583 6.372583,1 13,1 L18,1 L18,7 L13,7 C9.6862915,7 7,9.6862915 7,13 L7,18 Z M7,48 L7,53 C7,56.3137085 9.6862915,59 13,59 L18,59 L18,65 L13,65 C6.372583,65 1,59.627417 1,53 L1,48 L7,48 Z M48,59 L53,59 C56.3137085,59 59,56.3137085 59,53 L59,48 L65,48 L65,53 C65,59.627417 59.627417,65 53,65 L48,65 L48,59 L48,59 Z M59,18 L59,13 C59,9.6862915 56.3137085,7 53,7 L48,7 L48,1 L53,1 C59.627417,1 65,6.372583 65,13 L65,18 L59,18 L59,18 Z" id="形状" fill-rule="nonzero"></path>
                            <rect id="矩形" x="1" y="30" width="64" height="6" rx="3"></rect>
                        </g>
                    </g>
                </g>
            </g>
        </g>
    </g>
</svg>