<?xml version="1.0" encoding="UTF-8"?>
<svg width="44px" height="44px" viewBox="0 0 44 44" version="1.1" xmlns="http://www.w3.org/2000/svg" xmlns:xlink="http://www.w3.org/1999/xlink">
    <!-- Generator: Sketch 58 (84663) - https://sketch.com -->
    <title>矩形</title>
    <desc>Created with Sketch.</desc>
    <g id="首页" stroke="none" stroke-width="1" fill="none" fill-rule="evenodd">
        <g id="2.1-快捷功能-(Quick-Menu)" transform="translate(-470.000000, -342.000000)">
            <g id="反馈:60/气泡菜单Popovers:5/带icon/选项个数:4项" transform="translate(446.000000, 120.000000)">
                <g id="PopMenu">
                    <g id="编组-3" transform="translate(24.000000, 222.000000)">
                        <g id="Collect-money" transform="translate(3.000000, 3.000000)">
                            <path d="M32,38 L31.8038151,38 L6,38 C2.6862915,38 0,35.3137085 0,32 L0,6 C0,2.6862915 2.6862915,0 6,0 L32,0 C35.3137085,0 38,2.6862915 38,6 L38,31.5064655 L38,32 C38,35.3137085 35.3137085,38 32,38 L32,38 L32,38 Z" id="路径" stroke="#444444" stroke-width="3" stroke-linecap="round" stroke-linejoin="round"></path>
                            <path d="M8.5,11 C9.32842712,11 10,11.6715729 10,12.5 L10,25.5 C10,26.3284271 9.32842712,27 8.5,27 C7.67157288,27 7,26.3284271 7,25.5 L7,12.5 C7,11.6715729 7.67157288,11 8.5,11 Z M15.5,11 C16.3284271,11 17,11.6715729 17,12.5 L17,25.5 C17,26.3284271 16.3284271,27 15.5,27 C14.6715729,27 14,26.3284271 14,25.5 L14,12.5 C14,11.6715729 14.6715729,11 15.5,11 Z M22.5,11 C23.3284271,11 24,11.6715729 24,12.5 L24,25.5 C24,26.3284271 23.3284271,27 22.5,27 C21.6715729,27 21,26.3284271 21,25.5 L21,12.5 C21,11.6715729 21.6715729,11 22.5,11 Z M29.5,11 C30.3284271,11 31,11.6715729 31,12.5 L31,25.5 C31,26.3284271 30.3284271,27 29.5,27 C28.6715729,27 28,26.3284271 28,25.5 L28,12.5 C28,11.6715729 28.6715729,11 29.5,11 Z" id="形状" fill="#444444"></path>
                        </g>
                    </g>
                </g>
            </g>
        </g>
    </g>
</svg>