<?xml version="1.0" encoding="UTF-8"?>
<svg width="44px" height="44px" viewBox="0 0 44 44" version="1.1" xmlns="http://www.w3.org/2000/svg" xmlns:xlink="http://www.w3.org/1999/xlink">
    <!-- Generator: Sketch 58 (84663) - https://sketch.com -->
    <title>矩形</title>
    <desc>Created with Sketch.</desc>
    <g id="首页" stroke="none" stroke-width="1" fill="none" fill-rule="evenodd">
        <g id="2.1-快捷功能-(Quick-Menu)" transform="translate(-470.000000, -249.000000)" fill="#444444">
            <g id="反馈:60/气泡菜单Popovers:5/带icon/选项个数:4项" transform="translate(446.000000, 120.000000)">
                <g id="PopMenu">
                    <g id="内容列表二" transform="translate(24.000000, 129.000000)">
                        <g id="#Transfer">
                            <g id="scanning" transform="translate(1.000000, 1.000000)">
                                <path d="M3.5,31 L3.5,34 L3.5,34 C3.5,36.4852814 5.51471863,38.5 8,38.5 L11.5,38.5 C12.3284271,38.5 13,39.1715729 13,40 C13,40.8284271 12.3284271,41.5 11.5,41.5 L8,41.5 L8,41.5 C3.85786438,41.5 0.5,38.1421356 0.5,34 L0.5,31 C0.5,30.1715729 1.17157288,29.5 2,29.5 C2.82842712,29.5 3.5,30.1715729 3.5,31 Z M41.5,31 L41.5,34 L41.5,34 C41.5,38.1421356 38.1421356,41.5 34,41.5 L30.5,41.5 C29.6715729,41.5 29,40.8284271 29,40 C29,39.1715729 29.6715729,38.5 30.5,38.5 L34,38.5 L34,38.5 C36.4852814,38.5 38.5,36.4852814 38.5,34 L38.5,31 C38.5,30.1715729 39.1715729,29.5 40,29.5 C40.8284271,29.5 41.5,30.1715729 41.5,31 Z M41.5,8 L41.5,12 C41.5,12.8284271 40.8284271,13.5 40,13.5 C39.1715729,13.5 38.5,12.8284271 38.5,12 L38.5,8 L38.5,8 C38.5,5.51471863 36.4852814,3.5 34,3.5 L30.5,3.5 C29.6715729,3.5 29,2.82842712 29,2 C29,1.17157288 29.6715729,0.5 30.5,0.5 L34,0.5 L34,0.5 C38.1421356,0.5 41.5,3.85786438 41.5,8 Z M13,2 C13,2.82842712 12.3284271,3.5 11.5,3.5 L8,3.5 L8,3.5 C5.51471863,3.5 3.5,5.51471863 3.5,8 L3.5,12 C3.5,12.8284271 2.82842712,13.5 2,13.5 C1.17157288,13.5 0.5,12.8284271 0.5,12 L0.5,8 L0.5,8 C0.5,3.85786438 3.85786438,0.5 8,0.5 L11.5,0.5 C12.3284271,0.5 13,1.17157288 13,2 Z" id="形状" fill-rule="nonzero"></path>
                                <rect id="矩形" x="2" y="20" width="38" height="3" rx="1.5"></rect>
                            </g>
                        </g>
                    </g>
                </g>
            </g>
        </g>
    </g>
</svg>