<?xml version="1.0" encoding="UTF-8"?>
<svg width="50px" height="50px" viewBox="0 0 50 50" version="1.1" xmlns="http://www.w3.org/2000/svg" xmlns:xlink="http://www.w3.org/1999/xlink">
    <!-- Generator: Sketch 58 (84663) - https://sketch.com -->
    <title>矩形</title>
    <desc>Created with Sketch.</desc>
    <g id="我的" stroke="none" stroke-width="1" fill="none" fill-rule="evenodd">
        <g id="5-我的-(Me---Main-DApp)" transform="translate(-36.000000, -1317.000000)" fill="#1777FE" fill-rule="nonzero">
            <g id="联系" transform="translate(36.000000, 1317.000000)">
                <path d="M6.99687936,24.9307642 L8.62349245,24.9307642 C10.4259556,24.9307642 11.8986999,23.4375726 11.8986999,21.6100844 L11.8986999,16.6457795 C11.8986999,15.8991837 11.6459154,15.2027324 11.2392621,14.6399998 C13.3439676,9.02938808 18.7018992,5.04011503 24.9995296,5.04011503 C31.29716,5.04011503 36.6221197,9.02938808 38.7543017,14.6399998 C38.3201719,15.208304 38.094864,15.8991837 38.094864,16.6457795 L38.094864,21.6100844 C38.094864,23.4375726 39.5676083,24.9307642 41.3700714,24.9307642 L42.9966845,24.9307642 C44.7991476,24.9307642 46.2718919,23.4375726 46.2718919,21.6100844 L46.2718919,16.6457795 C46.2718919,14.9965828 45.0794087,13.6371099 43.52973,13.3752442 C40.8370259,5.63070574 33.5777155,0.0702385562 24.9995296,0.0702385562 C16.4213437,0.0702385562 9.16203327,5.63070574 6.46932917,13.3752442 C4.91965049,13.6315383 3.72715169,14.9965828 3.72715169,16.6457795 L3.72715169,21.6100844 C3.72167194,23.4375726 5.17243496,24.9307642 6.99687936,24.9307642 Z M47.5083377,42.3587615 L46.9258343,40.6872784 C45.0244555,35.1992421 40.3259616,31.5721238 35.072441,31.5721238 L34.1052657,31.5721238 C31.489496,33.8341976 28.291223,35.2271002 24.9665577,35.2271002 C21.004436,35.2271002 17.4544628,33.8620556 14.6078899,31.5721238 C9.45328493,31.6724127 4.85920203,35.2772447 2.97980448,40.6817068 L2.39730115,42.3531899 C2.16649794,42.9716386 2.06758228,43.6402319 2.06758228,44.3088251 C2.06758228,47.3453528 4.24922213,49.7912898 6.96390748,49.7912898 L42.9582173,49.7912898 C43.5681972,49.7912898 44.1507005,49.6631427 44.7112226,49.4291351 C47.2335719,48.3538143 48.4974943,45.1891396 47.5083377,42.3587615 L47.5083377,42.3587615 Z" id="形状"></path>
                <path d="M15.1739073,19.9664593 C15.1739073,23.5156309 17.0413685,26.7952202 20.0729438,28.5698191 C23.1045191,30.3444181 26.8395869,30.3444181 29.8711622,28.5698191 C32.9027375,26.7952202 34.7701987,23.5156309 34.7701987,19.9664593 C34.7701987,16.4172809 32.9027499,13.1376809 29.8711704,11.3630756 C26.8395909,9.58847023 23.1045151,9.58847023 20.0729356,11.3630756 C17.0413562,13.1376809 15.1739073,16.4172809 15.1739073,19.9664593 L15.1739073,19.9664593 Z" id="路径"></path>
            </g>
        </g>
    </g>
</svg>