<?xml version="1.0" encoding="UTF-8"?>
<svg width="66px" height="66px" viewBox="0 0 66 66" version="1.1" xmlns="http://www.w3.org/2000/svg" xmlns:xlink="http://www.w3.org/1999/xlink">
    <!-- Generator: Sketch 58 (84663) - https://sketch.com -->
    <title>矩形</title>
    <desc>Created with Sketch.</desc>
    <g id="首页" stroke="none" stroke-width="1" fill="none" fill-rule="evenodd">
        <g id="2-首页-(Home---Main-DApp)" transform="translate(-71.000000, -155.000000)" fill-rule="nonzero">
            <g id="顶部">
                <g id="导航栏" transform="translate(30.000000, 54.000000)">
                    <g id="钱包" transform="translate(41.000000, 101.000000)">
                        <g id="12-我的钱包">
                            <rect id="矩形" fill="#000000" opacity="0" x="3" y="3" width="60" height="60"></rect>
                            <path d="M51,10 C59.2842712,10 66,16.7157288 66,25 L66,51 C66,59.2842712 59.2842712,66 51,66 L15,66 C6.71572875,66 0,59.2842712 0,51 L0,25 C0,16.7157288 6.71572875,10 15,10 L51,10 Z M51,16 L15,16 C10.0294373,16 6,20.0294373 6,25 L6,51 C6,55.9705627 10.0294373,60 15,60 L51,60 C55.9705627,60 60,55.9705627 60,51 L60,40 L50.3260191,40.0007361 C49.2024047,42.3652866 46.7921062,44 44,44 C40.1340068,44 37,40.8659932 37,37 C37,33.1340068 40.1340068,30 44,30 C46.792501,30 49.2030863,31.6351757 50.3264957,34.000267 L60,34 L60,25 C60,20.0294373 55.9705627,16 51,16 Z M26,0 C27.6568542,0 29,1.34314575 29,3 C29,4.65685425 27.6568542,6 26,6 L4,6 C2.34314575,6 1,4.65685425 1,3 C1,1.34314575 2.34314575,0 4,0 L26,0 Z" id="形状" fill="#FFFFFF"></path>
                        </g>
                    </g>
                </g>
            </g>
        </g>
    </g>
</svg>