<?xml version="1.0" encoding="UTF-8"?>
<svg width="50px" height="50px" viewBox="0 0 50 50" version="1.1" xmlns="http://www.w3.org/2000/svg" xmlns:xlink="http://www.w3.org/1999/xlink">
    <!-- Generator: Sketch 58 (84663) - https://sketch.com -->
    <title>矩形</title>
    <desc>Created with Sketch.</desc>
    <g id="我的" stroke="none" stroke-width="1" fill="none" fill-rule="evenodd">
        <g id="1" transform="translate(-36.000000, -636.000000)" fill="#E7521E" fill-rule="nonzero">
            <g id="关于备份" transform="translate(36.000000, 636.000000)">
                <g id="敬请期待——咖啡" transform="translate(1.000000, 0.000000)">
                    <path d="M18.8636596,7.79068289 C20.7241257,8.02324127 23.2822683,8.37208005 24.4450626,8.83719778 C23.6311066,9.18603559 21.88692,9.53487438 20.7241257,9.76743324 C17.5845859,10.3488304 15.1427227,10.9302276 15.1427227,12.6744142 C15.1427227,14.7674391 17.7008653,15.5813951 20.0264686,15.5813951 C20.6078658,15.5813951 20.9567041,15.1162783 20.9567041,14.6511596 C20.9567041,14.0697625 20.4915873,13.7209242 20.0264686,13.7209242 C18.9799537,13.7209242 17.3520465,13.3720864 17.1194877,12.9069681 C17.7008848,12.4418514 19.7939097,12.0930121 21.189258,11.7441738 C24.3287978,11.1627767 26.7706708,10.5813795 26.7706708,8.8371929 C26.7706708,7.0930063 24.3287978,6.62788857 19.2124979,5.93021198 C17.3520319,5.6976536 14.5613304,5.23253539 13.5148351,4.88369709 C15.2590217,3.72090277 22.9334495,2.0929956 25.8404353,2.0929956 C26.4218325,2.0929956 26.7706708,1.62787885 26.7706708,1.16276014 C26.7706708,0.69764339 26.305554,-3.41797273e-05 25.7241559,-3.41797273e-05 C24.7939204,-3.41797273e-05 11.1892757,1.39531412 11.1892757,4.88371174 C11.1892757,6.62789834 13.7474183,6.97673663 18.8636987,7.79069266 L18.8636596,7.79068289 Z M35.3752999,17.6743858 L0.607827846,17.6743858 L0.607827846,41.6279293 C0.607827846,45.9302585 4.09620593,49.7674896 8.39851074,49.7674896 L27.700877,49.7674896 C32.0032062,49.7674896 35.4915598,45.9302781 35.4915598,41.6279293 C41.8869286,41.6279293 47.1195031,36.3953549 47.1195031,29.9999861 C47.0032241,23.6046173 41.8869286,17.6743858 35.3752999,17.6743858 L35.3752999,17.6743858 Z M35.3752999,35.8140065 L35.3752999,24.1860633 C38.6311192,24.1860633 41.1892716,26.7442059 41.1892716,30.0000349 C41.1892716,33.2558541 38.6311289,35.8140065 35.3752999,35.8140065 Z" id="形状"></path>
                </g>
            </g>
        </g>
    </g>
</svg>