<?xml version="1.0" encoding="UTF-8"?>
<svg width="50px" height="50px" viewBox="0 0 50 50" version="1.1" xmlns="http://www.w3.org/2000/svg" xmlns:xlink="http://www.w3.org/1999/xlink">
    <!-- Generator: Sketch 58 (84663) - https://sketch.com -->
    <title>矩形</title>
    <desc>Created with Sketch.</desc>
    <g id="我的" stroke="none" stroke-width="1" fill="none" fill-rule="evenodd">
        <g id="5-我的-(Me---Main-DApp)" transform="translate(-36.000000, -502.000000)" fill="#FE7935" fill-rule="nonzero">
            <g id="OTC" transform="translate(36.000000, 502.000000)">
                <path d="M25,0 C38.8068359,0 50,11.1931641 50,25 C50,38.8068359 38.8068359,50 25,50 C11.1931641,50 0,38.8068359 0,25 C0,11.1931641 11.1931641,0 25,0 Z M36.94113,18.0010373 C35.3285901,17.9707015 33.7782324,18.6069248 32.653124,19.751685 L32.4696057,19.94716 L32.3028978,20.1414358 C31.3329979,21.441332 30.8136222,23.0187294 30.8180133,24.6347952 L30.8258968,24.9584536 C30.7411493,26.5672296 31.1777778,28.1574137 32.0662101,29.4944853 L32.2499002,29.7584555 C33.4216728,31.1526725 35.1625022,31.9316461 36.9737336,31.8839233 L37.232906,31.8714591 C38.4901209,31.9014763 39.7202174,31.5204584 40.7381051,30.7902525 L40.9529082,30.6284578 C42.0848224,29.704577 42.8346709,28.3943896 43.057911,26.9504531 L43.113911,26.6544527 L40.5669096,26.6544527 L40.5179096,26.8414532 C40.3687257,27.5629668 40.0096958,28.2222983 39.4885598,28.7379889 L39.3089093,28.9044541 C38.7644813,29.2851492 38.1226963,29.4983672 37.4622807,29.5209623 L37.2139053,29.5204548 C36.1720033,29.6007518 35.1537084,29.2055866 34.4395858,28.4527555 L34.3009001,28.2974554 C33.709184,27.3813751 33.4048868,26.3116287 33.4234977,25.2252999 L33.4348981,24.9534492 C33.3659269,23.8745185 33.6255356,22.8022147 34.1761942,21.8766902 L34.3199008,21.648448 C34.9457132,20.8190159 35.9263026,20.3407958 36.9571526,20.3517017 L37.1639023,20.3604454 C37.8117993,20.3266597 38.4550891,20.4698673 39.0255355,20.7725151 L39.2359051,20.8934475 C39.8088167,21.3022145 40.203498,21.9148073 40.3389056,22.6054491 L40.3869056,22.7934492 L42.9249094,22.7934492 L42.8809094,22.5064499 C42.7377614,21.3175524 42.1726695,20.2226432 41.2931504,19.4182888 L41.0999087,19.2504462 C40.0583101,18.4500143 38.7852518,18.0146616 37.476766,18.006608 L37.1960256,18.011 L36.94113,18.0010373 Z M9.05237208,19.6321536 L8.85713314,19.8234878 L8.66988612,20.0244363 C7.58479147,21.3215481 6.99552335,22.9577343 7,24.642138 L7.00788295,24.958459 C6.93156834,26.6427996 7.45312916,28.2963173 8.47453657,29.6293479 L8.67188471,29.8754654 C9.84332699,31.1580044 11.4998833,31.8811746 13.2284147,31.8746851 L13.5018787,31.8674689 C15.2328947,31.9507102 16.9148547,31.3034953 18.1419585,30.0915037 L18.3318727,29.8954673 C19.4295203,28.6028162 20.0271888,26.9635619 20.0236479,25.2746335 L20.015876,24.9574462 C20.0944573,23.2588622 19.5666221,21.5913143 18.5326469,20.2500478 L18.3328699,20.0024562 C17.1617827,18.7196152 15.5048176,17.9969146 13.7763292,18.005069 L13.5028879,18.0114338 C11.8528615,17.9221125 10.2470267,18.5133051 9.05237208,19.6321536 Z M30.9359271,18.2614349 L19.9078987,18.2614349 L19.9068987,20.5634388 L24.1189184,20.5634368 L24.1189184,31.6164301 L26.7239234,31.6164301 L26.7239234,20.5634368 L30.9359271,20.5634368 L30.9359271,18.2614349 Z M16.0816402,21.2446164 L16.239557,21.3937804 L16.3888917,21.5534383 C17.0571941,22.4672628 17.4112637,23.5704072 17.4024028,24.6978943 L17.3938934,24.9584418 C17.4617514,26.078252 17.1592895,27.1867769 16.5371204,28.114615 L16.3878908,28.3254467 C15.7072742,29.0881406 14.7354026,29.520371 13.7200401,29.5201516 L13.5018869,29.5134481 C12.4669015,29.5741535 11.4613102,29.1782785 10.7465091,28.437437 L10.5978833,28.2734456 C9.94528775,27.3908294 9.59721637,26.3228882 9.60145691,25.2300726 L9.60988444,24.9564417 C9.54445628,23.8489804 9.84120528,22.7527266 10.4515052,21.8317769 L10.5978874,21.6224368 C11.2654942,20.8248883 12.2483153,20.3657087 13.2809478,20.3597371 L13.5028877,20.3654366 C14.4515188,20.300074 15.3795492,20.6213089 16.0816402,21.2446164 Z" id="形状"></path>
            </g>
        </g>
    </g>
</svg>