<?xml version="1.0" encoding="UTF-8"?>
<svg width="27px" height="26px" viewBox="0 0 27 26" version="1.1" xmlns="http://www.w3.org/2000/svg" xmlns:xlink="http://www.w3.org/1999/xlink">
    <!-- Generator: Sketch 58 (84663) - https://sketch.com -->
    <title>矩形</title>
    <desc>Created with Sketch.</desc>
    <g id="社交" stroke="none" stroke-width="1" fill="none" fill-rule="evenodd">
        <g id="4.2-添加朋友-(Add-Friends)" transform="translate(-60.000000, -189.000000)" fill="#ffffff" fill-rule="nonzero">
            <g id="搜索" transform="translate(60.000000, 189.000000)">
                <g id="分组">
                    <path d="M20.608373,19.0523426 C20.6593708,19.086922 20.707878,19.1266654 20.7531506,19.1715729 L25.0302843,23.4142136 C25.4239835,23.8047379 25.4239835,24.4379028 25.0302843,24.8284271 C24.636585,25.2189514 23.9982723,25.2189514 23.604573,24.8284271 L19.3274393,20.5857864 C19.2821668,20.540879 19.2421002,20.492763 19.2072397,20.4421764 C17.2823381,22.0389262 14.8030974,23 12.097561,23 C5.97303741,23 1.00813008,18.0751322 1.00813008,12 C1.00813008,5.92486775 5.97303741,1 12.097561,1 C18.2220845,1 23.1869919,5.92486775 23.1869919,12 C23.1869919,14.6837176 22.2181045,17.1429644 20.608373,19.0523426 L20.608373,19.0523426 Z M12.097561,21 C17.1085348,21 21.1707317,16.9705627 21.1707317,12 C21.1707317,7.02943725 17.1085348,3 12.097561,3 C7.08658715,3 3.02439024,7.02943725 3.02439024,12 C3.02439024,16.9705627 7.08658715,21 12.097561,21 Z" id="形状"></path>
                </g>
            </g>
        </g>
    </g>
</svg>
