<?xml version="1.0" encoding="UTF-8"?>
<svg width="50px" height="50px" viewBox="0 0 50 50" version="1.1" xmlns="http://www.w3.org/2000/svg" xmlns:xlink="http://www.w3.org/1999/xlink">
    <!-- Generator: Sketch 58 (84663) - https://sketch.com -->
    <title>矩形</title>
    <desc>Created with Sketch.</desc>
    <g id="我的" stroke="none" stroke-width="1" fill="none" fill-rule="evenodd">
        <g id="5-我的-(Me---Main-DApp)" transform="translate(-36.000000, -1204.000000)" fill="#FE7935" fill-rule="nonzero">
            <g id="购物车" transform="translate(36.000000, 1204.000000)">
                <path d="M16.71917,38.4372226 C17.3576109,38.4372226 17.9624496,38.5563055 18.5336862,38.7944712 C19.1049227,39.0326368 19.608955,39.3643676 20.0457829,39.7896635 C20.4826109,40.2149593 20.8186324,40.7168084 21.0538474,41.2952108 C21.2890625,41.8736132 21.40667,42.4860392 21.40667,43.1324889 C21.40667,43.7789386 21.2890625,44.3913646 21.0538474,44.969767 C20.8186324,45.5481694 20.4826109,46.0500185 20.0457829,46.4753143 C19.608955,46.9006102 19.1049227,47.2408469 18.5336862,47.4960244 C17.9624496,47.7512019 17.3576109,47.8787907 16.71917,47.8787907 C16.047127,47.8787907 15.4338878,47.7512019 14.8794523,47.4960244 C14.3250168,47.2408469 13.8293851,46.9006102 13.3925571,46.4753143 C12.9557292,46.0500185 12.6197077,45.5481694 12.3844926,44.969767 C12.1492776,44.3913646 12.03167,43.7789386 12.03167,43.1324889 C12.03167,42.4860392 12.1492776,41.8736132 12.3844926,41.2952108 C12.6197077,40.7168084 12.9557292,40.2149593 13.3925571,39.7896635 C13.8293851,39.3643676 14.3250168,39.0326368 14.8794523,38.7944712 C15.4338878,38.5563055 16.047127,38.4372226 16.71917,38.4372226 Z M37.686912,38.5392936 C38.3253528,38.5392936 38.9385921,38.6583765 39.5266297,38.8965422 C40.1146673,39.1347078 40.6186996,39.4664386 41.0387265,39.8917345 C41.4587534,40.3170303 41.7947749,40.8188794 42.046791,41.3972818 C42.2988071,41.9756842 42.4248152,42.5881102 42.4248152,43.2345599 C42.4248152,43.8810096 42.2988071,44.4934357 42.046791,45.071838 C41.7947749,45.6502404 41.4587534,46.1520895 41.0387265,46.5773854 C40.6186996,47.0026812 40.1146673,47.3429179 39.5266297,47.5980954 C38.9385921,47.8532729 38.3253528,47.9808617 37.686912,47.9808617 C37.0484711,47.9808617 36.4436324,47.8532729 35.8723958,47.5980954 C35.3011593,47.3429179 34.8055276,47.0026812 34.3855007,46.5773854 C33.9654738,46.1520895 33.6294523,45.6502404 33.3774362,45.071838 C33.12542,44.4934357 32.999412,43.8810096 32.999412,43.2345599 C32.999412,42.5881102 33.12542,41.9756842 33.3774362,41.3972818 C33.6294523,40.8188794 33.9654738,40.3170303 34.3855007,39.8917345 C34.8055276,39.4664386 35.3011593,39.1347078 35.8723958,38.8965422 C36.4436324,38.6583765 37.0484711,38.5392936 37.686912,38.5392936 Z M46.1546539,9.55112796 C47.0955141,9.55112796 47.8263609,9.67871672 48.3471942,9.93389423 C48.8680276,10.1890717 49.2376512,10.5037907 49.4560652,10.878051 C49.6744792,11.2523114 49.7752856,11.6520895 49.7584845,12.0773854 C49.7416835,12.5026812 49.6828797,12.8684357 49.5820733,13.1746487 C49.4812668,13.4808617 49.2712534,14.1102996 48.9520329,15.0629623 C48.6328125,16.015625 48.2715894,17.0618528 47.8683636,18.2016457 C47.4651378,19.3414386 47.0703125,20.4727256 46.6838878,21.5955067 C46.297463,22.7182877 46.0034442,23.6029031 45.8018313,24.2493528 C45.3650034,25.6102996 44.8105679,26.5544564 44.1385249,27.0818232 C43.4664819,27.6091901 42.6432292,27.8728735 41.6687668,27.8728735 L39.9550571,27.8728735 L36.6788474,27.8728735 L32.3945733,27.8728735 L27.7070733,27.8728735 L15.2070733,27.8728735 L15.9631216,32.4660688 L41.3663474,32.4660688 C42.9792507,32.4660688 43.7857023,33.163554 43.7857023,34.5585244 C43.7857023,35.2389978 43.6260921,35.8259061 43.3068716,36.3192493 C42.9876512,36.8125925 42.3576109,37.0592641 41.4167507,37.0592641 L38.9973958,37.0592641 L34.3098958,37.0592641 L28.5135249,37.0592641 L22.6163474,37.0592641 L17.7776378,37.0592641 L15.0054603,37.0592641 C14.3334173,37.0592641 13.7705813,36.9061575 13.3169523,36.5999445 C12.8633233,36.2937315 12.4852991,35.8939534 12.1828797,35.4006102 C11.8804603,34.907267 11.6368448,34.3713942 11.4520329,33.7929919 C11.2672211,33.2145895 11.124412,32.6702108 11.0236055,32.1598558 C10.9900034,31.9557138 10.8975974,31.4623706 10.7463878,30.6798262 C10.5951781,29.8972818 10.4103663,28.9191013 10.1919523,27.7452848 C9.97353831,26.5714682 9.72992272,25.261557 9.46110551,23.815551 C9.19228831,22.3695451 8.9234711,20.9150333 8.6546539,19.4520155 C8.01621304,16.015625 7.2937668,12.1879623 6.48731519,7.96902737 L2.70707325,7.96902737 C2.20304099,7.96902737 1.78301411,7.84143861 1.44699261,7.58626109 C1.1109711,7.33108358 0.83375336,7.02487056 0.615339382,6.66762204 C0.396925403,6.31037352 0.245715726,5.92760725 0.161710349,5.51932322 C0.0777049731,5.1110392 0.0357022849,4.73677885 0.0357022849,4.39654216 C0.0357022849,3.71606879 0.262516801,3.15467825 0.716145833,2.71237056 C1.16977487,2.27006287 1.78301411,2.04890902 2.55586358,2.04890902 L3.66473454,2.04890902 L4.67279906,2.04890902 L5.9328797,2.04890902 L7.64658938,2.04890902 C8.31863239,2.04890902 8.8562668,2.15098003 9.25949261,2.35512204 C9.66271841,2.55926405 9.98193884,2.81444157 10.2171539,3.12065459 C10.452369,3.4268676 10.6203797,3.75009246 10.7211862,4.09032914 C10.8219926,4.43056583 10.905998,4.71976701 10.9732023,4.95793269 C11.0404066,5.23012204 11.1076109,5.61288831 11.1748152,6.10623151 C11.2420195,6.5995747 11.3092238,7.10142382 11.3764281,7.61177885 C11.4772345,8.22420488 11.578041,8.87065459 11.6788474,9.55112796 L46.1546539,9.55112796 Z" id="形状"></path>
            </g>
        </g>
    </g>
</svg>