<?xml version="1.0" encoding="UTF-8"?>
<svg width="50px" height="50px" viewBox="0 0 50 50" version="1.1" xmlns="http://www.w3.org/2000/svg" xmlns:xlink="http://www.w3.org/1999/xlink">
    <!-- Generator: Sketch 58 (84663) - https://sketch.com -->
    <title>矩形</title>
    <desc>Created with Sketch.</desc>
    <g id="我的" stroke="none" stroke-width="1" fill="none" fill-rule="evenodd">
        <g id="5-我的-(Me---Main-DApp)" transform="translate(-36.000000, -616.000000)" fill="#1777FE" fill-rule="nonzero">
            <g id="信用" transform="translate(36.000000, 616.000000)">
                <path d="M49.8066081,19.9528302 C49.3684574,18.7201257 48.346106,17.6415094 47.0316541,17.4874214 L34.1792358,15.1761006 L28.4832776,3.0031446 C27.8990767,1.77044018 26.7306751,1 25.4162232,1 C24.1017714,1 22.9333697,1.77044025 22.3491688,3.0031446 L16.6532107,15.1761006 L3.80079238,17.6415094 C2.6323907,17.7955975 1.61003927,18.7201258 1.17188862,19.9528302 C0.733737975,21.1855346 1.17188862,22.7264151 2.04818986,23.6509434 L11.249353,32.5880503 C14.1703572,30.2767296 18.4058133,27.1949685 24.1017714,25.0377358 C24.1017714,25.0377358 13.4401061,34.4371069 9.0585999,45.2232705 L8.91254964,45.6855346 C8.76649945,47.072327 9.20465003,48.4591195 10.2270015,49.2295598 C10.8112024,49.6918239 11.5414534,49.845912 12.2717044,49.845912 C12.8559053,49.845912 13.2940559,49.6918239 13.7322066,49.5377359 L25.4162232,43.5283019 L36.9541897,49.5377359 C37.3923404,49.845912 37.9765412,50 38.560742,50 C39.290993,50 40.0212441,49.6918239 40.6054449,49.3836479 C41.6277964,48.6132076 42.2119972,47.2264152 41.9198968,45.8396227 L39.5830935,32.7421384 L48.7842566,23.6509434 C49.9526583,22.7264151 50.2447587,21.1855346 49.8066081,19.9528302 L49.8066081,19.9528302 Z" id="路径"></path>
            </g>
        </g>
    </g>
</svg>