<?xml version="1.0" encoding="UTF-8"?>
<svg width="44px" height="44px" viewBox="0 0 44 44" version="1.1" xmlns="http://www.w3.org/2000/svg" xmlns:xlink="http://www.w3.org/1999/xlink">
    <!-- Generator: Sketch 58 (84663) - https://sketch.com -->
    <title>矩形</title>
    <desc>Created with Sketch.</desc>
    <g id="首页" stroke="none" stroke-width="1" fill="none" fill-rule="evenodd">
        <g id="2.1-快捷功能-(Quick-Menu)" transform="translate(-470.000000, -435.000000)">
            <g id="反馈:60/气泡菜单Popovers:5/带icon/选项个数:4项" transform="translate(446.000000, 120.000000)">
                <g id="PopMenu">
                    <g id="内容列表四" transform="translate(24.000000, 315.000000)">
                        <rect id="矩形" stroke="#444444" stroke-width="3" x="3" y="3" width="38" height="38" rx="6"></rect>
                        <g id="兑换" transform="translate(12.000000, 12.000000)" fill="#444444">
                            <g id="downland">
                                <path d="M14.6241563,0.439339828 L19.5739037,5.3890873 C20.1596902,5.97487373 20.1596902,6.9246212 19.5739037,7.51040764 C19.2993799,7.78493147 18.9449212,7.93080204 18.5854492,7.94801936 L1.5,7.94515964 C0.671572875,7.94515964 0,7.27358676 0,6.44515964 C0,5.61673251 0.671572875,4.94515964 1.5,4.94515964 L14.887,4.945 L12.5028359,2.56066017 C11.9170495,1.97487373 11.9170495,1.02512627 12.5028359,0.439339828 C13.0886224,-0.146446609 14.0383698,-0.146446609 14.6241563,0.439339828 Z" id="路径"></path>
                                <path d="M14.6241563,12.3844995 L19.5739037,17.3342469 C20.1596902,17.9200334 20.1596902,18.8697808 19.5739037,19.4555673 C19.2993799,19.7300911 18.9449212,19.8759617 18.5854492,19.893179 L1.5,19.8903193 C0.671572875,19.8903193 0,19.2187464 0,18.3903193 C0,17.5618921 0.671572875,16.8903193 1.5,16.8903193 L14.887,16.8901596 L12.5028359,14.5058198 C11.9170495,13.9200334 11.9170495,12.9702859 12.5028359,12.3844995 C13.0886224,11.798713 14.0383698,11.798713 14.6241563,12.3844995 Z" id="路径备份" transform="translate(10.006622, 15.919169) scale(-1, -1) translate(-10.006622, -15.919169) "></path>
                            </g>
                        </g>
                    </g>
                </g>
            </g>
        </g>
    </g>
</svg>