<?xml version="1.0" encoding="UTF-8"?>
<svg width="50px" height="50px" viewBox="0 0 50 50" version="1.1" xmlns="http://www.w3.org/2000/svg" xmlns:xlink="http://www.w3.org/1999/xlink">
    <!-- Generator: Sketch 58 (84663) - https://sketch.com -->
    <title>矩形</title>
    <desc>Created with Sketch.</desc>
    <g id="我的" stroke="none" stroke-width="1" fill="none" fill-rule="evenodd">
        <g id="5-我的-(Me---Main-DApp)" transform="translate(-36.000000, -902.000000)" fill="#E7531E" fill-rule="nonzero">
            <g id="借贷" transform="translate(36.000000, 902.000000)">
                <path d="M48.0022746,30.50163 C45.1679281,28.8993721 33.2899428,37.5419036 31.0721834,37.7145046 C31.0721834,37.7145046 26.9324743,38.8298975 21.4618925,35.6519774 C15.9907678,32.4729718 11.7761564,29.5143309 11.7761564,29.5143309 C11.7761564,29.5143309 8.02941308,27.0338706 3.64382906,29.9577742 C2.04157112,31.0281173 0.0230083839,32.1022597 0.0230083839,32.1022597 C0.0230083839,42.6005228 0.0230083839,47.8496544 0.0230083839,47.8496544 C0.0230083839,47.8496544 3.57164062,43.7826765 8.08097625,43.7826765 C12.592483,43.7826765 23.3854704,48.7370838 23.3854704,48.7370838 C23.3854704,48.7370838 27.304272,50.5857594 30.6298256,48.7370838 L49.0389659,35.1341745 C49.9475633,34.6169144 50.3242459,31.8151341 48.0022746,30.50163 Z M28.4104378,33.1384081 C37.5561173,33.1384081 44.9703596,25.7241658 44.9703596,16.5784863 C44.9703596,7.43280673 37.5561174,0.0180216818 28.4104378,0.0180216818 C19.2647582,0.0180216818 11.8510587,7.43226396 11.8510587,16.5779435 C11.8510587,25.723623 19.2647582,33.1384081 28.4104378,33.1384081 Z M22.956139,7.0512392 L28.4554877,14.3639834 L33.9575502,7.0512392 L36.9335598,7.0512392 L29.9486489,16.3364107 L34.9806723,16.3364107 C35.2330605,16.3364107 35.4365994,16.5426634 35.4365994,16.7977655 L35.4365994,17.6889943 C35.4365994,17.9430108 35.2330605,18.1487208 34.9806723,18.1487208 L29.5421139,18.1487208 L29.5421139,20.402303 L34.9806723,20.402303 C35.2330605,20.402303 35.4365994,20.608013 35.4365994,20.8636578 L35.4365994,21.7559721 C35.4365994,22.0105314 35.2330605,22.2173269 34.9806723,22.2173269 L29.5421139,22.2173269 L29.5421139,25.6508918 C29.5421139,25.9000234 29.3255485,26.1035623 29.0606766,26.1035623 L27.7574851,26.1035623 C27.4915277,26.1035623 27.2755051,25.9000234 27.2755051,25.6508918 L27.2755051,22.2173269 L21.8369467,22.2173269 C21.5867296,22.2173269 21.3815624,22.0105314 21.3815624,21.7559721 L21.3815624,20.8636578 C21.3815624,20.608013 21.5861868,20.402303 21.8369467,20.402303 L27.2755051,20.402303 L27.2755051,18.1487208 L21.8369467,18.1487208 C21.5867296,18.1487208 21.3815624,17.9430108 21.3815624,17.6889943 L21.3815624,16.7977655 C21.3815624,16.5426635 21.5861868,16.3364107 21.8369467,16.3364107 L26.9628694,16.3364107 L19.979044,7.0512392 L22.956139,7.0512392 Z" id="形状"></path>
            </g>
        </g>
    </g>
</svg>