<?xml version="1.0" encoding="UTF-8"?>
<svg width="50px" height="50px" viewBox="0 0 50 50" version="1.1" xmlns="http://www.w3.org/2000/svg" xmlns:xlink="http://www.w3.org/1999/xlink">
    <!-- Generator: Sketch 58 (84663) - https://sketch.com -->
    <title>矩形</title>
    <desc>Created with Sketch.</desc>
    <g id="我的" stroke="none" stroke-width="1" fill="none" fill-rule="evenodd">
        <g id="5-我的-(Me---Main-DApp)" transform="translate(-36.000000, -711.000000)" fill="#E7531E" fill-rule="nonzero">
            <g id="理财" transform="translate(36.000000, 711.000000)">
                <path d="M17.7468354,15.5770144 L33.3924051,15.5770144 C34.4556962,15.5770144 35.443038,15.1138784 36.1265823,14.2647956 C37.721519,12.335062 39.2405063,9.94219243 39.6202532,7.78089078 C40.3037975,3.45828759 38.4810127,1.29698595 33.2405063,1.29698599 C28,1.29698604 29.7468355,4.77050646 27.6962025,5.0792638 C26.1772152,5.31083184 26.2531645,3.22671955 23.8227848,1.29698599 C22.0759493,-0.092422172 20.1772152,3.84423433 17.8987342,3.84423428 C15.2405063,3.84423428 11.5189873,3.1495302 11.5189873,7.70370143 C11.5189873,9.55624569 13.1139241,12.0263046 14.8607595,14.1104169 C15.6202531,15.1138784 16.6835443,15.5770144 17.7468354,15.5770144 L17.7468354,15.5770144 Z M37.7703436,18.4665975 C36.8951175,17.5403254 35.6220615,17 34.3490054,17 L16.9240506,17 C15.6509946,17 14.4575045,17.463136 13.5822785,18.3894082 C8.09222421,23.9470409 3,31.8975432 3,37.7639333 C3,42.8584299 8.33092223,49.3423347 14.8553345,49.3423347 L35.1446655,49.3423347 C41.6690778,49.3423347 47,42.9356193 47,37.7639333 C46.920434,31.7431645 42.8625678,24.0242302 37.7703436,18.4665975 Z M32.8789927,24.3793104 L29.0595887,31.2758621 C28.7123701,31.8793104 29.1463933,32.6551724 29.8408304,32.6551724 L30.9692907,32.6551724 C31.4901185,32.6551724 31.9241417,33.0862069 31.9241417,33.6034483 C31.9241417,34.1206896 31.4901185,34.5517242 30.9692907,34.5517242 L28.2783469,34.5517242 C27.7575191,34.5517242 27.3234959,34.9827587 27.3234959,35.5 L27.3234959,35.9310345 C27.3234959,36.4482758 27.7575191,36.8793103 28.2783469,36.8793103 L31.0560953,36.8793103 C31.5769231,36.8793103 32.0109464,37.3103449 32.0109464,37.8275862 C32.0109464,38.3448276 31.5769231,38.7758621 31.0560953,38.7758621 L28.2783469,38.7758621 C27.7575191,38.7758621 27.3234959,39.2068966 27.3234959,39.7241379 L27.3234959,42.0517241 C27.3234959,42.5689655 26.8894727,43 26.3686449,43 L24.7193568,43 C24.198529,43 23.7645058,42.5689655 23.7645058,42.0517241 L23.7645058,39.7241379 C23.7645058,39.2068966 23.3304826,38.7758621 22.8096548,38.7758621 L20.0319063,38.7758621 C19.5110785,38.7758621 19.0770553,38.3448276 19.0770553,37.8275862 C19.0770553,37.3103449 19.5110785,36.8793103 20.0319063,36.8793103 L22.8096548,36.8793103 C23.3304826,36.8793103 23.7645058,36.4482758 23.7645058,35.9310345 L23.7645058,35.5 C23.7645058,34.9827587 23.3304826,34.5517242 22.8096548,34.5517242 L20.118711,34.5517242 C19.5978832,34.5517242 19.16386,34.1206896 19.16386,33.6034483 C19.16386,33.0862069 19.5978832,32.6551724 20.118711,32.6551724 L21.1603666,32.6551724 C21.8548037,32.6551724 22.2888269,31.8793104 21.9416084,31.2758621 L18.1222044,24.3793104 C17.7749858,23.7758621 18.209009,23 18.9034461,23 L20.7263435,23 C21.0735621,23 21.4207806,23.1724138 21.5075852,23.5172414 L24.6325521,29.724138 C24.9797707,30.4137931 25.9346217,30.4137931 26.2818402,29.724138 L29.4068072,23.5172414 C29.5804165,23.1724138 29.8408304,23 30.188049,23 L32.0109464,23 C32.7921881,23 33.2262113,23.7758621 32.8789927,24.3793104 L32.8789927,24.3793104 Z" id="形状"></path>
            </g>
        </g>
    </g>
</svg>