<?xml version="1.0" encoding="UTF-8"?>
<svg width="66px" height="66px" viewBox="0 0 66 66" version="1.1" xmlns="http://www.w3.org/2000/svg" xmlns:xlink="http://www.w3.org/1999/xlink">
    <!-- Generator: Sketch 58 (84663) - https://sketch.com -->
    <title>矩形</title>
    <desc>Created with Sketch.</desc>
    <g id="我的" stroke="none" stroke-width="1" fill="none" fill-rule="evenodd">
        <g id="4-我的" transform="translate(-574.000000, -356.000000)">
            <g id="兑换中心" transform="translate(574.000000, 356.000000)">
                <g id="分组">
                    <rect id="矩形" stroke="#333333" stroke-width="6" x="4" y="4" width="58" height="58" rx="12"></rect>
                    <path d="M37.7589885,23.0736306 L35.8066782,21.1213203 C34.6351053,19.9497475 34.6351053,18.0502525 35.8066782,16.8786797 C36.9782511,15.7071068 38.877746,15.7071068 40.0493189,16.8786797 L47.1203867,23.9497475 C47.4257646,24.2551254 47.6515439,24.6099596 47.7977244,24.9884679 C47.9283467,25.324997 48,25.690946 48,26.0736306 C48,27.7304848 46.6568542,29.0736306 45,29.0736306 L21,29.0736306 C19.3431458,29.0736306 18,27.7304848 18,26.0736306 C18,24.4167763 19.3431458,23.0736306 21,23.0736306 L37.7589885,23.0736306 Z" id="路径" fill="#333333"></path>
                    <path d="M37.7589885,43.0736306 L35.8066782,41.1213203 C34.6351053,39.9497475 34.6351053,38.0502525 35.8066782,36.8786797 C36.9782511,35.7071068 38.877746,35.7071068 40.0493189,36.8786797 L47.1203867,43.9497475 C47.4257646,44.2551254 47.6515439,44.6099596 47.7977244,44.9884679 C47.9283467,45.324997 48,45.690946 48,46.0736306 C48,47.7304848 46.6568542,49.0736306 45,49.0736306 L21,49.0736306 C19.3431458,49.0736306 18,47.7304848 18,46.0736306 C18,44.4167763 19.3431458,43.0736306 21,43.0736306 L37.7589885,43.0736306 Z" id="路径-copy" fill="#333333" transform="translate(33.000000, 42.536815) scale(-1, -1) translate(-33.000000, -42.536815) "></path>
                </g>
            </g>
        </g>
    </g>
</svg>