<?xml version="1.0" encoding="UTF-8"?>
<svg width="50px" height="50px" viewBox="0 0 50 50" version="1.1" xmlns="http://www.w3.org/2000/svg" xmlns:xlink="http://www.w3.org/1999/xlink">
    <!-- Generator: Sketch 58 (84663) - https://sketch.com -->
    <title>矩形</title>
    <desc>Created with Sketch.</desc>
    <g id="我的" stroke="none" stroke-width="1" fill="none" fill-rule="evenodd">
        <g id="5-我的-(Me---Main-DApp)" transform="translate(-36.000000, -1110.000000)" fill-rule="nonzero">
            <g id="订单" transform="translate(36.000000, 1110.000000)">
                <g id="编组" transform="translate(7.000000, 1.000000)">
                    <path d="M31.7647059,4 C34.1047059,4 36,6.31647061 36,9.17647057 L36,42.8235294 C36,45.6705882 34.1047059,48 31.7647059,48 L4.2352941,48 C1.89529409,48 0,45.6835294 0,42.8235294 L0,9.17647057 C0,6.31647055 1.89529414,4 4.2352941,4 L8.10416665,4 C8.10416665,6.14303029 9.78732553,7.89112948 11.9044527,7.99510699 L12.1041667,8 L24.1041667,8 C26.2471969,8 27.9952961,6.31684117 28.0992736,4.19971395 L28.1041667,4 L31.7647059,4 Z" id="路径" fill="#1777FE"></path>
                    <path d="M22.8,6 L13.2,6 C11.432,6 10,4.65749999 10,3 C10,1.34250004 11.432,0 13.2,0 L22.8,0 C24.568,0 26,1.34250001 26,3 C26,4.65750003 24.568,6 22.8,6 Z" id="路径备份" fill="#1777FE"></path>
                    <path d="M17.5845833,20 L8.14458335,20 C6.88458335,20 5.86458335,19.184 5.86458335,18.176 L5.86458335,17.824 C5.86458335,16.816 6.88458335,16 8.14458335,16 L17.5845833,16 C18.8445833,16 19.8645833,16.816 19.8645833,17.824 L19.8645833,18.176 C19.858022,19.1811851 18.8410647,19.9947509 17.5845833,20 L17.5845833,20 Z M23.5757277,29 L8.15343891,29 C6.88933889,29 5.86458335,28.1814228 5.86458335,27.1716567 L5.86458335,26.8283433 C5.86458335,26.3434365 6.10572992,25.8783903 6.5349736,25.5355094 C6.96421729,25.1926285 7.54639666,25 8.15343891,25 L23.5757277,25 C24.18277,25 24.7649494,25.1926285 25.1941931,25.5355094 C25.6234368,25.8783902 25.8645833,26.3434365 25.8645833,26.8283433 L25.8645833,27.1716567 C25.8645833,27.6565635 25.6234368,28.1216098 25.1941931,28.4644907 C24.7649494,28.8073715 24.18277,29 23.5757277,29 L23.5757277,29 Z" id="形状" fill="#FFFFFF"></path>
                </g>
            </g>
        </g>
    </g>
</svg>