<?xml version="1.0" encoding="UTF-8"?>
<svg width="50px" height="50px" viewBox="0 0 50 50" version="1.1" xmlns="http://www.w3.org/2000/svg" xmlns:xlink="http://www.w3.org/1999/xlink">
    <!-- Generator: Sketch 58 (84663) - https://sketch.com -->
    <title>矩形</title>
    <desc>Created with Sketch.</desc>
    <g id="我的" stroke="none" stroke-width="1" fill="none" fill-rule="evenodd">
        <g id="5-我的-(Me---Main-DApp)" transform="translate(-36.000000, -806.000000)" fill="#FE7935" fill-rule="nonzero">
            <g id="红包" transform="translate(36.000000, 806.000000)">
                <path d="M6.07527986,12.8580716 L6.07527986,48.0016672 C6.07527986,49.1065073 6.93162417,50.0000582 7.98983591,50.0000582 L42.0102401,50.0000582 C43.065296,50.0000582 43.9247961,49.1065073 43.9247961,48.0016672 L43.9247961,12.8580716 C39.5035024,16.1274309 32.7300392,18.1903532 25.0000475,18.1903532 C17.2700559,18.1903532 10.4965975,16.1274455 6.07527986,12.8580716 L6.07527986,12.8580716 Z M42.0102305,-2.44140911e-05 C43.0652864,-2.44140911e-05 43.9247866,0.893550844 43.9247866,1.99516345 L43.9247866,7.90161564 C40.6807663,11.6959755 33.326914,14.4185666 25.000038,14.4185666 C16.673162,14.4185666 9.31613953,11.6959804 6.07528941,7.90322697 L6.07528941,1.99433338 C6.07528941,0.89352643 6.93163372,-2.44140911e-05 7.98984546,-2.44140911e-05 L42.0102496,-2.44140911e-05 L42.0102305,-2.44140911e-05 Z M29.7414923,31.3492064 L29.7414923,31.3500128 L32.2837175,31.3500128 C32.5297392,31.3484 32.7647198,31.4604969 32.9200615,31.6540454 C33.0935385,31.8580779 33.1818542,32.0604976 33.1818542,32.2629182 L33.1818542,34.0927592 C33.1818542,34.4475985 32.9326781,34.6266319 32.4327505,34.6266319 L28.0224949,34.6266319 C27.8222078,34.6266319 27.635326,34.6774386 27.460272,34.7790515 L27.460272,34.7790515 C27.2938734,34.8660292 27.1917919,35.0437008 27.1984798,35.2346971 C27.1984798,35.4363101 27.2110963,35.6540526 27.2363293,35.8822808 C27.2607737,36.11212 27.2733902,36.3016363 27.2733902,36.4548645 C27.2733902,36.7588971 27.5233546,36.8597039 28.022494,36.7588971 L32.3594161,36.7588971 C32.8561927,36.7588971 33.1061566,36.9879296 33.1061566,37.4443813 L33.1061566,39.1218002 C33.1061566,39.6290567 32.7576257,39.8830902 32.0605633,39.8830902 L31.0875158,39.8830902 C30.6877302,39.8830902 30.2776923,39.8959934 29.8534662,39.9209935 C29.4292362,39.9467999 29.0444353,39.9605096 28.6951133,39.9605097 L28.0217062,39.9605097 C27.5730317,39.9605097 27.3490869,40.213736 27.3490869,40.7201883 L27.3490869,43.7685805 C27.3490869,44.0234197 27.1503773,44.1500326 26.7513814,44.1500326 L24.3573986,44.1500326 C23.7108041,44.1500326 23.3875068,43.8685806 23.3875068,43.3113207 C23.3875068,43.1080949 23.3993348,42.6758366 23.4245678,42.0161581 C23.4490123,41.3556739 23.4363958,40.8984126 23.3867183,40.644384 C23.3867183,40.3911576 23.3614853,40.2250285 23.3118079,40.1492223 C23.2621303,40.0734156 23.1123095,40.0355127 22.8623452,40.0355127 L18.3763882,40.0355127 C17.7297937,40.0355127 17.4049161,39.7032545 17.4049161,39.0451893 C17.4049161,38.891963 17.3796831,38.7008339 17.3300057,38.4717999 L17.3300057,38.4718 C17.2800244,38.2339232 17.2800244,37.9879015 17.3300057,37.7500267 C17.3781059,37.4951875 17.4530168,37.266155 17.5531599,37.0645425 C17.6533034,36.8613167 17.8528019,36.7822839 18.1524457,36.8363166 L23.1611755,36.8363166 C23.2605304,36.8363166 23.3109967,36.7080904 23.3109967,36.4532517 L23.3109967,35.005667 C23.3109967,34.7524407 23.0121435,34.6258277 22.4144384,34.6258277 L18.078304,34.6258277 C17.8788056,34.6258277 17.7037517,34.6129245 17.5547197,34.587118 C17.4048984,34.5629244 17.3299881,34.4226017 17.3299881,34.1677626 L17.3299881,33.2532449 C17.3299881,32.8475994 17.3047551,32.541955 17.2550777,32.3387272 C17.1549341,32.033888 17.2298447,31.7806602 17.4798093,31.5782429 C17.7274079,31.3742105 18.0522826,31.2734037 18.4512813,31.2734037 L18.4512808,31.2734037 C18.8856801,31.3251327 19.3236764,31.3378158 19.7602441,31.311307 L19.7602434,31.3113071 C20.1210372,31.2897006 20.4822911,31.2770625 20.8436874,31.2734037 L21.739458,31.2734037 C22.0390999,31.2734037 22.1400317,31.170178 22.0390999,30.9677584 C21.9405333,30.8669516 21.6424688,30.4854995 21.1433294,29.8258234 C20.6441895,29.1645336 20.1221806,28.4790494 19.573364,27.7693709 L19.5733662,27.7693738 C18.8491987,26.8099195 18.1011644,25.8695571 17.3299938,24.9492094 C16.9806742,24.3911423 17.055585,23.9330802 17.5547254,23.578241 L17.5547254,23.5782409 C17.8289772,23.4070786 18.0906753,23.2157117 18.3377363,23.0056573 L18.3377367,23.005657 C18.6316991,22.7639536 18.9447712,22.5476193 19.2737213,22.3588838 C19.7728612,22.0540445 20.2444056,22.3338837 20.693864,23.1975957 C20.8436852,23.3992087 21.1291331,23.7677575 21.5533641,24.3024358 C21.9768054,24.8346923 22.4128642,25.4064703 22.8623274,26.0161488 L22.862326,26.0161468 C23.2714453,26.5738379 23.6950375,27.1202692 24.1326508,27.6548596 C24.5324363,28.1371185 24.7555886,28.4290549 24.8052701,28.5306663 C24.9054136,28.733086 25.0922955,28.8596989 25.367493,28.9105056 C25.6403248,28.9613123 25.8279953,28.8855056 25.9273526,28.6830859 C25.9770302,28.5798602 26.1891447,28.2621177 26.5636966,27.7314735 C26.938249,27.1976008 27.3474953,26.5992163 27.7969585,25.9411491 C28.2464212,25.2782431 28.6674968,24.6556642 29.0664955,24.0734028 C29.4662811,23.4895301 29.7162459,23.1201742 29.8155993,22.9685627 C30.0655636,22.6121106 30.2776786,22.3838843 30.4519433,22.2830785 C30.6269973,22.1814656 30.911657,22.2072717 31.3106557,22.3588852 L31.3106558,22.3588852 C31.599429,22.482339 31.8750223,22.6358343 32.1330929,22.8169502 C32.4327349,23.0185633 32.6322329,23.1717895 32.7323788,23.2734024 C33.2811954,23.8314695 33.4294425,24.3153372 33.1818415,24.7201766 C33.080121,24.8734023 32.8065005,25.252433 32.3586166,25.862922 C31.9091539,26.4734061 31.4242075,27.1209899 30.8998354,27.8056684 L30.8998342,27.80567 C30.412124,28.4425116 29.9388799,29.0908082 29.4804792,29.7500277 C29.057038,30.3580948 28.8196907,30.7137398 28.770014,30.8169626 C28.6194045,31.0701884 28.6832758,31.2226081 28.9545301,31.2734148 C29.2289389,31.3234148 29.490733,31.3492215 29.7406969,31.3492215 L29.7414923,31.3492064 Z" id="形状"></path>
            </g>
        </g>
    </g>
</svg>