<?xml version="1.0" encoding="UTF-8"?>
<svg width="36px" height="36px" viewBox="0 0 36 36" version="1.1" xmlns="http://www.w3.org/2000/svg" xmlns:xlink="http://www.w3.org/1999/xlink">
    <!-- Generator: Sketch 58 (84663) - https://sketch.com -->
    <title>矩形</title>
    <desc>Created with Sketch.</desc>
    <g id="社交" stroke="none" stroke-width="1" fill="none" fill-rule="evenodd">
        <g id="4.2.1-我的二维码" transform="translate(-419.000000, -282.000000)" fill-rule="nonzero">
            <g id="二维码" transform="translate(36.000000, 219.000000)">
                <g id="编组" transform="translate(383.000000, 63.000000)">
                    <rect id="矩形" fill="#000000" opacity="0" x="0" y="0" width="36" height="36"></rect>
                    <path d="M29.1401367,26.9176289 C22.4197031,26.3248945 22.0204336,23.2992773 22.0204336,23.2992773 L22.0204336,20.2759453 C25.9458398,18.7620117 27.1448086,12.9740273 27.1448086,12.9740273 C27.1448086,10.6728047 26.0144297,10.6086797 26.0144297,10.6086797 L26.0144297,6.85873828 C26.2776094,0.609609375 22.4872031,2.05604297 22.4197031,2.05604297 C22.3567383,2.05604297 20.2939453,0.411644531 20.2939453,0.411644531 C18.8261367,-0.706324219 15.5654648,0.807574219 15.5654648,0.807574219 L15.4305,0.809824219 C11.7413086,0.906539062 10.7762695,3.56885156 10.7762695,3.56885156 L10.8437695,10.4748398 C8.91706641,10.4748398 9.17912109,13.1719922 9.17912109,13.1719922 C9.17912109,16.1301094 14.3687461,20.2084453 14.3687461,20.2084453 C14.7016758,24.0922266 12.6399727,26.0605547 12.6399727,26.0605547 C12.6399727,26.0605547 9.11499609,26.1910195 5.12216016,27.3765234 C5.02653516,27.4068633 4.93428516,27.4327734 4.84207031,27.4631133 C1.07637891,28.737457 9.9475983e-14,32.3738086 9.9475983e-14,32.3738086 L9.9475983e-14,35.92575 L16.2976992,35.992125 L18.7046719,35.924625 L35.992125,35.924625 L35.992125,33.1611328 C36.059625,29.0895117 29.1401367,26.9176289 29.1401367,26.9176289 Z M20.5391602,31.4605195 L18.0342773,35.98425 L15.5868398,31.4604844 L15.0199805,29.2087266 L16.0985742,24.4150313 L20.0239805,24.4150313 L21.0497695,29.2087266 L20.539125,31.4604844 L20.5391602,31.4605195 Z" id="形状" fill="#0966C3"></path>
                </g>
            </g>
        </g>
    </g>
</svg>