<?xml version="1.0" encoding="UTF-8"?>
<svg width="40px" height="40px" viewBox="0 0 40 40" version="1.1" xmlns="http://www.w3.org/2000/svg" xmlns:xlink="http://www.w3.org/1999/xlink">
    <!-- Generator: Sketch 52.4 (67378) - http://www.bohemiancoding.com/sketch -->
    <title>矩形</title>
    <desc>Created with Sketch.</desc>
    <g id="Page-1" stroke="none" stroke-width="1" fill="none" fill-rule="evenodd">
        <g id="V1.1图标规范" transform="translate(-510.000000, -332.000000)">
            <g id="在线客服" transform="translate(510.000000, 332.000000)">
                <rect id="矩形" fill="#000000" opacity="0" x="0" y="0" width="40" height="40"></rect>
                <polygon id="路径" fill="#FE9339" points="8.4453125 7.7421875 30.9257812 7.7421875 30.9257812 21.3671875 8.4453125 21.3671875"></polygon>
                <polygon id="路径" fill="#FE9339" points="18.4453125 34.3945312 18.421875 29.28125 30.4804687 29.28125 30.4804687 8.2734375 9.4765625 8.2734375 9.4765625 27.9648438 6.8984375 27.9648438 6.8984375 5.6953125 33.0585938 5.6953125 33.0585938 31.859375 21.0117187 31.859375 21.0234375 34.3789062"></polygon>
                <path d="M3.171875,20.6640625 L7.2109375,20.6640625 L7.2109375,27.96875 L3.171875,27.96875 L3.171875,20.6640625 Z M32.890625,20.7382812 L36.9296875,20.7382812 L36.9296875,28.0429688 L32.890625,28.0429688 L32.890625,20.7382812 Z" id="形状" fill="#FE9339" fill-rule="nonzero"></path>
                <path d="M19.84375,20.1601562 C18.1210938,20.1601562 16.5585938,19.4335938 15.3242188,18.0546875 C14.4492188,17.078125 14.0429687,16.109375 14,16 L16.390625,15.03125 L16.3867188,15.0234375 C16.390625,15.03125 16.6835938,15.7226562 17.2929688,16.3828125 C18.0234375,17.1757812 18.8828125,17.578125 19.84375,17.578125 C20.8007812,17.578125 21.6757812,17.15625 22.4375,16.3203125 C23.03125,15.6679688 23.3359375,15.0078125 23.3359375,15 L25.6992188,16.0273438 C25.6523438,16.1328125 25.2226562,17.0898438 24.3359375,18.0625 C23.0859375,19.4335938 21.53125,20.1601563 19.84375,20.1601563 Z" id="路径" fill="#FFFFFF"></path>
            </g>
        </g>
    </g>
</svg>