<?xml version="1.0" encoding="UTF-8"?>
<svg width="40px" height="40px" viewBox="0 0 40 40" version="1.1" xmlns="http://www.w3.org/2000/svg" xmlns:xlink="http://www.w3.org/1999/xlink">
    <!-- Generator: Sketch 52.4 (67378) - http://www.bohemiancoding.com/sketch -->
    <title>矩形</title>
    <desc>Created with Sketch.</desc>
    <g id="Page-1" stroke="none" stroke-width="1" fill="none" fill-rule="evenodd">
        <g id="V1.1图标规范" transform="translate(-339.000000, -332.000000)">
            <g id="收藏" transform="translate(339.000000, 332.000000)">
                <rect id="矩形" fill="#000000" opacity="0" x="0" y="0" width="40" height="40"></rect>
                <path d="M36.8725477,13.0346861 C36.4061164,10.2053708 34.8267663,7.97035354 32.1780676,6.39160674 C30.6569837,5.48425721 28.9450693,5.00446609 27.2280265,5.00446609 C25.0352005,5.00446609 22.9554591,5.80687612 21.3717994,7.26396207 C20.8810618,7.71539582 20.4324724,8.20902086 20.0000441,8.68937223 C18.6550085,7.04955797 17.2806675,6.03610535 15.6880006,5.50524511 C12.892128,4.57393404 10.1080208,4.9333141 7.54866074,6.55696725 C4.50640665,8.48669033 2.97631557,11.2186942 3.00027711,14.6777757 C3.01380935,16.7146362 3.69210204,18.6476777 5.07338159,20.5861924 C6.55641151,22.6691659 8.3810658,24.7898487 10.8152311,27.2604304 C12.4536663,28.9234735 14.1509279,30.5766046 15.7920351,32.1764254 L17.3938815,33.7390973 C17.5366595,33.8791172 17.6820664,34.0168099 17.8281198,34.1540716 L18.0091674,34.3221903 C18.349542,34.6059363 19.0603723,35.0824521 19.9912955,35.0824521 C20.7620298,35.0824521 21.4928569,34.7664701 22.1702445,34.1383846 C24.9556447,31.5151127 27.9236439,28.6654129 30.7485633,25.6034207 C32.2112518,24.0174768 33.8860602,22.1526998 35.2498858,20.0831293 C36.7270546,17.8402685 37.2735157,15.4685928 36.8725908,13.0346861" id="形状" fill="#FE9339" fill-rule="nonzero"></path>
                <path d="M14.4543259,10.3842205 C13.822965,10.0921568 13.1463962,9.94498297 12.4447453,9.94498297 C9.79423662,9.94498297 7.63748222,12.1017805 7.63748222,14.7516858 C7.63748222,15.7023902 7.91459144,16.6208586 8.43812531,17.4093485 C8.6024946,17.6559456 8.87326866,17.7897596 9.1489557,17.7897596 C9.31112708,17.7897596 9.47541018,17.7436465 9.62038614,17.6469815 C10.0126918,17.3866368 10.1196137,16.856854 9.85870868,16.4647207 C9.52130774,15.9571325 9.34336311,15.3646876 9.34336311,14.7516858 C9.34336311,13.0414091 10.7343393,11.6508639 12.4447453,11.6508639 C12.8978598,11.6508639 13.3328739,11.7452017 13.7388842,11.932412 C14.1654083,12.1312152 14.6736429,11.9446513 14.870593,11.5160586 C15.0685343,11.088414 14.8819705,10.581343 14.4543259,10.3842205" id="路径" fill="#FFFFFF" fill-rule="nonzero"></path>
            </g>
        </g>
    </g>
</svg>