<?xml version="1.0" encoding="UTF-8"?>
<svg width="40px" height="40px" viewBox="0 0 40 40" version="1.1" xmlns="http://www.w3.org/2000/svg" xmlns:xlink="http://www.w3.org/1999/xlink">
    <!-- Generator: Sketch 52.4 (67378) - http://www.bohemiancoding.com/sketch -->
    <title>矩形</title>
    <desc>Created with Sketch.</desc>
    <g id="Page-1" stroke="none" stroke-width="1" fill="none" fill-rule="evenodd">
        <g id="V1.1图标规范" transform="translate(-595.000000, -332.000000)">
            <g id="帮助" transform="translate(595.000000, 332.000000)">
                <rect id="矩形" fill="#000000" opacity="0" x="0" y="0" width="40" height="40"></rect>
                <path d="M20.0272415,2.47831969 C10.3577574,2.47831969 2.51911203,10.3162056 2.51911203,19.9864492 C2.51911203,29.6552138 10.3577574,37.4945787 20.0272415,37.4945787 C29.6967256,37.4945787 37.535371,29.6552138 37.535371,19.9864492 C37.535371,10.3162056 29.6967256,2.47831969 20.0272415,2.47831969 Z M19.9604868,28.7163303 C18.9624035,28.7163303 18.153472,27.8842545 18.153472,26.85839 C18.153472,25.8325255 18.9624035,25.0004497 19.9604868,25.0004497 C20.9589698,25.0004497 21.7679014,25.8325255 21.7679014,26.85839 C21.7679014,27.8842545 20.9589298,28.7163303 19.9604868,28.7163303 Z M25.0082644,17.0399269 C24.7589135,17.5200814 24.4625544,17.9332812 24.119547,18.2809255 C23.7765395,18.6300088 23.1602773,19.2156118 22.2719196,20.0405725 C22.0261663,20.272815 21.8291798,20.4765569 21.6813201,20.6532371 C21.5331805,20.8285182 21.4227354,20.9894891 21.3507442,21.1362696 C21.2777537,21.2815711 21.2221514,21.4283515 21.1826582,21.573653 C21.143085,21.7203935 21.0832855,21.9768596 21.0037795,22.3444904 C20.8663526,23.123802 20.4364041,23.5128582 19.7136541,23.5128582 C19.3381887,23.5128582 19.0219231,23.3859843 18.7657768,23.1309971 C18.5089909,22.8759301 18.3810776,22.4983861 18.3810776,21.9954071 C18.3810776,21.3670331 18.4747741,20.8213631 18.6624868,20.3611551 C18.8505593,19.8995081 19.0995505,19.4948624 19.4105396,19.1472181 C19.7214888,18.7995738 20.1404048,18.384935 20.6675674,17.9047805 C21.1298939,17.4858645 21.4643871,17.169559 21.6699278,16.9558239 C21.8764677,16.7421288 22.0496304,16.5041701 22.1903749,16.2420279 C22.3313993,15.9798456 22.4019115,15.6948788 22.4019115,15.3885665 C22.4019115,14.7887332 22.1867374,14.2828761 21.7572286,13.8711553 C21.3268804,13.4593945 20.7726561,13.2527745 20.0933967,13.2527745 C19.2982957,13.2527745 18.7130925,13.4607935 18.3376271,13.8768314 C17.9618419,14.2928693 17.6440973,14.9040949 17.3837139,15.7148252 C17.1379605,16.5611714 16.6719964,16.9843245 15.9856218,16.9843245 C15.5813359,16.9843245 15.2394077,16.836145 14.9615161,16.5397859 C14.6833447,16.2434269 14.5443989,15.9228442 14.5443989,15.579477 C14.5443989,14.86708 14.7645296,14.1460889 15.2051509,13.4151844 C15.6457721,12.685679 16.2894158,12.0801696 17.1346827,11.6014141 C17.9796298,11.1212197 18.9662809,10.881862 20.0933567,10.881862 C21.1412462,10.881862 22.0656195,11.0827658 22.8677957,11.4831343 C23.6699318,11.8835029 24.2893918,12.4292129 24.7264155,13.1173863 C25.1635191,13.8069988 25.3822109,14.5564107 25.3822109,15.365742 C25.3822508,16.0026702 25.2575754,16.5612115 25.0082644,17.0399269 Z" id="形状" fill="#FE9339" fill-rule="nonzero"></path>
            </g>
        </g>
    </g>
</svg>