<?xml version="1.0" encoding="UTF-8"?>
<svg width="40px" height="40px" viewBox="0 0 40 40" version="1.1" xmlns="http://www.w3.org/2000/svg" xmlns:xlink="http://www.w3.org/1999/xlink">
    <!-- Generator: Sketch 52.4 (67378) - http://www.bohemiancoding.com/sketch -->
    <title>矩形</title>
    <desc>Created with Sketch.</desc>
    <g id="Page-1" stroke="none" stroke-width="1" fill="none" fill-rule="evenodd">
        <g id="V1.1图标规范" transform="translate(-425.000000, -332.000000)">
            <g id="设-置" transform="translate(425.000000, 332.000000)">
                <rect id="矩形" fill="#000000" opacity="0" x="0" y="0" width="40" height="40"></rect>
                <path d="M34.4140625,20 C34.4140625,17.953125 35.6992188,16.21875 37.5,15.5273438 C37.0703125,13.8398438 36.40625,12.25 35.5390625,10.7890625 C33.7734375,11.5742188 31.640625,11.2539063 30.1953125,9.8046875 C28.75,8.359375 28.4296875,6.22265625 29.2148438,4.4609375 C27.75,3.59375 26.1601563,2.9296875 24.4726562,2.5 C23.7773438,4.30078125 22.0429687,5.5859375 20,5.5859375 C17.953125,5.5859375 16.21875,4.30078125 15.5273438,2.5 C13.8398438,2.9296875 12.25,3.59375 10.7890625,4.4609375 C11.5742188,6.2265625 11.2539062,8.359375 9.80859375,9.8046875 C8.36328125,11.25 6.2265625,11.5703125 4.46484375,10.7890625 C3.59375,12.25 2.9296875,13.8398438 2.5,15.5273438 C4.30078125,16.2226562 5.5859375,17.9570312 5.5859375,20 C5.5859375,22.046875 4.30078125,23.78125 2.5,24.4726562 C2.9296875,26.1601563 3.59375,27.75 4.4609375,29.2109375 C6.2265625,28.4257812 8.359375,28.7460938 9.8046875,30.1953125 C11.25,31.640625 11.5703125,33.7773438 10.7851563,35.5390625 C12.25,36.40625 13.8398438,37.0703125 15.5273438,37.5 C16.2226562,35.6992188 17.9570312,34.4140625 20,34.4140625 C22.046875,34.4140625 23.78125,35.6992188 24.4726562,37.5 C26.1601563,37.0703125 27.75,36.40625 29.2109375,35.5390625 C28.4257812,33.7734375 28.7460938,31.640625 30.1914062,30.1953125 C31.6367187,28.75 33.7734375,28.4296875 35.5351562,29.2109375 C36.40625,27.75 37.0703125,26.1601563 37.5,24.4726562 C35.6992188,23.78125 34.4140625,22.046875 34.4140625,20 Z M20,24.8046875 C17.3476562,24.8046875 15.1953125,22.6523438 15.1953125,20 C15.1953125,17.3476562 17.3476562,15.1953125 20,15.1953125 C22.6523438,15.1953125 24.8046875,17.3476562 24.8046875,20 C24.8046875,22.6523438 22.6523438,24.8046875 20,24.8046875 Z" id="形状" fill="#FE9339" fill-rule="nonzero"></path>
            </g>
        </g>
    </g>
</svg>