<?xml version="1.0" encoding="UTF-8"?>
<svg width="40px" height="40px" viewBox="0 0 40 40" version="1.1" xmlns="http://www.w3.org/2000/svg" xmlns:xlink="http://www.w3.org/1999/xlink">
    <!-- Generator: Sketch 52.4 (67378) - http://www.bohemiancoding.com/sketch -->
    <title>矩形</title>
    <desc>Created with Sketch.</desc>
    <g id="Page-1" stroke="none" stroke-width="1" fill="none" fill-rule="evenodd">
        <g id="V1.1图标规范" transform="translate(-254.000000, -332.000000)">
            <g id="会员" transform="translate(254.000000, 332.000000)">
                <rect id="矩形" fill="#000000" opacity="0" x="0" y="0" width="40" height="40"></rect>
                <path d="M38.6914063,15.5273438 C38.6367188,15.3476563 38.5546875,15.1757813 38.4335938,15.0195312 L31.1328125,5.33203125 C30.8164063,4.9140625 30.3320313,4.69140625 29.84375,4.6953125 L10.21875,4.6953125 C9.6171875,4.6953125 9.09375,5.02734375 8.8203125,5.51953125 L1.62890625,15.0625 C1.51171875,15.21875 1.42578125,15.3945313 1.37109375,15.5703125 C1.1953125,16.1015625 1.30078125,16.7070313 1.703125,17.1523438 L18.6523438,35.8515625 C18.7265625,35.96875 18.8164062,36.0742188 18.9257812,36.171875 C19.0078125,36.2460938 19.09375,36.3085938 19.1835938,36.3632812 C19.78125,36.7617188 20.5898438,36.71875 21.1445313,36.21875 C21.3164063,36.0625 21.4453125,35.8789062 21.53125,35.6835938 L38.3632813,17.109375 C38.7617188,16.6640625 38.8710938,16.0585938 38.6914063,15.5273438 Z" id="路径" fill="#FE9339"></path>
                <path d="M21.375,27.8359375 C22.03125,27.2421875 22.078125,26.2304688 21.484375,25.578125 L13.3867187,16.640625 C12.7929687,15.984375 11.78125,15.9375 11.1289062,16.53125 C10.4726562,17.125 10.4257812,18.1367187 11.0195312,18.7890625 L19.1210937,27.7265625 C19.7109375,28.3789062 20.7226562,28.4296875 21.375,27.8359375 Z" id="路径" fill="#FFFFFF"></path>
                <path d="M19.2265625,27.8359375 C18.5703125,27.2421875 18.5234375,26.2304688 19.1171875,25.578125 L27.2148437,16.640625 C27.8085937,15.984375 28.8203125,15.9375 29.4726562,16.53125 C30.1289062,17.125 30.1757812,18.1367187 29.5820312,18.7890625 L21.484375,27.7265625 C20.890625,28.3789062 19.8789062,28.4296875 19.2265625,27.8359375 Z" id="路径" fill="#FFFFFF"></path>
            </g>
        </g>
    </g>
</svg>