<?xml version="1.0" encoding="UTF-8"?>
<svg width="120px" height="120px" viewBox="0 0 120 120" version="1.1" xmlns="http://www.w3.org/2000/svg" xmlns:xlink="http://www.w3.org/1999/xlink">
    <!-- Generator: Sketch 52.4 (67378) - http://www.bohemiancoding.com/sketch -->
    <title>分组3</title>
    <desc>Created with Sketch.</desc>
    <g id="设计规范" stroke="none" stroke-width="1" fill="none" fill-rule="evenodd">
        <g id="图标" transform="translate(-459.000000, -1041.000000)">
            <g id="分组3" transform="translate(459.000000, 1041.000000)">
                <rect id="矩形" fill="#F5F5F5" x="0" y="0" width="120" height="120" rx="46"></rect>
                <g id="shangpin" transform="translate(22.000000, 22.000000)">
                    <path d="M49.1593017,26.2478603 L49.1593017,8.17464339 C49.1593017,6.69482294 47.8492968,5.48185536 46.2239202,5.48185536 L29.7275611,5.48185536 C28.1021845,5.48185536 26.7921796,6.69482294 26.7921796,8.17464339 L26.7921796,26.2478603 M20.8971571,26.2478603 L20.8971571,8.17464339 C20.8971571,3.71092269 24.8514314,0.0720199501 29.7275611,0.0720199501 L46.2239202,0.0720199501 C51.1000499,0.0720199501 55.0543242,3.71092269 55.0543242,8.17464339 L55.0543242,26.2478603" id="形状" fill="#459C6D" fill-rule="nonzero"></path>
                    <path d="M74.3858718,22.9407481 C73.2699416,21.7035212 71.6688244,21 70.0191885,21 L5.87746283,21 C4.22782692,21 2.62670971,21.7035212 1.51077954,22.9407481 C0.394849363,24.1779751 -0.138856373,25.827611 0.0309590884,27.4772469 L4.34912368,69.8825935 C4.66449525,72.8907531 7.16320846,75.1711322 10.1956274,75.1711322 L65.7010239,75.1711322 C68.7334429,75.1711322 71.2564154,72.8907531 71.5475277,69.8825935 L75.8899516,27.4772469 C76.0597671,25.827611 75.501802,24.1779751 74.3858718,22.9407481 Z" id="形状" fill="#E6A76C" fill-rule="nonzero"></path>
                    <g id="管理1-fill" transform="translate(23.000000, 30.000000)">
                        <g id="分组">
                            <rect id="矩形" fill="#000000" opacity="0" x="0" y="0.0584225901" width="29.9123661" height="29.9123661"></rect>
                            <path d="M11.2171373,0.0584225901 L2.49269717,0.0584225901 C1.68257059,0.0584225901 0.934761441,0.432327167 0.498539445,1.05550145 C0.186952288,1.49172348 0,1.99026289 0,2.55111976 L0,11.2755599 C0,12.6465433 1.12171373,13.768257 2.49269717,13.768257 L11.2171373,13.768257 C12.5881207,13.768257 13.7098345,12.6465433 13.7098345,11.2755599 L13.7098345,2.55111976 C13.7098345,1.18013632 12.5881207,0.0584225901 11.2171373,0.0584225901 Z M11.2962816,12.2103213 L11.2962816,12.5219085 L11.2962816,12.2103213 Z M22.496592,15.0146056 C23.1197663,15.0146056 23.6806232,14.7653359 24.1168452,14.3291139 L29.2891918,9.15676729 C29.7254138,8.7205453 29.9746836,8.15968843 29.9746835,7.53651412 C29.9746835,6.91333981 29.7254138,6.35248297 29.2891918,5.91626094 L24.1168452,0.681596874 C23.2444012,-0.190847147 21.7487829,-0.190847147 20.8763389,0.681596874 L15.7039922,5.85394352 C15.2677702,6.29016552 15.0185005,6.85102239 15.0185005,7.4741967 C15.0185005,8.09737101 15.2677702,8.65822785 15.7039922,9.09444984 L20.8763389,14.2667965 C21.3125609,14.7653359 21.8734177,15.0146056 22.496592,15.0146056 Z M22.496592,2.61343721 L27.4196689,7.53651412 L22.496592,12.459591 L17.6358325,7.53651412 L22.496592,2.61343721 Z M11.2171373,16.2609542 L2.49269717,16.2609542 C1.12171373,16.2609542 0,17.382668 0,18.7536514 L0,27.4780915 C0,28.849075 1.12171373,29.9707887 2.49269717,29.9707887 L11.2171373,29.9707887 C12.5881207,29.9707887 13.7098345,28.849075 13.7098345,27.4780915 L13.7098345,18.7536514 C13.7098345,17.382668 12.5881207,16.2609542 11.2171373,16.2609542 Z M11.2962816,28.1012658 L11.2962816,28.7244401 L11.2962816,28.1012658 Z M27.4819864,16.2609542 L18.7575462,16.2609542 C17.3865628,16.2609542 16.2648491,17.382668 16.2648491,18.7536514 L16.2648491,27.4780915 C16.2648491,28.849075 17.3865628,29.9707887 18.7575462,29.9707887 L27.4819864,29.9707887 C28.8529698,29.9707887 29.9746835,28.849075 29.9746835,27.4780915 L29.9746835,18.7536514 C29.9746835,17.382668 28.8529698,16.2609542 27.4819864,16.2609542 Z" id="形状" fill="#FFFFFF" fill-rule="nonzero"></path>
                        </g>
                    </g>
                </g>
            </g>
        </g>
    </g>
</svg>