<?xml version="1.0" encoding="UTF-8"?>
<svg width="36px" height="36px" viewBox="0 0 36 36" version="1.1" xmlns="http://www.w3.org/2000/svg" xmlns:xlink="http://www.w3.org/1999/xlink">
    <!-- Generator: Sketch 52.4 (67378) - http://www.bohemiancoding.com/sketch -->
    <title>矩形</title>
    <desc>Created with Sketch.</desc>
    <g id="Page-1" stroke="none" stroke-width="1" fill="none" fill-rule="evenodd">
        <g id="4.0-我的" transform="translate(-42.000000, -594.000000)">
            <g id="一起玩商家" transform="translate(42.000000, 594.000000)">
                <rect id="矩形" fill="#000000" opacity="0" x="0" y="0" width="36" height="36"></rect>
                <path d="M7.18980469,2.44079297 L28.8244688,2.44079297 C29.6391797,2.44079297 30.2992031,3.10327734 30.2992031,3.92051953 C30.2992031,4.73762109 29.6392148,5.40007031 28.8244688,5.40007031 L7.18980469,5.40007031 C6.37509375,5.40007031 5.71457813,4.73783203 5.71457813,3.92051953 C5.71457813,3.10320703 6.37477734,2.44079297 7.18980469,2.44079297 Z" id="路径" fill="#FE9339"></path>
                <path d="M30.7409414,29.5685859 C30.7409414,30.3861445 30.0923438,31.0488398 29.2917305,31.0488398 L6.69803906,31.0488398 C5.88343359,31.0488398 5.2228125,30.3861797 5.2228125,29.5685859 L5.2228125,19.6100156 C5.54199609,19.6692891 5.87003906,19.7040234 6.20627344,19.7040234 C6.37203516,19.7040234 6.53572266,19.6951641 6.69800391,19.6799414 L6.69800391,19.6796953 C6.83922656,19.6663359 6.97774219,19.6454883 7.11594141,19.6215469 C7.1454375,19.6165898 7.17609375,19.6142695 7.20551953,19.6083633 C7.26908203,19.5965859 7.33035938,19.5785508 7.39346484,19.5642422 C7.66044141,19.5029648 7.92200391,19.4272031 8.17323047,19.3283438 L8.17323047,26.6094141 L27.8416055,26.6094141 L27.8416055,19.3283438 C28.0885781,19.4273086 28.3458164,19.5031406 28.6077656,19.5642422 C28.669957,19.5785156 28.7301445,19.5967617 28.7923711,19.6083633 C28.8214102,19.6139883 28.8513633,19.6162734 28.8806836,19.6215469 C29.016668,19.6451719 29.1524063,19.6663359 29.2917656,19.6796953 L29.2917656,19.6799414 C29.4507422,19.6951289 29.6114062,19.7040234 29.7746016,19.7040234 C30.1052109,19.7040234 30.4275937,19.6692539 30.7410117,19.6100156 L30.7410117,29.5685859 L30.7409414,29.5685859 Z" id="路径" fill="#FE9339"></path>
                <path d="M29.8078945,18.2245078 C27.6355195,18.2245078 25.8741211,16.4579063 25.8741211,14.2786406 C25.8741211,16.4578359 24.1128633,18.2245078 21.9406641,18.2245078 C19.7682891,18.2245078 18.0070664,16.4579063 18.0070664,14.2786406 C18.0070664,16.4578359 16.2458086,18.2245078 14.0734688,18.2245078 C11.9011289,18.2245078 10.1398711,16.4579063 10.1398711,14.2786406 C10.1398711,16.4578359 8.37882422,18.2245078 6.20627344,18.2245078 C4.03372266,18.2245078 2.27267578,16.4579063 2.27267578,14.2786406 L5.03873438,6.88004297 L30.9758555,6.88004297 L33.741668,14.2786406 C33.7415273,16.4578359 31.9804102,18.2245078 29.8080703,18.2245078 L29.8078945,18.2245078 Z" id="路径" fill="#FE9339"></path>
            </g>
        </g>
    </g>
</svg>