<?xml version="1.0" encoding="UTF-8"?>
<svg width="120px" height="120px" viewBox="0 0 120 120" version="1.1" xmlns="http://www.w3.org/2000/svg" xmlns:xlink="http://www.w3.org/1999/xlink">
    <!-- Generator: Sketch 52.4 (67378) - http://www.bohemiancoding.com/sketch -->
    <title>分组1</title>
    <desc>Created with Sketch.</desc>
    <g id="设计规范" stroke="none" stroke-width="1" fill="none" fill-rule="evenodd">
        <g id="图标" transform="translate(-90.000000, -1041.000000)">
            <g id="分组1" transform="translate(90.000000, 1041.000000)">
                <rect id="矩形-copy-10" fill="#F5F5F5" x="0" y="0" width="120" height="120" rx="46"></rect>
                <g id="分组-6" transform="translate(22.000000, 26.000000)">
                    <rect id="矩形" fill="#E6A76C" x="10.6875" y="21.375" width="54.625" height="47.5"></rect>
                    <path d="M24.34375,45.125 L24.34375,45.125 C26.6391835,45.125 28.5,46.9858165 28.5,49.28125 L28.5,59.375 L20.1875,59.375 L20.1875,49.28125 C20.1875,46.9858165 22.0483165,45.125 24.34375,45.125 Z" id="矩形" fill="#FFFFFF"></path>
                    <path d="M14.6221964,0 L61.3778036,-4.4408921e-15 C63.0328906,-4.74492664e-15 64.5170444,1.01931552 65.111186,2.56408368 L73.909263,25.4390837 C74.7022976,27.5009739 73.673687,29.8153477 71.6117968,30.6083824 C71.1535757,30.7846213 70.6668253,30.875 70.1758805,30.875 L5.82411947,30.875 C3.61498047,30.875 1.82411947,29.084139 1.82411947,26.875 C1.82411947,26.3840552 1.91449814,25.8973048 2.09073705,25.4390837 L10.888814,2.56408368 C11.4829556,1.01931552 12.9671094,1.19221297e-15 14.6221964,8.8817842e-16 Z" id="矩形" fill="#459C6D"></path>
                </g>
            </g>
        </g>
    </g>
</svg>