<?xml version="1.0" encoding="UTF-8"?>
<svg width="120px" height="120px" viewBox="0 0 120 120" version="1.1" xmlns="http://www.w3.org/2000/svg" xmlns:xlink="http://www.w3.org/1999/xlink">
    <!-- Generator: Sketch 52.4 (67378) - http://www.bohemiancoding.com/sketch -->
    <title>分组 2</title>
    <desc>Created with Sketch.</desc>
    <g id="设计规范" stroke="none" stroke-width="1" fill="none" fill-rule="evenodd">
        <g id="图标" transform="translate(-275.000000, -1041.000000)">
            <g id="分组-2" transform="translate(275.000000, 1041.000000)">
                <rect id="矩形-copy-9" fill="#F5F5F5" x="0" y="0" width="120" height="120" rx="46"></rect>
                <g id="shangpin-copy" transform="translate(22.000000, 22.000000)">
                    <path d="M49.1593017,26.2478603 L49.1593017,8.17464339 C49.1593017,6.69482294 47.8492968,5.48185536 46.2239202,5.48185536 L29.7275611,5.48185536 C28.1021845,5.48185536 26.7921796,6.69482294 26.7921796,8.17464339 L26.7921796,26.2478603 M20.8971571,26.2478603 L20.8971571,8.17464339 C20.8971571,3.71092269 24.8514314,0.0720199501 29.7275611,0.0720199501 L46.2239202,0.0720199501 C51.1000499,0.0720199501 55.0543242,3.71092269 55.0543242,8.17464339 L55.0543242,26.2478603" id="形状" fill="#459C6D" fill-rule="nonzero"></path>
                    <path d="M74.3858718,22.9407481 C73.2699416,21.7035212 71.6688244,21 70.0191885,21 L5.87746283,21 C4.22782692,21 2.62670971,21.7035212 1.51077954,22.9407481 C0.394849363,24.1779751 -0.138856373,25.827611 0.0309590884,27.4772469 L4.34912368,69.8825935 C4.66449525,72.8907531 7.16320846,75.1711322 10.1956274,75.1711322 L65.7010239,75.1711322 C68.7334429,75.1711322 71.2564154,72.8907531 71.5475277,69.8825935 L75.8899516,27.4772469 C76.0597671,25.827611 75.501802,24.1779751 74.3858718,22.9407481 Z" id="形状" fill="#E6A76C" fill-rule="nonzero"></path>
                    <g id="上传" transform="translate(20.000000, 29.000000)">
                        <g id="分组">
                            <rect id="矩形" fill="#000000" opacity="0" x="0" y="0" width="36" height="36"></rect>
                            <path d="M30.4253765,14.5158602 C30.0789359,8.0957462 24.7639234,2.99999995 18.2604882,3 C11.6079521,3 6.20084782,8.33255373 6.0780588,14.9543926 C2.53033186,16.2656045 4.62514617e-08,19.6817716 0,23.6899576 C0,28.8295571 4.16605759,33 9.3100424,33 C11.5334016,33 13.5725771,32.2237977 15.1732203,30.9213565 L15.1732203,22.747113 L11.024704,22.747113 L18.2604882,15.9410905 L25.4962725,22.747113 L21.3477562,22.747113 L21.3477562,30.535448 C22.7773718,31.4475954 24.4788774,31.9782196 26.3031721,31.9782196 C31.394533,31.9782196 35.5211227,27.8516299 35.5211227,22.7602689 C35.5211227,19.1511475 33.4468645,16.0287969 30.4253765,14.5158602 Z" id="路径" fill="#FFFFFF"></path>
                        </g>
                    </g>
                </g>
            </g>
        </g>
    </g>
</svg>