<?xml version="1.0" encoding="UTF-8"?>
<svg width="120px" height="120px" viewBox="0 0 120 120" version="1.1" xmlns="http://www.w3.org/2000/svg" xmlns:xlink="http://www.w3.org/1999/xlink">
    <!-- Generator: Sketch 52.4 (67378) - http://www.bohemiancoding.com/sketch -->
    <title>分组 4</title>
    <desc>Created with Sketch.</desc>
    <g id="设计规范" stroke="none" stroke-width="1" fill="none" fill-rule="evenodd">
        <g id="图标" transform="translate(-644.000000, -1041.000000)">
            <g id="分组-4" transform="translate(644.000000, 1041.000000)">
                <rect id="矩形" fill="#F5F5F5" x="0" y="0" width="120" height="120" rx="46"></rect>
                <g id="shenqing" transform="translate(22.000000, 22.000000)" fill-rule="nonzero">
                    <path d="M64.0973545,15.9137566 L43.0515873,54.5018519 C41.9417443,56.5408072 41.6906399,58.938115 42.3538918,61.162792 C43.0171436,63.3874689 44.5400087,65.2558962 46.5851852,66.3542329 C50.7571429,68.5960318 55.9544974,67.0277778 58.1912699,62.8558202 L64.0973545,51.8428572 L64.0973545,65.2936509 C64.0973545,71.2449736 59.2719577,76.065344 53.3256614,76.065344 L10.7716931,76.065344 C4.82265125,76.065344 0,71.2426927 0,65.2936509 L0,10.7716932 C0,4.82037037 4.82539677,0 10.7716931,0 L53.3256614,0 C59.2769841,0 64.0973545,4.82539677 64.0973545,10.7716932 L64.0973545,15.9137566 Z" id="形状" fill="#E6A76C"></path>
                    <path d="M15.8232804,15.2100529 C13.7218223,15.2100529 12.0182539,16.9136213 12.0182539,19.0150794 C12.0182539,21.1165375 13.7218223,22.8201059 15.8232804,22.8201059 L40.2669312,22.8201059 C42.3670012,22.8201059 44.0694444,21.1176627 44.0694444,19.0175927 C44.0694444,16.9175226 42.3670012,15.2150795 40.2669312,15.2150795 L15.818254,15.2150795 L15.8232804,15.2100529 Z" id="路径" fill="#FFFFFF"></path>
                    <path d="M15.8232804,34.2251324 C14.4638753,34.2251323 13.2077332,34.9503662 12.5280307,36.1276455 C11.8483281,37.3049248 11.8483281,38.7553928 12.5280307,39.9326721 C13.2077332,41.1099513 14.4638753,41.8351853 15.8232804,41.8351852 L28.2486773,41.8351852 C30.3487474,41.8351852 32.0511905,40.132742 32.0511905,38.032672 C32.0511905,35.9326019 30.3487474,34.2301588 28.2486773,34.2301588 L15.8232804,34.2301588 L15.8232804,34.2251324 Z" id="路径" fill="#FFFFFF"></path>
                    <path d="M15.8232804,53.2452381 C13.7232103,53.2452381 12.0207671,54.9476813 12.0207671,57.0477514 C12.0207671,59.1478215 13.7232103,60.8502646 15.8232804,60.8502646 L28.2486773,60.8502646 C30.3487474,60.8502646 32.0511906,59.1478215 32.0511906,57.0477514 C32.0511906,54.9476813 30.3487474,53.2452381 28.2486773,53.2452381 L15.8232804,53.2452381 Z" id="路径" fill="#FFFFFF"></path>
                    <path d="M73.2706349,16.1851852 C75.2259259,17.2206349 75.9648148,19.6534392 74.9293651,21.5986773 L53.6925926,61.5388889 C53.0209711,62.8031176 51.7259093,63.6130073 50.2952444,63.6634804 C48.8645794,63.7139534 47.5156635,62.9973418 46.75662,61.7835862 C45.9975766,60.5698306 45.9437225,59.0433293 46.615344,57.7791006 L67.8571429,17.8439154 C68.3555468,16.9052387 69.2065209,16.2030784 70.2227597,15.8919848 C71.2389984,15.5808913 72.3372069,15.6863632 73.2756614,16.1851852 L73.2706349,16.1851852 Z" id="路径" fill="#459C6D"></path>
                </g>
            </g>
        </g>
    </g>
</svg>