<?xml version="1.0" encoding="UTF-8"?>
<svg width="40px" height="40px" viewBox="0 0 40 40" version="1.1" xmlns="http://www.w3.org/2000/svg" xmlns:xlink="http://www.w3.org/1999/xlink">
    <!-- Generator: Sketch 52.4 (67378) - http://www.bohemiancoding.com/sketch -->
    <title>矩形</title>
    <desc>Created with Sketch.</desc>
    <g id="Page-1" stroke="none" stroke-width="1" fill="none" fill-rule="evenodd">
        <g id="V1.1图标规范" transform="translate(-390.000000, -490.000000)">
            <g id="消息" transform="translate(390.000000, 490.000000)">
                <rect id="矩形" fill="#ffffff" opacity="0" x="0" y="0" width="40" height="40"></rect>
                <path d="M20,35.9166667 C16.9166667,35.9166667 14.5,33.4166667 14.5,30.4166667 C14.5,29.75 15.0833333,29.1666667 15.75,29.1666667 C16.4166667,29.1666667 17,29.75 17,30.4166667 C17,32.0833334 18.3333333,33.4166667 20,33.4166667 C21.6666667,33.4166667 23,32.0833334 23,30.4166667 C23,29.75 23.5833333,29.1666667 24.25,29.1666667 C24.9166667,29.1666667 25.5,29.75 25.5,30.4166667 C25.5,33.5 23.0833333,35.9166667 20,35.9166667 Z" id="路径" fill="#333"></path>
                <path d="M31.8333333,31.25 L8.16666668,31.25 C6.5,31.25 5.08333336,29.8333333 5,28.1666667 C5,26.8333334 5.75,25.6666667 6.91666668,25.0833333 C7.66666668,24.75 8,24.5833333 8.33333332,24.0833333 C9.16666664,22.6666666 9.08333332,20.8333333 8.91666668,18.9166667 C8.83333336,17.25 8.66666668,15.5 9.25,13.75 C10.25,10.3333333 12.8333333,7.5 16,6.16666668 C17.25,5.66666668 18.5,5.41666668 19.8333333,5.41666668 L20,5.41666668 C23.25,5.41666668 26.5,7 28.5833333,9.58333332 C29.9166666,11.1666666 30.75,13.25 31.0833333,15.5833333 C31.25,16.8333333 31.1666666,18.0833333 31.0833333,19.25 C31,20.9166667 30.9166666,22.5 31.5,23.8333333 C31.75,24.4166666 32.25,24.9166666 32.9166667,25.25 C33.5833334,25.5833333 34.9166667,26.3333333 34.9166667,28.1666667 C35,29.8333334 33.5833334,31.25 31.8333333,31.25 Z M20,7.91666668 L19.9166667,7.91666668 C18.9166667,7.91666668 17.9166667,8.16666668 17,8.5 C14.5,9.5 12.5,11.75 11.6666667,14.4166667 C11.25,15.6666667 11.3333334,17.1666667 11.5,18.6666667 C11.6666667,20.8333334 11.75,23.1666667 10.5833333,25.25 C9.83333332,26.5 8.83333332,26.9166667 8.08333332,27.3333333 C7.66666664,27.5 7.5,27.75 7.5,28.0833333 C7.5,28.4166666 7.83333332,28.75 8.16666668,28.75 L31.9166667,28.75 C32.25,28.75 32.5,28.4166667 32.5,28.0833333 C32.5,27.8333333 32.5,27.75 31.8333333,27.4166667 C30.75,26.8333334 29.8333333,26 29.3333333,24.9166667 C28.5,23.0833334 28.5833333,21.0833334 28.6666667,19.1666667 C28.75,18 28.8333334,17 28.6666667,16 C28.4166667,14.1666667 27.6666667,12.5 26.6666667,11.25 C25,9.08333332 22.5,7.91666668 20,7.91666668 Z" id="形状" fill="#333" fill-rule="nonzero"></path>
                <path d="M20,7.75 C19.3333333,7.75 18.75,7.16666668 18.75,6.5 L18.75,4.58333332 C18.75,3.83333332 19.3333333,3.33333332 20,3.33333332 C20.6666667,3.33333332 21.25,3.91666664 21.25,4.58333332 L21.25,6.5 C21.25,7.16666668 20.6666667,7.75 20,7.75 Z" id="路径" fill="#333"></path>
            </g>
        </g>
    </g>
</svg>
