<?xml version="1.0" encoding="UTF-8"?>
<svg width="36px" height="36px" viewBox="0 0 36 36" version="1.1" xmlns="http://www.w3.org/2000/svg" xmlns:xlink="http://www.w3.org/1999/xlink">
    <!-- Generator: Sketch 58 (84663) - https://sketch.com -->
    <title>矩形</title>
    <desc>Created with Sketch.</desc>
    <g id="社交" stroke="none" stroke-width="1" fill="none" fill-rule="evenodd">
        <g id="4.2.1-我的二维码" transform="translate(-684.000000, -64.000000)" fill-rule="nonzero">
            <g id="购物车" transform="translate(30.000000, 59.000000)">
                <g id="更多" transform="translate(654.000000, 5.000000)">
                    <rect id="矩形" fill="#000000" opacity="0" x="0" y="0" width="36" height="36"></rect>
                    <path d="M2.25,18 C2.25,20.1493801 3.99241681,21.8917969 6.14179688,21.8917969 C8.29117694,21.8917969 10.0335937,20.1493801 10.0335937,18 C10.0335937,15.8506199 8.29117694,14.1082031 6.14179688,14.1082031 C3.99241681,14.1082031 2.25,15.8506199 2.25,18 Z" id="路径" fill="#333333"></path>
                    <path d="M14.1082031,18 C14.1082031,20.1493801 15.8506199,21.8917969 18,21.8917969 C20.1493801,21.8917969 21.8917969,20.1493801 21.8917969,18 C21.8917969,16.6095949 21.1500246,15.3248075 19.9458985,14.629605 C18.7417723,13.9344024 17.2582277,13.9344024 16.0541015,14.629605 C14.8499754,15.3248075 14.1082031,16.6095949 14.1082031,18 L14.1082031,18 Z" id="路径" fill="#333333"></path>
                    <path d="M25.9664062,18 C25.9664062,20.1493801 27.7088231,21.8917969 29.8582031,21.8917969 C32.0075832,21.8917969 33.75,20.1493801 33.75,18 C33.75,15.8506199 32.0075832,14.1082031 29.8582031,14.1082031 C27.7088231,14.1082031 25.9664062,15.8506199 25.9664062,18 Z" id="路径" fill="#333333"></path>
                </g>
            </g>
        </g>
    </g>
</svg>