<?xml version="1.0" encoding="UTF-8"?>
<svg width="46px" height="46px" viewBox="0 0 46 46" version="1.1" xmlns="http://www.w3.org/2000/svg">
    <!-- Generator: Sketch 52.4 (67378) - http://www.bohemiancoding.com/sketch -->
    <title>more_icon_white.png</title>
    <desc>Created with Sketch.</desc>
    <g id="设计规范" stroke="none" stroke-width="1" fill="none" fill-rule="evenodd">
        <g id="图标" transform="translate(-542.000000, -590.000000)">
            <g id="功能图标" transform="translate(79.000000, 590.000000)">
                <g id="more_icon_white.png"
                   transform="translate(486.000000, 23.000000) scale(-1, -1) rotate(-270.000000) translate(-486.000000, -23.000000) translate(463.000000, 0.000000)">
                    <rect id="矩形" fill="#000000" opacity="0" x="1.42108547e-14" y="-1.13686838e-13" width="46"
                          height="46"></rect>
                    <path d="M23,38 C21.3,38 20,36.7 20,35 C20,33.3 21.3,32 23,32 C24.7,32 26,33.3 26,35 C26,36.7 24.7,38 23,38 Z M23,26 C21.3,26 20,24.7 20,23 C20,21.3 21.3,20 23,20 C24.7,20 26,21.3 26,23 C26,24.7 24.7,26 23,26 Z M23,14 C21.3,14 20,12.7 20,11 C20,9.29999998 21.3,8 23,8 C24.7,8 26,9.29999998 26,11 C26,12.7 24.7,14 23,14 Z"
                          id="形状" fill="#FFFFFF" fill-rule="nonzero"></path>
                </g>
            </g>
        </g>
    </g>
</svg>