<?xml version="1.0" encoding="UTF-8"?>
<svg width="88px" height="88px" viewBox="0 0 88 88" version="1.1" xmlns="http://www.w3.org/2000/svg" xmlns:xlink="http://www.w3.org/1999/xlink">
    <!-- Generator: Sketch 58 (84663) - https://sketch.com -->
    <title>矩形</title>
    <desc>Created with Sketch.</desc>
    <g id="社交" stroke="none" stroke-width="1" fill="none" fill-rule="evenodd">
        <g id="4.1-通讯录-(Friends)" transform="translate(-30.000000, -233.000000)">
            <g id="新朋友" transform="translate(30.000000, 233.000000)">
                <rect id="矩形" fill="#FE7935" x="0" y="0" width="88" height="88" rx="4"></rect>
                <g id="编组" transform="translate(11.602550, 19.299213)" fill="#FFFFFF" fill-rule="nonzero">
                    <path d="M36.4653659,37.4968665 C36.4653659,36.6027718 36.5527887,35.7252343 36.7112419,34.8697684 C36.776809,34.5165456 36.6019639,34.168842 36.2795926,34.0198241 C33.6186648,32.7504326 32.0177408,30.9953505 32.0177408,29.2237183 C32.0177408,28.3682596 32.3619673,27.579023 33.0941292,26.7235643 C33.3891805,26.44209 33.6623766,26.149577 33.9410333,25.834991 C36.3670105,23.0368055 37.7712407,19.0354505 37.7712407,14.8740082 C37.7712407,6.66159629 32.5094858,3.90798505e-14 26.0402298,3.90798505e-14 C19.5709526,3.90798505e-14 14.3092189,6.66156049 14.3092189,14.8740082 C14.3092189,19.5321341 15.9702507,23.8094418 18.8551966,26.6076416 L18.8551966,26.6241989 C19.4562274,27.2147435 20.1720019,28.152993 20.1720019,29.3064833 C20.1720019,31.3154394 17.9591173,33.3188741 14.3747859,34.5220434 C14.3583941,34.5386007 14.3420024,34.5386007 14.3256106,34.5386007 C13.8229302,34.6710592 13.3639644,34.8035177 12.6809706,35.0132441 C5.22818906,37.4471688 0.583839712,41.7244765 0.0155880744,46.5757901 C-0.142865864,47.9114108 0.928059117,49.0814656 2.25579697,49.0814656 L40.1261705,49.0814656 C40.8255518,49.0814656 41.1479246,48.2370427 40.6507068,47.7348019 C38.0662715,45.1187468 36.4653474,41.49821 36.4653474,37.4968408 L36.4653659,37.4968665 Z" id="路径"></path>
                    <path d="M52.4036368,24.3779906 C45.5628158,24.3779906 40.0169563,29.9798832 40.0169563,36.889789 C40.0169563,43.7997092 45.56283,49.4015874 52.4036368,49.4015874 C59.2444577,49.4015874 64.7903172,43.7996948 64.7903172,36.889789 C64.7903172,29.9798689 59.2444435,24.3779906 52.4036368,24.3779906 Z M59.4029159,38.346861 L54.0209596,38.346861 L54.0209596,43.9597966 L51.1578647,43.9597966 L51.1578647,38.346861 L45.4043576,38.346861 L45.4043576,35.4493316 L51.1523984,35.4493316 L51.1523984,29.8198387 L54.0154933,29.8198387 L54.0154933,35.4493316 L59.3974496,35.4493316 L59.3974496,38.346861 L59.4029159,38.346861 Z" id="形状"></path>
                </g>
            </g>
        </g>
    </g>
</svg>