<?xml version="1.0" encoding="UTF-8"?>
<svg width="46px" height="46px" viewBox="0 0 46 46" version="1.1" xmlns="http://www.w3.org/2000/svg" xmlns:xlink="http://www.w3.org/1999/xlink">
    <!-- Generator: Sketch 58 (84663) - https://sketch.com -->
    <title>矩形</title>
    <desc>Created with Sketch.</desc>
    <g id="我的" stroke="none" stroke-width="1" fill="none" fill-rule="evenodd">
        <g id="4-我的" transform="translate(-607.000000, -651.000000)">
            <g id="我的钱包备份" transform="translate(30.000000, 525.000000)">
                <g id="待评价" transform="translate(561.000000, 126.000000)">
                    <g id="daipingjia" transform="translate(16.000000, 0.000000)">
                        <g id="编组-2" transform="translate(0.000000, 2.000000)">
                            <path d="M23.0715028,39.6559067 L27.3184269,34.5 L40,34.5 C42.4852814,34.5 44.5,32.4852814 44.5,30 L44.5,6 C44.5,3.51471863 42.4852814,1.5 40,1.5 L6,1.5 C3.51471863,1.5 1.5,3.51471863 1.5,6 L1.5,30 C1.5,32.4852814 3.51471863,34.5 6,34.5 L18.7313654,34.5 L23.0715028,39.6559067 Z" id="矩形" stroke="#333333" stroke-width="3" fill="#FFFFFF"></path>
                            <rect id="矩形" fill="#333333" x="10" y="12" width="26" height="3" rx="1.5"></rect>
                            <rect id="矩形备份-5" fill="#333333" x="10" y="21" width="26" height="3" rx="1.5"></rect>
                        </g>
                    </g>
                </g>
            </g>
        </g>
    </g>
</svg>