<?xml version="1.0" encoding="UTF-8"?>
<svg width="40px" height="40px" viewBox="0 0 40 40" version="1.1" xmlns="http://www.w3.org/2000/svg" xmlns:xlink="http://www.w3.org/1999/xlink">
    <!-- Generator: Sketch 52.4 (67378) - http://www.bohemiancoding.com/sketch -->
    <title>矩形</title>
    <desc>Created with Sketch.</desc>
    <g id="设计规范" stroke="none" stroke-width="1" fill="none" fill-rule="evenodd">
        <g id="图标设计" transform="translate(-439.000000, -834.000000)">
            <g id="分组-copy" transform="translate(439.000000, 834.000000)">
                <rect id="矩形" fill="#000000" opacity="0" x="0" y="0" width="40" height="40"></rect>
                <path d="M28.3333333,38.3333333 L11.6666667,38.3333333 C8,38.3333333 5,35.3333333 5,31.6666667 L5,19.1666667 C5,17.3333334 6.5,15.8333334 8.33333332,15.8333333 L31.6666667,15.8333333 C33.5,15.8333333 35,17.3333333 35,19.1666667 L35,31.6666667 C35,35.3333334 32,38.3333334 28.3333333,38.3333333 Z M8.33333332,19.1666667 L8.33333332,31.6666667 C8.33333332,33.5 9.83333332,35 11.6666667,35 L28.3333333,35 C30.1666666,35 31.6666666,33.5 31.6666667,31.6666667 L31.6666667,19.1666667 L8.33333332,19.1666667 Z" id="形状" fill="#D9D9D9" fill-rule="nonzero"></path>
                <path d="M31.6666667,19.1666667 L8.33333332,19.1666667 L8.33333332,13.3333333 C8.33333332,6.91666664 13.5833333,1.66666664 20,1.66666668 C26.4166667,1.66666672 31.6666667,6.91666668 31.6666667,13.3333333 L31.6666667,19.1666667 Z M11.6666667,15.8333333 L28.3333333,15.8333333 L28.3333333,13.3333333 C28.3333333,8.75 24.5833333,5 20,5 C15.4166667,5 11.6666667,8.75 11.6666667,13.3333333 L11.6666667,15.8333333 Z" id="形状" fill="#D9D9D9" fill-rule="nonzero"></path>
                <path d="M17.5,27.0833333 C17.5,28.4640452 18.6192881,29.5833333 20,29.5833333 C21.3807119,29.5833333 22.5,28.4640452 22.5,27.0833333 C22.5,25.7026214 21.3807119,24.5833333 20,24.5833333 C18.6192881,24.5833333 17.5,25.7026214 17.5,27.0833333 Z" id="路径" fill="#D9D9D9"></path>
            </g>
        </g>
    </g>
</svg>