<?xml version="1.0" encoding="UTF-8"?>
<svg width="80px" height="80px" viewBox="0 0 80 80" version="1.1" xmlns="http://www.w3.org/2000/svg" xmlns:xlink="http://www.w3.org/1999/xlink">
    <!-- Generator: Sketch 58 (84663) - https://sketch.com -->
    <title>编组 2</title>
    <desc>Created with Sketch.</desc>
    <g id="购物车" stroke="none" stroke-width="1" fill="none" fill-rule="evenodd">
        <g id="3.3.2-ETC收银台-(支付密码）" transform="translate(-335.000000, -180.000000)">
            <g id="编组-2" transform="translate(335.000000, 180.000000)">
                <rect id="矩形" fill="#FFFFFF" x="0" y="0" width="80" height="80" rx="16"></rect>
                <g id="店铺" transform="translate(18.000000, 18.000000)" fill="#9D9D9D" fill-rule="nonzero">
                    <path d="M40.0224294,7.54452892 L3.85241073,7.54452892 L0.09775402,18.3516849 C0.09775402,21.5869734 2.53829592,24.2715695 5.54202989,24.2715695 C8.54576385,24.2715695 11.0488683,21.6557922 11.0488683,18.3516849 C11.0488683,21.5869734 13.4894102,24.2715695 16.4931442,24.2715695 C19.4968782,24.2715695 21.9999826,21.6557922 21.9999826,18.3516849 C21.9999826,21.5869734 24.4405245,24.2715695 27.4442585,24.2715695 C30.4479925,24.2715695 32.8885344,21.6557922 32.8885344,18.3516849 C32.8885344,21.5869734 35.3290763,24.2715695 38.3953728,24.2715695 C41.3991068,24.2715695 43.9022112,21.6557922 43.9022112,18.3516849 L40.0223864,7.54452892 L40.0224294,7.54452892 Z M37.0186954,26.1301505 L37.0186954,39.8972724 L6.98131281,39.8972724 L6.98131281,26.1301505 C6.98131281,26.1301505 5.91749126,26.1301505 5.72976057,26.1301505 C5.29173663,26.1301505 3.85241073,26.1301505 3.85241073,26.1301505 L3.85241073,40.5856498 C3.85241073,41.8246723 5.10396297,43.3390647 6.23039006,43.3390647 L37.7070556,43.3390647 C38.8334397,43.3390647 40.0850349,41.8247196 40.0850349,40.5856498 L40.0850349,26.1301505 L37.5819305,26.1301505 C37.4567623,26.1301505 37.0187384,26.1301505 37.0187384,26.1301505 L37.0186954,26.1301505 Z M6.35555818,4.79111399 L37.644493,4.79111399 C38.7083146,4.79111399 39.5218429,3.89628014 39.5218429,2.72602917 C39.5218429,1.5557782 38.7083575,0.660944345 37.644493,0.660944345 L6.35555818,0.660944345 C5.29173663,0.660944345 4.47820834,1.5557782 4.47820834,2.72602917 C4.47820834,3.89628014 5.29169366,4.79111399 6.35555818,4.79111399 Z" id="形状"></path>
                </g>
            </g>
        </g>
    </g>
</svg>