<?xml version="1.0" encoding="UTF-8"?>
<svg width="60px" height="60px" viewBox="0 0 60 60" version="1.1" xmlns="http://www.w3.org/2000/svg" xmlns:xlink="http://www.w3.org/1999/xlink">
    <!-- Generator: Sketch 58 (84663) - https://sketch.com -->
    <title>矩形</title>
    <desc>Created with Sketch.</desc>
    <g id="社交" stroke="none" stroke-width="1" fill="none" fill-rule="evenodd">
        <g id="4.4-新的朋友" transform="translate(-30.000000, -249.000000)" fill-rule="nonzero">
            <g id="手机" transform="translate(30.000000, 249.000000)">
                <rect id="矩形" fill="#000000" opacity="0" x="0" y="0" width="60" height="60"></rect>
                <path d="M45.4670945,60.0566016 L14.1729548,60.0566016 C12.3196676,60.0566016 10.820056,58.6670589 10.820056,56.9533035 L10.820056,3.16001989 C10.820056,1.44620443 12.3196677,0.0566016211 14.1729548,0.0566016211 L45.4670945,0.0566016211 C47.3203817,0.0566016211 48.820056,1.44620443 48.820056,3.16001989 L48.820056,56.9532435 C48.820056,58.6670589 47.3203817,60.0566016 45.4670945,60.0566016 Z M44.820056,6.05660162 L43.7486017,6.05660162 L15.8915104,6.05660162 L14.820056,6.05660162 L14.820056,46.0566016 L15.8915103,46.0566016 L43.7486017,46.0566016 L44.820056,46.0566016 L44.820056,6.05660162 Z" id="形状" fill="#0966C3"></path>
                <path d="M29.9998917,57 C32.2070938,57 34.0000599,55.2098219 34.0000599,53.0009871 C34.0000599,50.7920362 32.2070938,49 29.9998917,49 C27.7925776,49 26.0000599,50.7922685 26.0000599,53.0009871 C25.9999478,55.2098219 27.7926897,57 29.9998917,57 Z" id="路径" fill="#FFFFFF"></path>
            </g>
        </g>
    </g>
</svg>