<?xml version="1.0" encoding="UTF-8"?>
<svg width="26px" height="26px" viewBox="0 0 26 26" version="1.1" xmlns="http://www.w3.org/2000/svg" xmlns:xlink="http://www.w3.org/1999/xlink">
    <!-- Generator: Sketch 52.4 (67378) - http://www.bohemiancoding.com/sketch -->
    <title>矩形</title>
    <desc>Created with Sketch.</desc>
    <g id="设计规范" stroke="none" stroke-width="1" fill="none" fill-rule="evenodd">
        <g id="图标设计" transform="translate(-353.000000, -774.000000)" fill="#333333" fill-rule="nonzero">
            <g id="上下" transform="translate(353.000000, 774.000000)">
                <g id="分组">
                    <path d="M4.72132544,10.004897 L20.7106436,10.004897 C21.4589122,10.004897 21.9708854,9.56205525 21.5770598,9.156117 C21.1438517,8.75017875 13.8974612,1.59090423 13.5824008,1.29567641 C13.2279578,0.926641641 12.2827764,0.889738164 11.8101857,1.29567641 C11.4951252,1.66471118 4.44564754,8.56566137 3.85490918,9.156117 C3.46108361,9.52515177 3.9336743,10.004897 4.72132544,10.004897 Z" id="路径"></path>
                    <path d="M20.7106436,16.004897 L4.72132544,16.004897 C3.9336743,16.004897 3.46108361,16.48585 3.85490918,16.8558139 C4.44564754,17.4477562 11.4951252,24.3660812 11.8495683,24.6990487 C12.2827764,25.1430054 13.2279578,25.0690126 13.6217833,24.6990487 C13.8974612,24.440074 21.1438517,17.2627742 21.5770598,16.8558139 C21.9708854,16.4488537 21.4589122,16.0418934 20.7106436,16.004897 Z" id="路径"></path>
                </g>
            </g>
        </g>
    </g>
</svg>