<?xml version="1.0" encoding="UTF-8"?>
<svg width="36px" height="36px" viewBox="0 0 36 36" version="1.1" xmlns="http://www.w3.org/2000/svg" xmlns:xlink="http://www.w3.org/1999/xlink">
    <!-- Generator: Sketch 58 (84663) - https://sketch.com -->
    <title>矩形</title>
    <desc>Created with Sketch.</desc>
    <g id="我的" stroke="none" stroke-width="1" fill="none" fill-rule="evenodd">
        <g id="5.1.-个人资料" transform="translate(-638.000000, -692.000000)" fill-rule="nonzero">
            <g id="用户名字" transform="translate(0.000000, 458.000000)">
                <g id="分组-3备份" transform="translate(30.000000, 228.000000)">
                    <g id="二维码" transform="translate(608.000000, 6.000000)">
                        <rect id="矩形" fill="#000000" opacity="0" x="0" y="0" width="36" height="36"></rect>
                        <g id="编组-2" transform="translate(1.252800, 1.440000)" fill="#9D9D9D">
                            <path d="M14.706,-4.08562073e-14 L0.864,-4.08562073e-14 C0.386825976,-4.08562073e-14 -1.45661261e-13,0.386825976 -1.45661261e-13,0.864 L-1.45661261e-13,14.6952 C-1.45661261e-13,15.172374 0.386825976,15.5592 0.864,15.5592 L14.706,15.5592 C15.183174,15.5592 15.57,15.172374 15.57,14.6952 L15.57,0.8532 C15.5640877,0.380248968 15.178988,-4.08562073e-14 14.706,-4.08562073e-14 Z M13.842,13.842 L1.728,13.842 L1.728,1.7172 L13.842,1.7172 L13.842,13.842 Z" id="形状"></path>
                            <path d="M5.1912,11.2356 L10.3824,11.2356 C10.611547,11.2356 10.8313088,11.1445717 10.9933403,10.9825403 C11.1553717,10.8205088 11.2464,10.600747 11.2464,10.3716 L11.2464,5.1804 C11.2464,4.70322598 10.859574,4.3164 10.3824,4.3164 L5.1912,4.3164 C4.71402598,4.3164 4.3272,4.70322598 4.3272,5.1804 L4.3272,10.3716 C4.3272,10.848774 4.71402598,11.2356 5.1912,11.2356 L5.1912,11.2356 Z M6.0552,6.0444 L9.5148,6.0444 L9.5148,9.504 L6.0552,9.504 L6.0552,6.0444 Z M14.706,17.5608 L0.864,17.5608 C0.386825976,17.5608 -3.90798505e-14,17.947626 -3.90798505e-14,18.4248 L-3.90798505e-14,32.2668 C0.00591234837,32.739751 0.391012016,33.12 0.864,33.12 L14.706,33.12 C14.935147,33.12 15.1549088,33.0289717 15.3169403,32.8669403 C15.4789717,32.7049088 15.57,32.485147 15.57,32.256 L15.57,18.4248 C15.57,17.947626 15.183174,17.5608 14.706,17.5608 L14.706,17.5608 Z M13.842,31.4028 L1.728,31.4028 L1.728,19.2888 L13.842,19.2888 L13.842,31.4028 Z M18.7884,26.5176 C19.017547,26.5176 19.2373088,26.4265717 19.3993403,26.2645403 C19.5613717,26.1025088 19.6524,25.882747 19.6524,25.6536 L19.6524,19.2888 L25.7076,19.2888 C26.1857681,19.2888 26.5734,18.9011681 26.5734,18.423 C26.5734,17.9448319 26.1857681,17.5572 25.7076,17.5572 L18.7884,17.5572 C18.311226,17.5572 17.9244,17.944026 17.9244,18.4212 L17.9244,25.6536 C17.9244,26.130774 18.311226,26.5176 18.7884,26.5176 L18.7884,26.5176 Z M21.924,31.4028 L19.6524,31.4028 L19.6524,29.8152 C19.6524,29.3370319 19.2647681,28.9494 18.7866,28.9494 C18.3084319,28.9494 17.9208,29.3370319 17.9208,29.8152 L17.9208,32.2668 C17.9208,32.495947 18.0118283,32.7157088 18.1738597,32.8777403 C18.3358912,33.0397717 18.555653,33.1308 18.7848,33.1308 L21.9204,33.1308 C22.3985681,33.1308 22.7862,32.7431681 22.7862,32.265 C22.7862,31.7868319 22.3985681,31.3992 21.9204,31.3992 L21.924,31.4028 Z M32.6304,24.174 C32.153226,24.174 31.7664,24.560826 31.7664,25.038 L31.7664,31.4028 L27.0072,31.4028 C26.5290319,31.4028 26.1414,31.7904319 26.1414,32.2686 C26.1414,32.7467681 26.5290319,33.1344 27.0072,33.1344 L32.6304,33.1344 C33.107574,33.1344 33.4944075,32.747574 33.4944075,32.2704 L33.4944075,25.0416 C33.4953574,24.8118298 33.4047519,24.5911421 33.2426166,24.4283312 C33.0804813,24.2655203 32.8601722,24.174 32.6304,24.174 Z M32.6304,17.5608 L30.0672,17.5608 C29.5890319,17.5608 29.2014,17.9484319 29.2014,18.4266 C29.2014,18.9047681 29.5890319,19.2924 30.0672,19.2924 L31.7628,19.2924 L31.7628,21.2832 L26.4132,21.2832 C25.9350319,21.2832 25.5474,21.6708319 25.5474,22.149 C25.5474,22.6271681 25.9350319,23.0148 26.4132,23.0148 L32.5332,23.0148 C32.6188879,23.0130847 32.7038334,22.9985226 32.7852,22.9716 C33.1900299,22.890757 33.4811127,22.5348215 33.4800032,22.122 L33.4800032,18.4248 C33.4800032,17.9531934 33.1019411,17.5686601 32.6304,17.5608 L32.6304,17.5608 Z" id="形状"></path>
                            <path d="M5.1912,28.8 L10.3824,28.8 C10.611547,28.8 10.8313088,28.7089717 10.9933403,28.5469403 C11.1553717,28.3849088 11.2464,28.165147 11.2464,27.936 L11.2464,22.7484 C11.2464,22.271226 10.859574,21.8844 10.3824,21.8844 L5.1912,21.8844 C4.71402598,21.8844 4.3272,22.271226 4.3272,22.7484 L4.3272,27.9396 C4.32918238,28.4153675 4.71542834,28.8 5.1912,28.8 Z M6.0552,23.616 L9.5148,23.616 L9.5148,27.0756 L6.0552,27.0756 L6.0552,23.616 Z M32.6304,-2.30926389e-14 L18.7884,-2.30926389e-14 C18.311226,-2.30926389e-14 17.9244,0.386825976 17.9244,0.864 L17.9244,14.6952 C17.9244,15.172374 18.311226,15.5592 18.7884,15.5592 L32.6304,15.5592 C33.107574,15.5592 33.4944,15.172374 33.4944,14.6952 L33.4944,0.8532 C33.4884877,0.380248968 33.103388,-2.30926389e-14 32.6304,-2.30926389e-14 Z M31.7664,13.842 L19.6524,13.842 L19.6524,1.7172 L31.7664,1.7172 L31.7664,13.842 Z" id="形状"></path>
                            <path d="M23.112,11.2356 L28.3032,11.2356 C28.532347,11.2356 28.7521088,11.1445717 28.9141403,10.9825403 C29.0761717,10.8205088 29.1672,10.600747 29.1672,10.3716 L29.1672,5.1804 C29.1652176,4.70463247 28.7789717,4.32 28.3032,4.32 L23.112,4.32 C22.634826,4.32 22.248,4.70682598 22.248,5.184 L22.248,10.3716 C22.248,10.848774 22.634826,11.2356 23.112,11.2356 L23.112,11.2356 Z M23.976,6.0444 L27.4392,6.0444 L27.4392,9.504 L23.9796,9.504 L23.976,6.0444 Z M22.248,20.2715925 C22.018853,20.2715925 21.7990912,20.3626283 21.6370597,20.5246597 C21.4750283,20.6866912 21.384,20.906453 21.384,21.1356 L21.384,23.1552 C21.384,23.6333681 21.7716319,24.021 22.2498,24.021 C22.7279681,24.021 23.1156,23.6333681 23.1156,23.1552 L23.1156,21.1356 C23.1156,20.9058278 23.0240797,20.6855187 22.8612688,20.5233834 C22.6984579,20.3612481 22.4777702,20.2706426 22.248,20.2715925 Z M28.386,28.3572 C28.8641681,28.3572 29.2518,27.9695681 29.2518,27.4914 C29.2518,27.0132319 28.8641681,26.6256 28.386,26.6256 L24.3072,26.6256 C23.830026,26.6256 23.4432,27.012426 23.4432,27.4896 L23.4432,32.2668 C23.4432,32.7449681 23.8308319,33.1326 24.309,33.1326 C24.7871681,33.1326 25.1748,32.7449681 25.1748,32.2668 L25.1748,28.3572 L28.386,28.3572 Z" id="形状"></path>
                        </g>
                    </g>
                </g>
            </g>
        </g>
    </g>
</svg>