<?xml version="1.0" encoding="UTF-8"?>
<svg width="36px" height="36px" viewBox="0 0 36 36" version="1.1" xmlns="http://www.w3.org/2000/svg" xmlns:xlink="http://www.w3.org/1999/xlink">
    <!-- Generator: Sketch 52.4 (67378) - http://www.bohemiancoding.com/sketch -->
    <title>矩形</title>
    <desc>Created with Sketch.</desc>
    <g id="设计规范" stroke="none" stroke-width="1" fill="none" fill-rule="evenodd">
        <g transform="translate(-81.000000, -329.000000)" fill="#FE9339" id="帮助中心">
            <g transform="translate(81.000000, 329.000000)">
                <g id="分组" transform="translate(2.000000, 2.000000)">
                    <path d="M2,0 L30,0 C31.1045695,-2.02906125e-16 32,0.8954305 32,2 L32,30 C32,31.1045695 31.1045695,32 30,32 L2,32 C0.8954305,32 1.3527075e-16,31.1045695 0,30 L0,2 C-1.3527075e-16,0.8954305 0.8954305,2.02906125e-16 2,0 Z M16.2098823,9.67011766 C16.4809412,9.70541178 16.7557647,9.72282353 17.0225882,9.77929412 C18.2254118,10.0329412 18.7355294,11.5825882 17.9411765,12.5256471 C17.4592941,13.0978823 16.8691765,13.5402353 16.2752941,13.9797647 C14.7534118,15.1072941 13.9618824,16.6094118 13.9703529,18.5115294 C13.9740369,18.7422941 14.0324201,18.968892 14.1407059,19.1727059 C14.4221176,19.6941176 14.8945882,19.9115294 15.4781177,19.9609412 C16.5218824,20.0489412 17.3444706,19.1595294 17.2748235,18.3214117 C17.2489412,18.0127059 17.2955294,17.6818823 17.3811765,17.3821177 C17.5505882,16.7887059 17.9774117,16.3647059 18.4484706,15.9967059 C19.0931765,15.4941176 19.776,15.0381176 20.4018823,14.5138823 C21.0489412,13.9717647 21.4823529,13.2724706 21.6324706,12.4249412 C21.7830588,11.5788235 21.7058823,10.7425882 21.4602353,9.92470587 C20.96,8.25694116 19.8183529,7.25082353 18.1642353,6.80705881 C17.2277647,6.55623528 16.2701176,6.54447056 15.3110588,6.65411766 C13.816,6.82494119 12.4969412,7.38917647 11.4108235,8.44611766 C10.9595294,8.88470591 10.6,9.39482353 10.4305882,10.0122353 C10.3129412,10.4432941 10.3054118,10.8771765 10.5764706,11.2616471 C11.0404706,11.9190588 12.0272941,12.1054118 12.7468235,11.6992941 C13.0903529,11.5049412 13.304,11.1943529 13.5397647,10.8988235 C13.858353,10.4988235 14.2127059,10.1430588 14.6992941,9.94352941 C15.184,9.74541175 15.6912941,9.70164706 16.2098823,9.67011766 Z M17.5077647,23.5171765 L17.5077647,23.2385882 C17.5068235,22.5270588 17.1628235,22.0291765 16.5341177,21.7298823 C15.9647059,21.4583529 15.3661177,21.4701176 14.7825882,21.6696471 C14.2494118,21.8517647 13.832,22.2023529 13.6865882,22.7647059 C13.6089412,23.0658823 13.6249412,23.3943529 13.6202353,23.7105882 C13.6098823,24.4061177 13.9769412,24.8738824 14.568,25.1792941 C15.0291765,25.4183529 15.5303529,25.4545882 16.0348235,25.3712941 C16.5948235,25.2785882 17.0324706,24.9882353 17.3218823,24.4908235 C17.5058823,24.1745882 17.5138823,23.8272941 17.5077647,23.5171765 Z" id="合并形状"></path>
                </g>
            </g>
        </g>
    </g>
</svg>