<?xml version="1.0" encoding="UTF-8"?>
<svg width="64px" height="64px" viewBox="0 0 64 64" version="1.1" xmlns="http://www.w3.org/2000/svg" xmlns:xlink="http://www.w3.org/1999/xlink">
    <!-- Generator: Sketch 58 (84663) - https://sketch.com -->
    <title>接收</title>
    <desc>Created with Sketch.</desc>
    <g id="我的" stroke="none" stroke-width="1" fill="none" fill-rule="evenodd">
        <g id="4.5.9-我的钱包" transform="translate(-141.000000, -466.000000)">
            <g id="接收" transform="translate(140.000000, 465.000000)">
                <g transform="translate(33.000000, 33.000000) scale(1, -1) translate(-33.000000, -33.000000) translate(-0.000000, 0.000000)">
                    <rect id="矩形" stroke="#333333" stroke-width="3" x="2.5" y="2.5" width="61" height="61" rx="12"></rect>
                    <path d="M33.5,22.9995146 L33.6437786,23.0063793 L33.7011914,23.0133764 C33.7345416,23.017847 33.7675448,23.0234136 33.8001635,23.0300386 L33.6437786,23.0063793 C33.7137827,23.0130806 33.7834059,23.0246881 33.85209,23.0412018 L34.0180657,23.091434 L34.0180657,23.091434 L34.1581437,23.1511555 L34.1581437,23.1511555 L34.3082481,23.2355957 L34.3082481,23.2355957 L34.4467378,23.3358842 L34.4467378,23.3358842 L34.5606602,23.4388545 L40.9246212,29.8028155 C41.5104076,30.3886019 41.5104076,31.3383494 40.9246212,31.9241359 C40.3754464,32.4733106 39.506384,32.5076341 38.9172233,32.0271061 L38.8033009,31.9241359 L34.999039,28.1185146 L35,51.5 C35,52.3284271 34.3284271,53 33.5,53 C32.6715729,53 32,52.3284271 32,51.5 L31.999039,28.1205146 L28.1966991,31.9241359 C27.6109127,32.5099223 26.6611652,32.5099223 26.0753788,31.9241359 C25.4895924,31.3383494 25.4895924,30.3886019 26.0753788,29.8028155 L32.4393398,23.4388545 C32.4838184,23.3943759 32.5303954,23.3532745 32.5787521,23.3155504 L32.6587065,23.2573964 L32.6587065,23.2573964 L32.7823175,23.1819796 L32.7823175,23.1819796 L32.8592422,23.1433543 L32.8592422,23.1433543 C33.061276,23.047334 33.280638,22.9995146 33.5,22.9995146 Z" id="路径" fill="#333333"></path>
                    <rect id="矩形" fill="#333333" x="18" y="13" width="30" height="3" rx="1.5"></rect>
                </g>
            </g>
        </g>
    </g>
</svg>