<?xml version="1.0" encoding="UTF-8"?>
<svg width="380px" height="220px" viewBox="0 0 380 220" version="1.1" xmlns="http://www.w3.org/2000/svg" xmlns:xlink="http://www.w3.org/1999/xlink">
    <!-- Generator: Sketch 52.4 (67378) - http://www.bohemiancoding.com/sketch -->
    <title>分组 4</title>
    <desc>Created with Sketch.</desc>
    <g id="设计规范" stroke="none" stroke-width="1" fill="none" fill-rule="evenodd">
        <g id="图片素材" transform="translate(-514.000000, -150.000000)" fill="#FE9339" fill-rule="nonzero">
            <g id="分组-4" transform="translate(514.000000, 150.000000)">
                <path d="M8.02110818,22 L0,22 L0,0 L22,0 L22,8 L8.02110818,8 L8.02110818,22 Z M8.02110818,198 L8.02110818,212 L22,212 L22,220 L0,220 L0,198 L8.02110818,198 Z M358,212 L371.978892,212 L371.978892,198 L380,198 L380,220 L358,220 L358,212 Z M371.978892,22 L371.978892,8 L358,8 L358,0 L380,0 L380,22 L371.978892,22 Z" id="形状"></path>
            </g>
        </g>
    </g>
</svg>