<?xml version="1.0" encoding="UTF-8"?>
<svg width="40px" height="40px" viewBox="0 0 40 40" version="1.1" xmlns="http://www.w3.org/2000/svg" xmlns:xlink="http://www.w3.org/1999/xlink">
    <!-- Generator: Sketch 52.4 (67378) - http://www.bohemiancoding.com/sketch -->
    <title>矩形</title>
    <desc>Created with Sketch.</desc>
    <g id="设计规范" stroke="none" stroke-width="1" fill="none" fill-rule="evenodd">
        <g transform="translate(-420.000000, -76.000000)" id="设置">
            <g transform="translate(420.000000, 76.000000)">
                <rect id="矩形" fill="#000000" opacity="0" x="0" y="0" width="40" height="40"></rect>
                <g id="分组" transform="translate(2.000000, 3.111111)" stroke="#FFFFFF" stroke-width="3">
                    <path d="M34.832,20.3448889 C30.9255605,20.5331111 27.8498044,23.7459581 27.832,27.6568889 C27.8612459,28.6264213 28.0729399,29.5817585 28.456,30.4728889 L23.816,33.0168889 C23.7627845,33.0164841 23.7105215,33.0027307 23.664,32.9768889 C23.1373449,32.4197338 22.5616975,31.9110223 21.944,31.4568889 C20.496,30.3928889 19.128,29.8568889 17.864,29.8568889 C16.6,29.8568889 15.248,30.3768889 13.8,31.4248889 C13.1850607,31.8704979 12.6120229,32.3712365 12.088,32.9208889 C12.0419814,32.94796 11.9893828,32.9618018 11.936,32.9608889 L7.464,30.4888889 C7.84676465,29.5948588 8.05842483,28.6369608 8.088,27.6648889 C8.07019563,23.7539581 4.99443946,20.5411111 1.088,20.3528889 C0.883901102,19.254272 0.763554848,18.1417377 0.728,17.0248889 C0.765261825,15.9051205 0.888288754,14.7898547 1.096,13.6888889 C5.00243946,13.5006667 8.07819563,10.2878197 8.096,6.37688889 C8.06566541,5.40749261 7.85401578,4.45235582 7.472,3.56088889 L12.2,0.984888889 C12.2618273,0.985422088 12.3224627,1.001959 12.376,1.03288889 C12.8996648,1.55749386 13.4670475,2.03655756 14.072,2.46488889 C15.488,3.46488889 16.824,3.97688889 18.056,3.97688889 C19.288,3.97688889 20.6,3.48888889 22.016,2.48888889 C22.6176812,2.07137108 23.18242,1.60298579 23.704,1.08888889 C23.7575373,1.057959 23.8181727,1.04142209 23.88,1.04088889 L23.896,1.04088889 L28.456,3.56088889 C28.0739842,4.45235582 27.8623346,5.40749261 27.832,6.37688889 C27.8498044,10.2878197 30.9255605,13.5006667 34.832,13.6888889 C35.0360989,14.7875058 35.1564452,15.9000401 35.192,17.0168889 C35.15894,18.1339107 35.038573,19.2466365 34.832,20.3448889 Z" id="路径" stroke-linecap="round" stroke-linejoin="round" fill-rule="nonzero"></path>
                    <circle id="椭圆形" cx="18" cy="17" r="5.5"></circle>
                </g>
            </g>
        </g>
    </g>
</svg>