<?xml version="1.0" encoding="UTF-8"?>
<svg width="36px" height="36px" viewBox="0 0 36 36" version="1.1" xmlns="http://www.w3.org/2000/svg" xmlns:xlink="http://www.w3.org/1999/xlink">
    <!-- Generator: Sketch 52.4 (67378) - http://www.bohemiancoding.com/sketch -->
    <title>矩形</title>
    <desc>Created with Sketch.</desc>
    <g id="设计规范" stroke="none" stroke-width="1" fill="none" fill-rule="evenodd">
        <g transform="translate(-166.000000, -254.000000)" id="账单_壹米滴答">
            <g transform="translate(166.000000, 254.000000)">
                <g id="分组" transform="translate(2.000000, 2.000000)">
                    <rect id="矩形" stroke="#333333" stroke-width="2" fill="#FFFFFF" x="1" y="1" width="20" height="30"></rect>
                    <rect id="矩形" stroke="#333333" stroke-width="2" fill="#FFFFFF" x="21" y="15" width="10" height="16"></rect>
                    <path d="M22,18 L28,18 L28,20 L22,20 L22,18 Z M22,22 L28,22 L28,24 L22,24 L22,22 Z M5,6 L17,6 L17,8 L5,8 L5,6 Z M5,10 L17,10 L17,12 L5,12 L5,10 Z M5,14 L17,14 L17,16 L5,16 L5,14 Z" id="形状" fill="#FE9339"></path>
                </g>
            </g>
        </g>
    </g>
</svg>