<?xml version="1.0" encoding="UTF-8"?>
<svg width="80px" height="80px" viewBox="0 0 80 80" version="1.1" xmlns="http://www.w3.org/2000/svg" xmlns:xlink="http://www.w3.org/1999/xlink">
    <!-- Generator: Sketch 52.4 (67378) - http://www.bohemiancoding.com/sketch -->
    <title>分组 7</title>
    <desc>Created with Sketch.</desc>
    <g id="UI设计" stroke="none" stroke-width="1" fill="none" fill-rule="evenodd">
        <g id="1.5.-数据统计" transform="translate(-60.000000, -1018.000000)">
            <g id="分组-10" transform="translate(30.000000, 978.000000)">
                <g id="分组-7" transform="translate(30.000000, 40.000000)">
                    <circle id="椭圆形-copy-2" fill="#FFF4EC" cx="40" cy="40" r="40"></circle>
                    <g id="number" transform="translate(20.000000, 22.000000)" fill="#FF6C00" fill-rule="nonzero">
                        <path d="M11.0345596,15.7199554 C13.9589744,15.7199554 16.3393534,13.3623188 16.3393534,10.4833891 C16.3393534,7.60445931 13.9362319,5.24682274 11.0345596,5.24682274 C8.1328874,5.24682274 5.72976589,7.60445931 5.72976589,10.4833891 C5.72976589,13.3623188 8.11014493,15.7199554 11.0345596,15.7199554 Z M38.0793757,25.3092531 C37.0363434,23.6316611 35.6080268,22.2943144 33.8399108,21.342252 C31.7092531,20.1859532 29.0564103,19.619175 25.9736901,19.619175 C22.890524,19.619175 20.2381271,20.2086957 18.1070234,21.342252 C16.3389075,22.2943144 14.9105909,23.632107 13.8680045,25.3092531 C12.0544036,28.2336678 12.0316611,31.2263099 12.0316611,31.3395764 C12.0316611,33.4934225 13.3694537,35.2615385 15.0243032,35.2615385 L36.9685619,35.2615385 C38.6234114,35.2615385 39.9607581,33.516165 39.9607581,31.3395764 C39.9157191,31.2263099 39.8929766,28.2341137 38.0793757,25.3092531 Z M25.1576366,13.9745819 C29.0568562,13.9745819 32.2305463,10.8463768 32.2305463,6.99219621 C32.2305463,3.13801561 29.0568562,0.0102564103 25.1576366,0.0102564103 C21.2584169,0.0102564103 18.0847269,3.13846154 18.0847269,6.99264214 C18.0847269,10.8468227 21.2584169,13.9745819 25.1576366,13.9745819 Z M13.3239688,23.2918618 C13.7774805,22.0673356 12.9386845,21.9540691 12.3719064,21.9090301 C12.0316611,21.8867336 4.77770346,21.3877369 1.33199554,26.6243032 C-0.0963210702,28.7777035 0.0169453735,31.2263099 0.0169453735,31.3168339 C0.0169453735,33.47068 1.35429208,35.238796 3.00914158,35.238796 L9.78729097,35.238796 C10.7620959,35.238796 10.9890747,34.6042363 10.7848384,33.9237458 C9.22095875,28.5966555 13.2789298,23.4278707 13.3239688,23.2918618 Z" id="形状"></path>
                    </g>
                </g>
            </g>
        </g>
    </g>
</svg>