<?xml version="1.0" encoding="UTF-8"?>
<svg width="660px" height="310px" viewBox="0 0 660 310" version="1.1" xmlns="http://www.w3.org/2000/svg" xmlns:xlink="http://www.w3.org/1999/xlink">
    <!-- Generator: Sketch 52.4 (67378) - http://www.bohemiancoding.com/sketch -->
    <title>分组 12</title>
    <desc>Created with Sketch.</desc>
    <g id="UI设计" stroke="none" stroke-width="1" fill="none" fill-rule="evenodd">
        <g id="1.5.-数据统计" transform="translate(-46.000000, -162.000000)">
            <g id="分组-2" transform="translate(46.000000, 162.000000)">
                <g id="分组-12">
                    <rect id="矩形" stroke="#F5F5F5" fill="#FFFFFF" x="0.5" y="239.5" width="659" height="69"></rect>
                    <rect id="矩形-copy-3" stroke="#F5F5F5" fill="#FFFFFF" x="0.5" y="170.5" width="659" height="69"></rect>
                    <rect id="矩形-copy-4" stroke="#F5F5F5" fill="#FFFFFF" x="0.5" y="101.5" width="659" height="69"></rect>
                    <rect id="矩形-copy-5" stroke="#F5F5F5" fill="#FFFFFF" x="0.5" y="32.5" width="659" height="69"></rect>
                    <rect id="矩形" fill="#F5F5F5" x="165" y="8" width="1" height="300"></rect>
                    <rect id="矩形-copy-6" fill="#F5F5F5" x="330" y="8" width="1" height="300"></rect>
                    <rect id="矩形-copy-7" fill="#F5F5F5" x="494" y="8" width="1" height="300"></rect>
                    <rect id="矩形-copy-8" fill="#F5F5F5" x="659" y="8" width="1" height="300"></rect>
                    <rect id="矩形-copy-9" fill="#F5F5F5" x="0" y="8" width="1" height="300"></rect>
                    <path d="M0,308.679453 L0,194.662664 C34.2260428,188.730099 61.5143742,178.245104 81.8649942,163.207677 C112.390924,140.651537 142.518306,117 231.538737,117 C320.559167,117 328.847519,195.094793 395.449548,212.839727 C462.051577,230.58466 554.155291,226.077452 659.608504,146.625975 C660.130499,146.232688 660.130499,200.250515 659.608504,308.679453 L0,308.679453 Z" id="路径-10" fill="#FF6C00" opacity="0.7"></path>
                    <path d="M0.13975137,308.407914 C141.837294,210.496068 228.587199,135.009422 260.389467,81.9479747 C308.092868,2.35580391 353.21434,-0.17667425 389.464881,1.08956483 C425.715423,2.35580391 527.868046,87.0129311 564.15911,171.137434 C588.353152,227.220436 620.267754,263.953907 659.902917,281.337847 L659.902917,308.407914 L0.13975137,308.407914 Z" id="路径-11" fill="#FF6C00" opacity="0.2"></path>
                    <path d="M659.174462,309.01679 L0,309.01679 L0,262.638271 C46.9623,256.595127 80.3932968,250.384525 100.29299,244.006467 C168.152617,222.256753 220.636267,195 266.416345,195 C365.292515,195 418.85044,270.994444 490.261006,270.994444 C537.868051,270.994444 594.172536,270.994444 659.174462,270.994444 L659.174462,309.01679 Z" id="路径-9" fill="#FF6C00"></path>
                </g>
            </g>
        </g>
    </g>
</svg>