<?xml version="1.0" encoding="UTF-8"?>
<svg width="80px" height="80px" viewBox="0 0 80 80" version="1.1" xmlns="http://www.w3.org/2000/svg" xmlns:xlink="http://www.w3.org/1999/xlink">
    <!-- Generator: Sketch 52.4 (67378) - http://www.bohemiancoding.com/sketch -->
    <title>分组 5</title>
    <desc>Created with Sketch.</desc>
    <g id="UI设计" stroke="none" stroke-width="1" fill="none" fill-rule="evenodd">
        <g id="1.5.-数据统计" transform="translate(-60.000000, -828.000000)">
            <g id="分组-9" transform="translate(30.000000, 788.000000)">
                <g id="分组-5" transform="translate(30.000000, 40.000000)">
                    <circle id="椭圆形-copy" fill="#FFF4EC" cx="40" cy="40" r="40"></circle>
                    <g id="lianhe" transform="translate(20.000000, 18.000000)" fill="#FF6C00" fill-rule="nonzero">
                        <path d="M16.4548177,44.4029845 C7.49704069,44.4029845 0.0163321041,39.7766109 0.0163321041,30.1290917 C0.176254304,26.566664 1.7303596,23.209924 4.34329991,20.783196 C5.22452413,19.8852136 6.17929566,19.0624928 7.19763492,18.3236331 C7.3747748,18.247541 7.54107435,18.1483579 7.69220889,18.028663 C6.31493647,17.4192087 5.39983682,16.0843307 5.32801223,14.5799521 C5.60416957,12.0688495 7.83186293,10.2357255 10.3491579,10.4481525 C10.9203066,10.4410831 11.4876553,10.5419116 12.0213945,10.7453404 C12.2371197,10.7996797 12.4384282,10.9003339 12.6113348,11.0403105 C12.7089189,11.1356768 12.9063049,11.0403105 12.9063049,11.1356768 C13.1803831,10.728431 13.5129254,10.3637554 13.8932351,10.0533804 C14.572096,9.29863613 15.5394886,8.86762223 16.5546197,8.86762223 C17.5697507,8.86762223 18.5371433,9.29863613 19.2160043,10.0533804 C19.600704,10.3590872 19.9339083,10.7244888 20.2029344,11.1356768 C20.3175916,11.2129401 20.4557435,11.2474781 20.5932708,11.2332609 C20.77938,11.1151404 20.9770492,11.0163058 21.1832111,10.9382908 C21.7169646,10.7349135 22.2843033,10.6340867 22.8554477,10.6411028 C24.0692304,10.5230368 25.2801937,10.892047 26.2218715,11.6669347 C27.1635493,12.4418224 27.7587825,13.5590949 27.8765934,14.7729024 C27.8054825,16.2769826 26.8900131,17.6115412 25.5123967,18.2193955 C25.7097827,18.3191974 25.8073668,18.4189994 26.0025351,18.5165835 C27.0475239,19.2220429 28.0062459,20.0475263 28.8590879,20.9761464 C31.457409,23.3448777 33.0455216,26.621948 33.2947289,30.1290917 C33.2947289,39.7766109 25.8140203,44.4029845 16.8584611,44.4029845 L16.4548177,44.4029845 Z M28.8479987,8.8003118 L32.5539768,8.8003118 L32.5539768,3.55271368e-14 L36.2599549,3.55271368e-14 L36.2599549,8.8003118 L39.965933,8.8003118 L34.3304511,18.1417718 L28.8479987,8.8003118 Z M16.274,21.006 C14.998,21.072 13.964,21.402 13.128,22.018 C12.028,22.788 11.478,23.888 11.478,25.318 C11.478,26.946 12.248,28.156 13.788,28.97 L16.274,29.894 L16.274,35.262 C15.526,35.174 14.954,34.932 14.558,34.536 C14.03,34.03 13.744,33.172 13.656,31.984 L11.28,31.984 C11.412,33.788 11.918,35.108 12.842,35.988 C13.634,36.758 14.778,37.198 16.274,37.286 L16.274,39.222 L17.638,39.222 L17.638,37.286 C19.002,37.198 20.102,36.868 20.982,36.296 C22.126,35.504 22.72,34.338 22.72,32.776 C22.72,31.192 21.95,29.982 20.432,29.124 C20.212,29.036 19.266,28.662 17.638,28.046 L17.638,23.008 C18.232,23.074 18.716,23.25 19.09,23.536 C19.64,23.932 19.992,24.614 20.124,25.56 L22.456,25.56 C22.236,23.976 21.686,22.81 20.784,22.106 C19.992,21.468 18.958,21.094 17.638,21.006 L17.638,19.202 L16.274,19.202 L16.274,21.006 Z M17.638,30.378 C17.77,30.422 17.902,30.488 18.034,30.532 C19.574,31.06 20.344,31.852 20.344,32.864 C20.344,33.634 20.014,34.228 19.398,34.668 C18.914,34.976 18.342,35.174 17.638,35.262 L17.638,30.378 Z M16.274,27.54 C16.23,27.54 16.208,27.518 16.186,27.518 C14.646,26.946 13.876,26.22 13.876,25.318 C13.876,24.482 14.162,23.866 14.778,23.47 C15.152,23.206 15.658,23.03 16.274,22.986 L16.274,27.54 Z" id="合并形状"></path>
                    </g>
                </g>
            </g>
        </g>
    </g>
</svg>