<?xml version="1.0" encoding="UTF-8"?>
<svg width="46px" height="46px" viewBox="0 0 46 46" version="1.1" xmlns="http://www.w3.org/2000/svg">
    <!-- Generator: Sketch 52.4 (67378) - http://www.bohemiancoding.com/sketch -->
    <title>tanjia_icon_default.png</title>
    <desc>Created with Sketch.</desc>
    <g id="设计规范" stroke="none" stroke-width="1" fill="none" fill-rule="evenodd">
        <g id="图标" transform="translate(-348.000000, -657.000000)">
            <g id="功能图标" transform="translate(79.000000, 590.000000)"></g>
            <g id="tanjia_icon_default.png" transform="translate(348.000000, 657.000000)">
                <rect id="矩形" fill="#000000" opacity="0" x="0" y="0" width="46" height="46"></rect>
                <path d="M23,46 C10.35,46 0,35.65 0,23 C0,10.35 10.35,0 23,0 C35.65,0 46,10.35 46,23 C46,35.65 35.65,46 23,46 Z M23,2 C11.3,2 2,11.3 2,23 C2,34.7 11.3,44 23,44 C34.7,44 44,34.7 44,23 C44,11.3 34.7,2 23,2 Z M33.5,24 L12.5,24 C11.6,24 11,23.6 11,23 C11,22.4 11.6,22 12.5,22 L33.5,22 C34.4,22 35,22.4 35,23 C35,23.6 34.4,24 33.5,24 Z M23,35 C22.4,35 22,34.4 22,33.5 L22,12.5 C22,11.6 22.4,11 23,11 C23.6,11 24,11.6 24,12.5 L24,33.5 C24,34.4 23.6,35 23,35 Z"
                      id="形状" fill="#384953" fill-rule="nonzero"></path>
            </g>
        </g>
    </g>
</svg>