<?xml version="1.0" encoding="UTF-8"?>
<svg width="30px" height="30px" viewBox="0 0 30 30" version="1.1" xmlns="http://www.w3.org/2000/svg" xmlns:xlink="http://www.w3.org/1999/xlink">
    <!-- Generator: Sketch 58 (84663) - https://sketch.com -->
    <title>矩形</title>
    <desc>Created with Sketch.</desc>
    <g id="我的" stroke="none" stroke-width="1" fill="none" fill-rule="evenodd">
        <g id="5.3-用户名" transform="translate(-690.000000, -177.000000)" fill-rule="nonzero">
            <g id="关闭" transform="translate(690.000000, 177.000000)">
                <rect id="矩形" fill="#000000" opacity="0" x="0" y="0" width="30" height="30"></rect>
                <path d="M24.2803903,4.35687806 C18.7879025,-0.612292676 10.3764878,-0.573951211 4.92907318,4.47160975 C-1.28370729,10.2260488 -1.28370729,19.7742439 4.92907318,25.5286829 C10.3764878,30.5742439 18.7879025,30.6122927 24.2803903,25.6434146 C30.7091707,19.8269268 30.7091707,10.1730732 24.2803903,4.35687806 L24.2803903,4.35687806 Z M20.7096585,21.0456585 C20.3666341,21.3886829 19.8108293,21.3886829 19.4678049,21.0456585 L14.7283903,16.3062439 C14.7090732,16.2869268 14.6777561,16.2869268 14.6581463,16.3062439 L9.92019513,21.0444878 C9.57717073,21.3875122 9.02136586,21.3875122 8.67834146,21.0444878 L8.67717073,21.0433171 C8.33414634,20.7002927 8.33414634,20.1444878 8.67717073,19.8014634 L13.4154146,15.0632195 C13.4347317,15.0439025 13.4347317,15.0125854 13.4154146,14.9929756 L8.676,10.2541463 C8.33297561,9.91112194 8.33297561,9.35531707 8.676,9.01229268 L8.67717073,9.01112194 C9.02019513,8.66809755 9.576,8.66809755 9.91902439,9.01112194 L14.658439,13.7505366 C14.6777561,13.7698537 14.7090732,13.7698537 14.7286829,13.7505366 L19.4692683,9.00995121 C19.8122927,8.66692682 20.3680975,8.66692682 20.7111219,9.00995121 L20.7122927,9.01112194 C21.0553171,9.35414634 21.0553171,9.90995121 20.7122927,10.2529756 L15.9714146,14.9932683 C15.9520976,15.0125854 15.9520976,15.0439024 15.9714146,15.0635122 L20.7105366,19.8029268 C21.053561,20.1459512 21.053561,20.7017561 20.7105366,21.0447805 L20.7096585,21.0456585 Z" id="形状" fill="#D9D9D9"></path>
            </g>
        </g>
    </g>
</svg>
