<?xml version="1.0" encoding="UTF-8"?>
<svg width="40px" height="40px" viewBox="0 0 40 40" version="1.1" xmlns="http://www.w3.org/2000/svg" xmlns:xlink="http://www.w3.org/1999/xlink">
    <!-- Generator: Sketch 52.4 (67378) - http://www.bohemiancoding.com/sketch -->
    <title>矩形</title>
    <desc>Created with Sketch.</desc>
    <g id="设计规范" stroke="none" stroke-width="1" fill="none" fill-rule="evenodd">
        <g id="图标设计" transform="translate(-385.000000, -834.000000)" fill="#D9D9D9" fill-rule="nonzero">
            <g id="用户管理-copy" transform="translate(385.000000, 834.000000)">
                <g id="分组">
                    <g id="分组-2" transform="translate(5.000000, 1.000000)">
                        <path d="M14.9999975,2.98342541 C16.571755,2.98342541 18.0501407,3.57016575 19.1654142,4.63922652 C20.2755004,5.70331492 20.8927913,7.12541436 20.8927913,8.6320442 L20.8927913,9.37790055 C20.8927913,10.8845304 20.2806877,12.3016575 19.1654142,13.3707182 C18.0553281,14.4348066 16.571755,15.0265193 14.9999975,15.0265193 C13.42824,15.0265193 11.9498543,14.439779 10.8345808,13.3707182 C9.72449464,12.3066298 9.10720375,10.8845304 9.10720375,9.37790055 L9.10720375,8.6320442 C9.10720375,7.12541436 9.71930732,5.70828729 10.8345808,4.63922652 C11.9498543,3.57016575 13.42824,2.98342541 14.9999975,2.98342541 Z M14.9999975,0 C10.0305464,0 6,3.86353591 6,8.62707182 L6,9.37292818 C6,14.1364641 10.0305464,18 14.9999975,18 C19.9694486,18 23.999995,14.1364641 23.999995,9.37292818 L23.999995,8.62707182 C24.0051823,3.85856354 19.9746359,0 14.9999975,0 Z" id="形状"></path>
                        <path d="M16.8514815,21.2030662 C19.4855481,21.2030662 21.9669151,22.2066936 23.826577,24.0324414 C25.6916924,25.8581891 26.7169606,28.2818426 26.7169606,30.8603109 C26.7169606,33.0010268 24.939102,34.7413595 22.7522269,34.7413595 L7.23141247,34.7413595 C5.04453736,34.7413595 3.26667879,33.0010268 3.26667879,30.8603109 C3.26667879,28.2818426 4.29194692,25.8528507 6.15706235,24.0324414 C8.02217779,22.2066936 10.4980913,21.2030662 13.1321578,21.2030662 L16.8514815,21.2030662 Z M16.8514815,18 L13.1376113,18 C5.8789311,18 0,23.7601808 0,30.8603109 C0,34.7733901 3.23941102,37.9444257 7.23686602,37.9444257 L22.763134,37.9444257 C26.760589,37.9444257 30,34.7733901 30,30.8603109 C29.9890929,23.7601808 24.1101618,18 16.8514815,18 Z" id="形状"></path>
                    </g>
                </g>
            </g>
        </g>
    </g>
</svg>