<?xml version="1.0" encoding="UTF-8"?>
<svg width="46px" height="46px" viewBox="0 0 46 46" version="1.1" xmlns="http://www.w3.org/2000/svg">
    <!-- Generator: Sketch 52.4 (67378) - http://www.bohemiancoding.com/sketch -->
    <title>yy_icon_default.png</title>
    <desc>Created with Sketch.</desc>
    <g id="设计规范" stroke="none" stroke-width="1" fill="none" fill-rule="evenodd">
        <g id="图标" transform="translate(-218.000000, -657.000000)">
            <g id="功能图标" transform="translate(79.000000, 590.000000)"></g>
            <g id="yy_icon_default.png" transform="translate(218.000000, 657.000000)">
                <rect id="矩形" fill="#000000" opacity="0" x="0" y="0" width="46" height="46"></rect>
                <circle id="椭圆形" stroke="#384953" stroke-width="2" cx="23" cy="23" r="22"></circle>
                <path d="M24.7609375,9.92773437 L24.653125,10.0535156 C24.1050781,10.6914062 24.15,11.64375 24.7429688,12.2367188 C27.5820313,15.09375 29.3429688,19.0378906 29.3429688,23.3953125 C29.3429688,27.6808594 27.6359375,31.5710938 24.86875,34.4191406 C24.29375,35.0121094 24.2488281,35.9464844 24.7878906,36.584375 C25.3988281,37.3121094 26.5039063,37.3570313 27.16875,36.6832031 C30.5558594,33.2332031 32.6492188,28.4984375 32.6492188,23.2785156 C32.6492188,18.040625 30.546875,13.296875 27.1328125,9.83789063 C26.4679688,9.1640625 25.371875,9.20898438 24.7609375,9.92773438 Z"
                      id="路径" fill="#384953"></path>
                <path d="M21.9039062,15.5160156 C21.346875,14.7523438 20.2417969,14.6625 19.5589844,15.3273438 L19.5230469,15.3542969 C18.9570312,15.9023438 18.8851562,16.7738281 19.3523437,17.4117188 C20.6101562,19.11875 21.346875,21.2210938 21.346875,23.503125 C21.346875,25.6144531 20.7089844,27.5730469 19.621875,29.2082031 C19.1816406,29.8640625 19.3074219,30.7535156 19.909375,31.265625 C20.6191406,31.8675781 21.6972656,31.7238281 22.2183594,30.9511719 C23.6558594,28.8128906 24.4914062,26.234375 24.4914062,23.4671875 C24.5003906,20.484375 23.5390625,17.7441406 21.9039062,15.5160156 Z M12.6589844,23.3234375 C12.6589844,25.2640625 13.7730469,26.8453125 15.1476562,26.8453125 C16.5222656,26.8453125 17.6363281,25.2730469 17.6363281,23.3234375 C17.6363281,21.3828125 16.5222656,19.8015625 15.1476562,19.8015625 C13.7730469,19.8015625 12.6589844,21.3738281 12.6589844,23.3234375 Z"
                      id="形状" fill="#384953" fill-rule="nonzero"></path>
            </g>
        </g>
    </g>
</svg>